<?xml version="1.0" encoding="utf-8"?>
<!-- Generator: Adobe Illustrator 25.2.3, SVG Export Plug-In . SVG Version: 6.00 Build 0)  -->
<svg version="1.1" xmlns="http://www.w3.org/2000/svg" xmlns:xlink="http://www.w3.org/1999/xlink" x="0px" y="0px"
	 viewBox="0 0 595.276 841.89" style="enable-background:new 0 0 595.276 841.89;" xml:space="preserve">
<style type="text/css">
	.st0{fill:#4D697C;}
	.st1{fill:#567284;}
	.st2{fill:#46637C;}
	.st3{display:none;}
	.st4{display:inline;fill:#4C707B;}
	.st5{fill:none;stroke:#FFFFFF;stroke-width:14;stroke-miterlimit:10;}
	.st6{fill:none;stroke:#FFFFFF;stroke-width:10;stroke-miterlimit:10;}
	.st7{fill:#FFFFFF;}
	.st8{fill:#F0EFEF;}
	.st9{fill:none;}
</style>
<g id="Background">
	<rect class="st0" width="595.276" height="841.89"/>
	<polygon class="st1" points="594.918,97.924 -0.225,366.667 595.501,607.778 	"/>
	<polygon class="st2" points="0,366.667 595.726,607.778 595.276,841.89 0,841.89 	"/>
</g>
<g id="background_extra_triangle" class="st3">
	<polygon class="st4" points="595.143,97.924 0,722.427 595.276,841.89 	"/>
</g>
<g id="Graphic">
	<ellipse class="st5" cx="537.245" cy="775.207" rx="97.073" ry="308.454"/>
	
		<ellipse transform="matrix(0.866 -0.5 0.5 0.866 -315.6264 372.4803)" class="st5" cx="537.245" cy="775.207" rx="308.454" ry="97.073"/>
	
		<ellipse transform="matrix(0.5 -0.866 0.866 0.5 -402.7267 852.8709)" class="st5" cx="537.245" cy="775.207" rx="97.073" ry="308.454"/>
	<circle class="st6" cx="537.245" cy="775.207" r="31.418"/>
</g>
<g id="Logo">
	<g>
		<path class="st7" d="M39.938,805.352c-1.659-0.482-2.991-1.108-3.997-1.878l1.766-3.917c0.963,0.706,2.108,1.274,3.435,1.702
			c1.327,0.428,2.654,0.642,3.981,0.642c1.477,0,2.568-0.219,3.275-0.658c0.706-0.438,1.06-1.022,1.06-1.75
			c0-0.535-0.209-0.979-0.626-1.332c-0.417-0.353-0.953-0.637-1.605-0.851c-0.653-0.214-1.536-0.449-2.649-0.706
			c-1.713-0.406-3.114-0.813-4.206-1.22c-1.092-0.406-2.028-1.06-2.809-1.958c-0.782-0.899-1.172-2.097-1.172-3.596
			c0-1.305,0.353-2.488,1.06-3.548c0.706-1.06,1.771-1.899,3.195-2.52c1.423-0.621,3.162-0.931,5.217-0.931
			c1.434,0,2.836,0.172,4.206,0.514c1.37,0.343,2.568,0.835,3.596,1.477l-1.605,3.949c-2.076-1.177-4.153-1.766-6.229-1.766
			c-1.456,0-2.531,0.236-3.227,0.706c-0.696,0.471-1.043,1.092-1.043,1.862c0,0.771,0.401,1.343,1.204,1.718
			c0.803,0.375,2.028,0.744,3.676,1.108c1.712,0.407,3.114,0.814,4.206,1.22c1.092,0.407,2.028,1.049,2.809,1.926
			c0.781,0.878,1.172,2.066,1.172,3.564c0,1.284-0.359,2.456-1.076,3.516c-0.717,1.06-1.793,1.9-3.227,2.52
			c-1.434,0.621-3.178,0.931-5.233,0.931C43.314,806.074,41.596,805.833,39.938,805.352z"/>
		<path class="st7" d="M78.641,805.689l-0.032-13.485l-6.614,11.109h-2.344l-6.582-10.82v13.196h-4.88v-22.474h4.302l8.412,13.966
			l8.283-13.966h4.27l0.064,22.474H78.641z"/>
		<path class="st7" d="M127.763,805.689l-4.335-6.261h-0.257h-4.527v6.261h-5.201v-22.474h9.728c1.991,0,3.719,0.332,5.185,0.995
			c1.466,0.664,2.595,1.605,3.387,2.825c0.792,1.22,1.188,2.665,1.188,4.334s-0.401,3.109-1.204,4.318
			c-0.803,1.21-1.943,2.135-3.419,2.777l5.04,7.224H127.763z M126.447,788.464c-0.814-0.674-2.002-1.011-3.564-1.011h-4.238v7.834
			h4.238c1.562,0,2.75-0.342,3.564-1.027c0.813-0.685,1.22-1.648,1.22-2.89C127.667,790.107,127.26,789.138,126.447,788.464z"/>
		<path class="st7" d="M141.376,787.452h-7.192v-4.238h19.585v4.238h-7.192v18.236h-5.201V787.452z"/>
		<path class="st7" d="M51.761,826.111v3.573H36.863v-19.241h14.541v3.573H41.288v4.178h8.933v3.463h-8.933v4.453H51.761z"/>
		<path class="st7" d="M72.598,810.444v19.241h-3.656l-9.593-11.682v11.682h-4.398v-19.241h3.683l9.566,11.682v-11.682H72.598z"/>
		<path class="st7" d="M91.349,826.111v3.573H76.452v-19.241h14.541v3.573H80.877v4.178h8.933v3.463h-8.933v4.453H91.349z"/>
		<path class="st7" d="M106.8,829.685l-3.711-5.36h-0.22h-3.876v5.36H94.54v-19.241h8.329c1.704,0,3.184,0.284,4.439,0.852
			c1.255,0.568,2.222,1.374,2.9,2.419c0.678,1.045,1.017,2.281,1.017,3.711s-0.344,2.662-1.031,3.697
			c-0.687,1.036-1.663,1.828-2.927,2.378l4.315,6.185H106.8z M105.673,814.938c-0.697-0.577-1.714-0.866-3.051-0.866h-3.628v6.707
			h3.628c1.337,0,2.354-0.293,3.051-0.88c0.696-0.586,1.045-1.411,1.045-2.474C106.717,816.344,106.369,815.515,105.673,814.938z"/>
		<path class="st7" d="M127.922,819.939h4.068v7.806c-1.044,0.788-2.254,1.393-3.628,1.814c-1.374,0.421-2.758,0.632-4.151,0.632
			c-1.997,0-3.793-0.426-5.387-1.278c-1.594-0.852-2.845-2.034-3.752-3.546c-0.907-1.512-1.361-3.22-1.361-5.126
			c0-1.906,0.454-3.615,1.361-5.126c0.907-1.512,2.167-2.694,3.779-3.546c1.612-0.852,3.426-1.278,5.442-1.278
			c1.686,0,3.216,0.284,4.59,0.852c1.374,0.568,2.529,1.393,3.463,2.474l-2.859,2.639c-1.374-1.447-3.033-2.172-4.975-2.172
			c-1.228,0-2.318,0.257-3.271,0.77c-0.953,0.513-1.695,1.237-2.226,2.172c-0.532,0.935-0.797,2.007-0.797,3.216
			c0,1.191,0.265,2.254,0.797,3.188c0.531,0.935,1.269,1.663,2.213,2.185c0.944,0.522,2.02,0.783,3.23,0.783
			c1.282,0,2.437-0.275,3.463-0.825V819.939z"/>
		<path class="st7" d="M145.703,822.868v6.817h-4.453v-6.872l-7.449-12.369h4.728l5.14,8.548l5.14-8.548h4.371L145.703,822.868z"/>
	</g>
	<path class="st8" d="M98.609,805.67h12.553c0,0-5.591-13.75-5.591-22.474H98.56h-7.011c0,8.724-5.591,22.474-5.591,22.474h12.553"
		/>
</g>
<g id="Text">
	<g>
		<rect x="35.94" y="30.899" class="st9" width="387.356" height="210.067"/>
		<path class="st7" d="M37.424,66.567l2.915-6.465c3.126,2.278,7.79,3.868,12.242,3.868c5.087,0,7.154-1.696,7.154-3.975
			c0-6.942-21.569-2.172-21.569-15.951c0-6.307,5.087-11.553,15.633-11.553c4.664,0,9.433,1.113,12.877,3.286l-2.649,6.518
			c-3.445-1.961-6.996-2.915-10.281-2.915c-5.088,0-7.048,1.908-7.048,4.239c0,6.836,21.568,2.12,21.568,15.739
			c0,6.2-5.14,11.5-15.739,11.5C46.645,70.86,40.71,69.111,37.424,66.567z"/>
		<path class="st7" d="M98.794,53.955v16.269h-7.737v-3.551c-1.537,2.597-4.505,3.975-8.691,3.975
			c-6.677,0-10.651-3.709-10.651-8.638c0-5.035,3.55-8.532,12.241-8.532h6.571c0-3.55-2.12-5.617-6.571-5.617
			c-3.021,0-6.147,1.007-8.214,2.649l-2.968-5.776c3.127-2.226,7.737-3.444,12.295-3.444C93.76,41.29,98.794,45.317,98.794,53.955z
			 M90.527,61.215V58.3h-5.67c-3.868,0-5.087,1.431-5.087,3.339c0,2.067,1.749,3.444,4.664,3.444
			C87.188,65.083,89.573,63.812,90.527,61.215z"/>
		<path class="st7" d="M115.331,42.35h7.313v6.359h-7.101v21.516h-8.267V48.708h-4.398V42.35h4.398v-1.272
			c0-6.412,3.922-10.599,11.023-10.599c2.332,0,4.77,0.477,6.306,1.537l-2.173,5.988c-0.901-0.636-2.066-1.007-3.338-1.007
			c-2.438,0-3.763,1.325-3.763,4.133V42.35z"/>
		<path class="st7" d="M154.178,58.3h-21.569c0.795,3.551,3.816,5.724,8.161,5.724c3.021,0,5.193-0.901,7.154-2.756l4.398,4.77
			c-2.65,3.021-6.624,4.61-11.765,4.61c-9.857,0-16.269-6.2-16.269-14.679c0-8.532,6.518-14.679,15.209-14.679
			c8.373,0,14.838,5.617,14.838,14.785C154.337,56.711,154.231,57.612,154.178,58.3z M132.503,53.478h14.043
			c-0.583-3.604-3.286-5.935-6.995-5.935C135.789,47.543,133.086,49.821,132.503,53.478z"/>
		<path class="st7" d="M177.552,41.29v7.631c-0.689-0.053-1.219-0.106-1.855-0.106c-4.558,0-7.578,2.491-7.578,7.949v13.46h-8.267
			V41.713h7.896v3.763C169.762,42.72,173.154,41.29,177.552,41.29z"/>
		<path class="st7" d="M48.023,95.124H36.152v-6.995h32.326v6.995H56.608v30.101h-8.585V95.124z"/>
		<path class="st7" d="M101.656,108.902v16.322H93.39v-15.05c0-4.61-2.12-6.73-5.776-6.73c-3.975,0-6.836,2.438-6.836,7.684v14.096
			H72.51V85.903h8.267v13.778c2.226-2.226,5.405-3.392,9.062-3.392C96.569,96.29,101.656,100.211,101.656,108.902z"/>
		<path class="st7" d="M134.357,108.955v16.269h-7.737v-3.551c-1.537,2.597-4.505,3.975-8.691,3.975
			c-6.677,0-10.651-3.709-10.651-8.638c0-5.035,3.55-8.532,12.241-8.532h6.571c0-3.55-2.12-5.617-6.571-5.617
			c-3.021,0-6.147,1.007-8.214,2.649l-2.968-5.776c3.127-2.226,7.737-3.444,12.295-3.444
			C129.323,96.29,134.357,100.317,134.357,108.955z M126.09,116.215V113.3h-5.67c-3.868,0-5.087,1.431-5.087,3.339
			c0,2.067,1.749,3.444,4.664,3.444C122.752,120.083,125.137,118.812,126.09,116.215z"/>
		<path class="st7" d="M170.979,108.902v16.322h-8.267v-15.05c0-4.61-2.12-6.73-5.776-6.73c-3.975,0-6.836,2.438-6.836,7.684v14.096
			h-8.267V96.713h7.896v3.339c2.226-2.438,5.564-3.763,9.433-3.763C165.892,96.29,170.979,100.211,170.979,108.902z"/>
		<path class="st7" d="M96.406,143.128l-12.135,37.096H75.05l-8.161-25.119l-8.426,25.119h-9.168l-12.188-37.096h8.903l8.373,26.073
			l8.744-26.073h7.949l8.479,26.285l8.638-26.285H96.406z"/>
		<path class="st7" d="M100.123,143.128c0-2.597,2.067-4.61,5.141-4.61s5.14,1.908,5.14,4.452c0,2.755-2.066,4.769-5.14,4.769
			S100.123,145.725,100.123,143.128z M101.13,151.713h8.267v28.511h-8.267V151.713z"/>
		<path class="st7" d="M146.229,163.902v16.322h-8.267v-15.05c0-4.61-2.12-6.73-5.776-6.73c-3.975,0-6.836,2.438-6.836,7.684v14.096
			h-8.267v-28.511h7.896v3.339c2.226-2.438,5.564-3.763,9.433-3.763C141.142,151.29,146.229,155.211,146.229,163.902z"/>
		<path class="st7" d="M183.063,140.903v39.321h-7.896v-3.286c-2.066,2.491-5.087,3.709-8.903,3.709
			c-8.055,0-14.255-5.723-14.255-14.679s6.2-14.679,14.255-14.679c3.498,0,6.465,1.113,8.532,3.444v-13.831H183.063z
			 M174.956,165.969c0-4.928-3.18-7.896-7.26-7.896c-4.133,0-7.313,2.968-7.313,7.896c0,4.929,3.18,7.896,7.313,7.896
			C171.776,173.865,174.956,170.897,174.956,165.969z"/>
	</g>
	<g>
		<rect x="270.593" y="277.847" class="st9" width="309.407" height="127.494"/>
		<path class="st7" d="M279.181,278.355v8.396h-1.283l-4.63-5.685v5.685h-1.547v-8.396h1.283l4.629,5.685v-5.685H279.181z"/>
		<path class="st7" d="M287.498,280.347v6.404h-1.427v-0.815c-0.479,0.587-1.235,0.899-2.063,0.899
			c-1.643,0-2.758-0.899-2.758-2.831v-3.658h1.499v3.454c0,1.163,0.552,1.715,1.499,1.715c1.043,0,1.751-0.647,1.751-1.931v-3.238
			H287.498z"/>
		<path class="st7" d="M288.941,283.549c0-1.919,1.439-3.274,3.466-3.274c1.247,0,2.243,0.516,2.734,1.487l-1.151,0.671
			c-0.384-0.611-0.959-0.887-1.595-0.887c-1.103,0-1.943,0.768-1.943,2.003c0,1.247,0.84,2.003,1.943,2.003
			c0.636,0,1.211-0.276,1.595-0.888l1.151,0.672c-0.492,0.959-1.487,1.499-2.734,1.499
			C290.38,286.835,288.941,285.468,288.941,283.549z"/>
		<path class="st7" d="M296.38,277.852h1.499v8.899h-1.499V277.852z"/>
		<path class="st7" d="M305.845,284.028h-5.024c0.18,0.936,0.959,1.535,2.074,1.535c0.72,0,1.283-0.228,1.739-0.695l0.804,0.923
			c-0.576,0.684-1.476,1.043-2.579,1.043c-2.146,0-3.538-1.379-3.538-3.286c0-1.907,1.403-3.274,3.311-3.274
			c1.871,0,3.238,1.308,3.238,3.31C305.869,283.705,305.857,283.885,305.845,284.028z M300.808,283.033h3.634
			c-0.119-0.924-0.827-1.559-1.811-1.559C301.659,281.474,300.951,282.098,300.808,283.033z"/>
		<path class="st7" d="M312.494,282.997v3.754h-1.416v-0.78c-0.359,0.552-1.055,0.864-2.015,0.864c-1.464,0-2.387-0.804-2.387-1.919
			c0-1.067,0.72-1.907,2.663-1.907h1.654v-0.096c0-0.875-0.527-1.391-1.596-1.391c-0.719,0-1.463,0.24-1.942,0.636l-0.587-1.092
			c0.684-0.527,1.679-0.792,2.71-0.792C311.426,280.274,312.494,281.15,312.494,282.997z M310.994,284.748v-0.744h-1.547
			c-1.02,0-1.295,0.384-1.295,0.852c0,0.54,0.455,0.888,1.223,0.888C310.107,285.744,310.742,285.408,310.994,284.748z"/>
		<path class="st7" d="M318.123,280.274v1.427c-0.133-0.024-0.24-0.036-0.348-0.036c-1.141,0-1.859,0.672-1.859,1.979v3.106h-1.5
			v-6.404h1.428v0.935C316.275,280.61,317.055,280.274,318.123,280.274z"/>
		<path class="st7" d="M322.564,278.392c0-0.504,0.408-0.899,0.96-0.899s0.96,0.372,0.96,0.863c0,0.528-0.396,0.936-0.96,0.936
			C322.973,279.291,322.564,278.896,322.564,278.392z M322.769,280.347h1.499v6.404h-1.499V280.347z"/>
		<path class="st7" d="M325.505,286.115l0.575-1.139c0.564,0.372,1.428,0.636,2.231,0.636c0.947,0,1.343-0.264,1.343-0.708
			c0-1.223-3.957-0.072-3.957-2.626c0-1.211,1.091-2.003,2.818-2.003c0.851,0,1.822,0.204,2.398,0.552l-0.576,1.14
			c-0.611-0.36-1.223-0.48-1.835-0.48c-0.911,0-1.343,0.3-1.343,0.72c0,1.295,3.958,0.144,3.958,2.65
			c0,1.199-1.104,1.979-2.903,1.979C327.147,286.835,326.08,286.523,325.505,286.115z"/>
		<path class="st7" d="M334.996,286.115l0.575-1.139c0.564,0.372,1.428,0.636,2.231,0.636c0.947,0,1.343-0.264,1.343-0.708
			c0-1.223-3.958-0.072-3.958-2.626c0-1.211,1.092-2.003,2.818-2.003c0.852,0,1.823,0.204,2.399,0.552l-0.576,1.14
			c-0.611-0.36-1.223-0.48-1.835-0.48c-0.911,0-1.343,0.3-1.343,0.72c0,1.295,3.958,0.144,3.958,2.65
			c0,1.199-1.104,1.979-2.903,1.979C336.639,286.835,335.571,286.523,334.996,286.115z"/>
		<path class="st7" d="M347.269,282.997v3.754h-1.415v-0.78c-0.36,0.552-1.056,0.864-2.016,0.864c-1.463,0-2.387-0.804-2.387-1.919
			c0-1.067,0.72-1.907,2.663-1.907h1.655v-0.096c0-0.875-0.528-1.391-1.596-1.391c-0.72,0-1.463,0.24-1.942,0.636l-0.588-1.092
			c0.684-0.527,1.679-0.792,2.71-0.792C346.201,280.274,347.269,281.15,347.269,282.997z M345.77,284.748v-0.744h-1.548
			c-1.02,0-1.295,0.384-1.295,0.852c0,0.54,0.456,0.888,1.224,0.888C344.882,285.744,345.518,285.408,345.77,284.748z"/>
		<path class="st7" d="M350.847,280.011v0.384h1.763v1.199h-1.715v5.157h-1.499v-5.157h-1.056v-1.199h1.056v-0.408
			c0-1.343,0.804-2.219,2.291-2.219c0.516,0,1.019,0.108,1.354,0.348l-0.42,1.127c-0.228-0.156-0.516-0.264-0.827-0.264
			C351.17,278.979,350.847,279.327,350.847,280.011z"/>
		<path class="st7" d="M359.521,284.028h-5.025c0.18,0.936,0.959,1.535,2.075,1.535c0.719,0,1.283-0.228,1.738-0.695l0.804,0.923
			c-0.575,0.684-1.475,1.043-2.578,1.043c-2.147,0-3.538-1.379-3.538-3.286c0-1.907,1.403-3.274,3.31-3.274
			c1.871,0,3.238,1.308,3.238,3.31C359.544,283.705,359.532,283.885,359.521,284.028z M354.483,283.033h3.634
			c-0.12-0.924-0.828-1.559-1.812-1.559C355.335,281.474,354.627,282.098,354.483,283.033z"/>
		<path class="st7" d="M364.693,280.274v1.427c-0.132-0.024-0.24-0.036-0.348-0.036c-1.14,0-1.859,0.672-1.859,1.979v3.106h-1.499
			v-6.404h1.428v0.935C362.847,280.61,363.626,280.274,364.693,280.274z"/>
		<path class="st7" d="M373.188,286.403c-0.359,0.288-0.899,0.432-1.438,0.432c-1.403,0-2.207-0.744-2.207-2.159v-3.083h-1.056
			v-1.199h1.056v-1.463h1.499v1.463h1.715v1.199h-1.715v3.046c0,0.624,0.312,0.959,0.888,0.959c0.312,0,0.611-0.084,0.84-0.264
			L373.188,286.403z"/>
		<path class="st7" d="M380.735,283.081v3.67h-1.499v-3.478c0-1.14-0.563-1.691-1.523-1.691c-1.067,0-1.787,0.647-1.787,1.931v3.238
			h-1.499v-8.899h1.499v3.238c0.492-0.528,1.247-0.816,2.135-0.816C379.596,280.274,380.735,281.15,380.735,283.081z"/>
		<path class="st7" d="M388.008,282.997v3.754h-1.415v-0.78c-0.36,0.552-1.056,0.864-2.016,0.864c-1.463,0-2.387-0.804-2.387-1.919
			c0-1.067,0.72-1.907,2.663-1.907h1.655v-0.096c0-0.875-0.528-1.391-1.596-1.391c-0.72,0-1.463,0.24-1.942,0.636l-0.588-1.092
			c0.684-0.527,1.679-0.792,2.71-0.792C386.94,280.274,388.008,281.15,388.008,282.997z M386.509,284.748v-0.744h-1.548
			c-1.02,0-1.295,0.384-1.295,0.852c0,0.54,0.456,0.888,1.224,0.888C385.621,285.744,386.257,285.408,386.509,284.748z"/>
		<path class="st7" d="M396.239,283.081v3.67h-1.499v-3.478c0-1.14-0.563-1.691-1.523-1.691c-1.067,0-1.787,0.647-1.787,1.931v3.238
			h-1.499v-6.404h1.428v0.827c0.491-0.587,1.271-0.899,2.206-0.899C395.1,280.274,396.239,281.15,396.239,283.081z"/>
		<path class="st7" d="M411.452,280.347l-2.362,6.404h-1.439l-1.655-4.414l-1.679,4.414h-1.439l-2.351-6.404h1.415l1.691,4.725
			l1.763-4.725h1.26l1.727,4.749l1.739-4.749H411.452z"/>
		<path class="st7" d="M412.286,278.392c0-0.504,0.408-0.899,0.96-0.899s0.959,0.372,0.959,0.863c0,0.528-0.396,0.936-0.959,0.936
			C412.694,279.291,412.286,278.896,412.286,278.392z M412.49,280.347h1.499v6.404h-1.499V280.347z"/>
		<path class="st7" d="M422.267,283.081v3.67h-1.499v-3.478c0-1.14-0.563-1.691-1.523-1.691c-1.067,0-1.787,0.647-1.787,1.931v3.238
			h-1.499v-6.404h1.428v0.827c0.491-0.587,1.271-0.899,2.206-0.899C421.127,280.274,422.267,281.15,422.267,283.081z"/>
		<path class="st7" d="M430.51,277.852v8.899h-1.439v-0.828c-0.503,0.612-1.247,0.912-2.122,0.912c-1.859,0-3.238-1.295-3.238-3.286
			c0-1.991,1.379-3.274,3.238-3.274c0.827,0,1.559,0.276,2.062,0.864v-3.286H430.51z M429.035,283.549
			c0-1.224-0.828-2.003-1.907-2.003s-1.907,0.779-1.907,2.003c0,1.223,0.828,2.003,1.907,2.003S429.035,284.772,429.035,283.549z"/>
		<path class="st7" d="M442.594,283.549c0,1.991-1.38,3.286-3.251,3.286c-0.815,0-1.535-0.276-2.051-0.864v3.106h-1.499v-8.731
			h1.428v0.839c0.503-0.612,1.247-0.912,2.122-0.912C441.214,280.274,442.594,281.57,442.594,283.549z M441.07,283.549
			c0-1.224-0.815-2.003-1.896-2.003c-1.079,0-1.906,0.779-1.906,2.003c0,1.223,0.827,2.003,1.906,2.003
			C440.255,285.552,441.07,284.772,441.07,283.549z"/>
		<path class="st7" d="M443.497,283.549c0-1.919,1.438-3.274,3.406-3.274c1.99,0,3.418,1.355,3.418,3.274s-1.428,3.286-3.418,3.286
			C444.936,286.835,443.497,285.468,443.497,283.549z M448.81,283.549c0-1.224-0.815-2.003-1.906-2.003
			c-1.08,0-1.896,0.779-1.896,2.003c0,1.223,0.815,2.003,1.896,2.003C447.994,285.552,448.81,284.772,448.81,283.549z"/>
		<path class="st7" d="M461.575,280.347l-2.362,6.404h-1.439l-1.655-4.414l-1.679,4.414H453l-2.351-6.404h1.415l1.691,4.725
			l1.763-4.725h1.26l1.727,4.749l1.739-4.749H461.575z"/>
		<path class="st7" d="M468.431,284.028h-5.025c0.18,0.936,0.959,1.535,2.075,1.535c0.719,0,1.283-0.228,1.738-0.695l0.804,0.923
			c-0.575,0.684-1.475,1.043-2.578,1.043c-2.147,0-3.538-1.379-3.538-3.286c0-1.907,1.403-3.274,3.31-3.274
			c1.871,0,3.238,1.308,3.238,3.31C468.454,283.705,468.442,283.885,468.431,284.028z M463.394,283.033h3.634
			c-0.12-0.924-0.828-1.559-1.812-1.559C464.245,281.474,463.537,282.098,463.394,283.033z"/>
		<path class="st7" d="M473.604,280.274v1.427c-0.132-0.024-0.24-0.036-0.348-0.036c-1.14,0-1.859,0.672-1.859,1.979v3.106h-1.499
			v-6.404h1.428v0.935C471.757,280.61,472.536,280.274,473.604,280.274z"/>
		<path class="st7" d="M476.28,285.839c0,0.264-0.06,0.48-0.275,1.032l-0.611,1.691h-0.972l0.479-1.835
			c-0.336-0.144-0.563-0.456-0.563-0.888c0-0.6,0.42-0.995,0.972-0.995C475.873,284.844,476.28,285.252,476.28,285.839z"/>
		<path class="st7" d="M480.529,283.549c0-1.919,1.438-3.274,3.466-3.274c1.247,0,2.243,0.516,2.734,1.487l-1.151,0.671
			c-0.384-0.611-0.959-0.887-1.595-0.887c-1.104,0-1.943,0.768-1.943,2.003c0,1.247,0.84,2.003,1.943,2.003
			c0.636,0,1.211-0.276,1.595-0.888l1.151,0.672c-0.491,0.959-1.487,1.499-2.734,1.499
			C481.968,286.835,480.529,285.468,480.529,283.549z"/>
		<path class="st7" d="M487.969,277.852h1.499v8.899h-1.499V277.852z"/>
		<path class="st7" d="M497.434,284.028h-5.025c0.18,0.936,0.959,1.535,2.074,1.535c0.72,0,1.284-0.228,1.739-0.695l0.804,0.923
			c-0.575,0.684-1.475,1.043-2.578,1.043c-2.147,0-3.538-1.379-3.538-3.286c0-1.907,1.403-3.274,3.31-3.274
			c1.871,0,3.238,1.308,3.238,3.31C497.457,283.705,497.445,283.885,497.434,284.028z M492.396,283.033h3.634
			c-0.12-0.924-0.828-1.559-1.812-1.559C493.248,281.474,492.54,282.098,492.396,283.033z"/>
		<path class="st7" d="M504.081,282.997v3.754h-1.415v-0.78c-0.36,0.552-1.056,0.864-2.016,0.864c-1.463,0-2.387-0.804-2.387-1.919
			c0-1.067,0.72-1.907,2.663-1.907h1.655v-0.096c0-0.875-0.528-1.391-1.596-1.391c-0.72,0-1.463,0.24-1.942,0.636l-0.588-1.092
			c0.684-0.527,1.679-0.792,2.71-0.792C503.014,280.274,504.081,281.15,504.081,282.997z M502.582,284.748v-0.744h-1.548
			c-1.02,0-1.295,0.384-1.295,0.852c0,0.54,0.456,0.888,1.224,0.888C501.694,285.744,502.33,285.408,502.582,284.748z"/>
		<path class="st7" d="M512.312,283.081v3.67h-1.499v-3.478c0-1.14-0.563-1.691-1.523-1.691c-1.067,0-1.787,0.647-1.787,1.931v3.238
			h-1.499v-6.404h1.428v0.827c0.491-0.587,1.271-0.899,2.206-0.899C511.173,280.274,512.312,281.15,512.312,283.081z"/>
		<path class="st7" d="M520.281,284.028h-5.025c0.18,0.936,0.959,1.535,2.074,1.535c0.72,0,1.284-0.228,1.739-0.695l0.804,0.923
			c-0.575,0.684-1.475,1.043-2.578,1.043c-2.147,0-3.538-1.379-3.538-3.286c0-1.907,1.403-3.274,3.31-3.274
			c1.871,0,3.238,1.308,3.238,3.31C520.305,283.705,520.293,283.885,520.281,284.028z M515.244,283.033h3.634
			c-0.12-0.924-0.828-1.559-1.812-1.559C516.096,281.474,515.388,282.098,515.244,283.033z"/>
		<path class="st7" d="M525.454,280.274v1.427c-0.132-0.024-0.24-0.036-0.348-0.036c-1.14,0-1.859,0.672-1.859,1.979v3.106h-1.499
			v-6.404h1.428v0.935C523.607,280.61,524.387,280.274,525.454,280.274z"/>
		<path class="st7" d="M533.949,286.403c-0.359,0.288-0.899,0.432-1.438,0.432c-1.403,0-2.207-0.744-2.207-2.159v-3.083h-1.056
			v-1.199h1.056v-1.463h1.499v1.463h1.715v1.199h-1.715v3.046c0,0.624,0.312,0.959,0.888,0.959c0.312,0,0.611-0.084,0.839-0.264
			L533.949,286.403z"/>
		<path class="st7" d="M541.496,283.081v3.67h-1.499v-3.478c0-1.14-0.563-1.691-1.523-1.691c-1.067,0-1.787,0.647-1.787,1.931v3.238
			h-1.499v-8.899h1.499v3.238c0.492-0.528,1.247-0.816,2.135-0.816C540.356,280.274,541.496,281.15,541.496,283.081z"/>
		<path class="st7" d="M548.769,282.997v3.754h-1.415v-0.78c-0.36,0.552-1.056,0.864-2.016,0.864c-1.463,0-2.387-0.804-2.387-1.919
			c0-1.067,0.72-1.907,2.663-1.907h1.655v-0.096c0-0.875-0.528-1.391-1.596-1.391c-0.72,0-1.463,0.24-1.942,0.636l-0.588-1.092
			c0.684-0.527,1.679-0.792,2.71-0.792C547.701,280.274,548.769,281.15,548.769,282.997z M547.27,284.748v-0.744h-1.548
			c-1.02,0-1.295,0.384-1.295,0.852c0,0.54,0.456,0.888,1.224,0.888C546.382,285.744,547.018,285.408,547.27,284.748z"/>
		<path class="st7" d="M557,283.081v3.67h-1.499v-3.478c0-1.14-0.563-1.691-1.523-1.691c-1.067,0-1.787,0.647-1.787,1.931v3.238
			h-1.499v-6.404h1.428v0.827c0.491-0.587,1.271-0.899,2.206-0.899C555.86,280.274,557,281.15,557,283.081z"/>
		<path class="st7" d="M270.845,302.115l0.576-1.139c0.563,0.372,1.427,0.636,2.23,0.636c0.948,0,1.343-0.264,1.343-0.708
			c0-1.223-3.958-0.072-3.958-2.626c0-1.211,1.091-2.003,2.818-2.003c0.852,0,1.823,0.204,2.398,0.552l-0.575,1.14
			c-0.612-0.36-1.224-0.48-1.835-0.48c-0.911,0-1.343,0.3-1.343,0.72c0,1.295,3.958,0.144,3.958,2.65
			c0,1.199-1.104,1.979-2.902,1.979C272.488,302.835,271.421,302.523,270.845,302.115z"/>
		<path class="st7" d="M277.229,299.549c0-1.919,1.439-3.274,3.406-3.274c1.991,0,3.418,1.355,3.418,3.274s-1.427,3.286-3.418,3.286
			C278.668,302.835,277.229,301.468,277.229,299.549z M282.542,299.549c0-1.224-0.816-2.003-1.907-2.003
			c-1.08,0-1.895,0.779-1.895,2.003c0,1.223,0.815,2.003,1.895,2.003C281.727,301.552,282.542,300.772,282.542,299.549z"/>
		<path class="st7" d="M285.497,293.852h1.499v8.899h-1.499V293.852z"/>
		<path class="st7" d="M294.326,298.997v3.754h-1.416v-0.78c-0.36,0.552-1.055,0.864-2.015,0.864c-1.463,0-2.387-0.804-2.387-1.919
			c0-1.067,0.72-1.907,2.663-1.907h1.655v-0.096c0-0.875-0.527-1.391-1.595-1.391c-0.719,0-1.463,0.24-1.943,0.636l-0.587-1.092
			c0.684-0.527,1.679-0.792,2.71-0.792C293.258,296.274,294.326,297.15,294.326,298.997z M292.826,300.748v-0.744h-1.547
			c-1.02,0-1.295,0.384-1.295,0.852c0,0.54,0.456,0.888,1.223,0.888C291.939,301.744,292.574,301.408,292.826,300.748z"/>
		<path class="st7" d="M299.954,296.274v1.427c-0.132-0.024-0.239-0.036-0.348-0.036c-1.14,0-1.859,0.672-1.859,1.979v3.106h-1.499
			v-6.404h1.427v0.935C298.107,296.61,298.887,296.274,299.954,296.274z"/>
		<path class="st7" d="M302.631,301.839c0,0.264-0.06,0.48-0.275,1.032l-0.611,1.691h-0.972l0.479-1.835
			c-0.336-0.144-0.563-0.456-0.563-0.888c0-0.6,0.419-0.995,0.972-0.995C302.224,300.844,302.631,301.252,302.631,301.839z"/>
		<path class="st7" d="M312.77,298.997v3.754h-1.416v-0.78c-0.359,0.552-1.055,0.864-2.015,0.864c-1.464,0-2.387-0.804-2.387-1.919
			c0-1.067,0.72-1.907,2.663-1.907h1.654v-0.096c0-0.875-0.527-1.391-1.596-1.391c-0.719,0-1.463,0.24-1.942,0.636l-0.587-1.092
			c0.684-0.527,1.679-0.792,2.71-0.792C311.701,296.274,312.77,297.15,312.77,298.997z M311.27,300.748v-0.744h-1.547
			c-1.02,0-1.295,0.384-1.295,0.852c0,0.54,0.455,0.888,1.223,0.888C310.383,301.744,311.018,301.408,311.27,300.748z"/>
		<path class="st7" d="M321,299.081v3.67h-1.499v-3.478c0-1.14-0.563-1.691-1.523-1.691c-1.067,0-1.787,0.647-1.787,1.931v3.238
			h-1.499v-6.404h1.428v0.827c0.491-0.587,1.271-0.899,2.207-0.899C319.861,296.274,321,297.15,321,299.081z"/>
		<path class="st7" d="M329.244,293.852v8.899h-1.439v-0.828c-0.504,0.612-1.248,0.912-2.123,0.912
			c-1.859,0-3.238-1.295-3.238-3.286c0-1.991,1.379-3.274,3.238-3.274c0.828,0,1.56,0.276,2.062,0.864v-3.286H329.244z
			 M327.769,299.549c0-1.224-0.827-2.003-1.907-2.003c-1.079,0-1.906,0.779-1.906,2.003c0,1.223,0.827,2.003,1.906,2.003
			C326.941,301.552,327.769,300.772,327.769,299.549z"/>
		<path class="st7" d="M345.236,299.081v3.67h-1.499v-3.478c0-1.14-0.527-1.691-1.439-1.691c-0.983,0-1.667,0.647-1.667,1.919v3.25
			h-1.499v-3.478c0-1.14-0.527-1.691-1.439-1.691c-0.995,0-1.667,0.647-1.667,1.919v3.25h-1.499v-6.404h1.428v0.815
			c0.479-0.576,1.223-0.888,2.099-0.888c0.936,0,1.715,0.348,2.158,1.067c0.516-0.66,1.38-1.067,2.399-1.067
			C344.157,296.274,345.236,297.15,345.236,299.081z"/>
		<path class="st7" d="M346.695,299.549c0-1.919,1.438-3.274,3.406-3.274c1.99,0,3.418,1.355,3.418,3.274s-1.428,3.286-3.418,3.286
			C348.134,302.835,346.695,301.468,346.695,299.549z M352.008,299.549c0-1.224-0.815-2.003-1.906-2.003
			c-1.08,0-1.896,0.779-1.896,2.003c0,1.223,0.815,2.003,1.896,2.003C351.192,301.552,352.008,300.772,352.008,299.549z"/>
		<path class="st7" d="M358.669,296.274v1.427c-0.132-0.024-0.24-0.036-0.348-0.036c-1.14,0-1.859,0.672-1.859,1.979v3.106h-1.499
			v-6.404h1.428v0.935C356.822,296.61,357.602,296.274,358.669,296.274z"/>
		<path class="st7" d="M365.88,300.028h-5.025c0.18,0.936,0.959,1.535,2.075,1.535c0.719,0,1.283-0.228,1.738-0.695l0.804,0.923
			c-0.575,0.684-1.475,1.043-2.578,1.043c-2.147,0-3.538-1.379-3.538-3.286c0-1.907,1.403-3.274,3.31-3.274
			c1.871,0,3.238,1.308,3.238,3.31C365.903,299.705,365.892,299.885,365.88,300.028z M360.843,299.033h3.634
			c-0.12-0.924-0.828-1.559-1.812-1.559C361.694,297.474,360.986,298.098,360.843,299.033z"/>
		<path class="st7" d="M374.364,296.274v1.427c-0.132-0.024-0.24-0.036-0.348-0.036c-1.14,0-1.859,0.672-1.859,1.979v3.106h-1.499
			v-6.404h1.428v0.935C372.518,296.61,373.297,296.274,374.364,296.274z"/>
		<path class="st7" d="M381.575,300.028h-5.025c0.18,0.936,0.959,1.535,2.075,1.535c0.719,0,1.283-0.228,1.738-0.695l0.804,0.923
			c-0.575,0.684-1.475,1.043-2.578,1.043c-2.147,0-3.538-1.379-3.538-3.286c0-1.907,1.403-3.274,3.31-3.274
			c1.871,0,3.238,1.308,3.238,3.31C381.599,299.705,381.587,299.885,381.575,300.028z M376.538,299.033h3.634
			c-0.12-0.924-0.828-1.559-1.812-1.559C377.39,297.474,376.682,298.098,376.538,299.033z"/>
		<path class="st7" d="M383.042,293.852h1.499v8.899h-1.499V293.852z"/>
		<path class="st7" d="M386.306,294.392c0-0.504,0.408-0.899,0.96-0.899s0.959,0.372,0.959,0.863c0,0.528-0.396,0.936-0.959,0.936
			C386.714,295.291,386.306,294.896,386.306,294.392z M386.51,296.347h1.499v6.404h-1.499V296.347z"/>
		<path class="st7" d="M395.339,298.997v3.754h-1.415v-0.78c-0.36,0.552-1.056,0.864-2.016,0.864c-1.463,0-2.387-0.804-2.387-1.919
			c0-1.067,0.72-1.907,2.663-1.907h1.655v-0.096c0-0.875-0.528-1.391-1.596-1.391c-0.72,0-1.463,0.24-1.942,0.636l-0.588-1.092
			c0.684-0.527,1.679-0.792,2.71-0.792C394.271,296.274,395.339,297.15,395.339,298.997z M393.84,300.748v-0.744h-1.548
			c-1.02,0-1.295,0.384-1.295,0.852c0,0.54,0.456,0.888,1.224,0.888C392.952,301.744,393.588,301.408,393.84,300.748z"/>
		<path class="st7" d="M404.062,299.549c0,1.991-1.38,3.286-3.251,3.286c-0.875,0-1.619-0.3-2.122-0.912v0.828h-1.428v-8.899h1.499
			v3.274c0.516-0.576,1.235-0.852,2.051-0.852C402.683,296.274,404.062,297.558,404.062,299.549z M402.539,299.549
			c0-1.224-0.815-2.003-1.896-2.003c-1.079,0-1.906,0.779-1.906,2.003c0,1.223,0.827,2.003,1.906,2.003
			C401.724,301.552,402.539,300.772,402.539,299.549z"/>
		<path class="st7" d="M405.493,293.852h1.499v8.899h-1.499V293.852z"/>
		<path class="st7" d="M414.958,300.028h-5.025c0.18,0.936,0.959,1.535,2.075,1.535c0.719,0,1.283-0.228,1.738-0.695l0.804,0.923
			c-0.575,0.684-1.475,1.043-2.578,1.043c-2.147,0-3.538-1.379-3.538-3.286c0-1.907,1.403-3.274,3.31-3.274
			c1.871,0,3.238,1.308,3.238,3.31C414.981,299.705,414.97,299.885,414.958,300.028z M409.921,299.033h3.634
			c-0.12-0.924-0.828-1.559-1.812-1.559C410.772,297.474,410.064,298.098,409.921,299.033z"/>
		<path class="st7" d="M423.586,302.403c-0.359,0.288-0.899,0.432-1.438,0.432c-1.403,0-2.207-0.744-2.207-2.159v-3.083h-1.056
			v-1.199h1.056v-1.463h1.499v1.463h1.715v1.199h-1.715v3.046c0,0.624,0.312,0.959,0.888,0.959c0.312,0,0.611-0.084,0.839-0.264
			L423.586,302.403z"/>
		<path class="st7" d="M431.133,299.081v3.67h-1.499v-3.478c0-1.14-0.563-1.691-1.523-1.691c-1.067,0-1.787,0.647-1.787,1.931v3.238
			h-1.499v-8.899h1.499v3.238c0.492-0.528,1.247-0.816,2.135-0.816C429.993,296.274,431.133,297.15,431.133,299.081z"/>
		<path class="st7" d="M438.405,298.997v3.754h-1.415v-0.78c-0.36,0.552-1.056,0.864-2.016,0.864c-1.463,0-2.387-0.804-2.387-1.919
			c0-1.067,0.72-1.907,2.663-1.907h1.655v-0.096c0-0.875-0.528-1.391-1.596-1.391c-0.72,0-1.463,0.24-1.942,0.636l-0.588-1.092
			c0.684-0.527,1.679-0.792,2.71-0.792C437.338,296.274,438.405,297.15,438.405,298.997z M436.906,300.748v-0.744h-1.548
			c-1.02,0-1.295,0.384-1.295,0.852c0,0.54,0.456,0.888,1.224,0.888C436.019,301.744,436.654,301.408,436.906,300.748z"/>
		<path class="st7" d="M446.637,299.081v3.67h-1.499v-3.478c0-1.14-0.563-1.691-1.523-1.691c-1.067,0-1.787,0.647-1.787,1.931v3.238
			h-1.499v-6.404h1.428v0.827c0.491-0.587,1.271-0.899,2.206-0.899C445.497,296.274,446.637,297.15,446.637,299.081z"/>
		<path class="st7" d="M458.168,299.081v3.67h-1.499v-3.478c0-1.14-0.563-1.691-1.523-1.691c-1.067,0-1.787,0.647-1.787,1.931v3.238
			h-1.499v-6.404h1.428v0.827c0.491-0.587,1.271-0.899,2.206-0.899C457.028,296.274,458.168,297.15,458.168,299.081z"/>
		<path class="st7" d="M465.44,298.997v3.754h-1.415v-0.78c-0.36,0.552-1.056,0.864-2.016,0.864c-1.463,0-2.387-0.804-2.387-1.919
			c0-1.067,0.72-1.907,2.663-1.907h1.655v-0.096c0-0.875-0.528-1.391-1.596-1.391c-0.72,0-1.463,0.24-1.942,0.636l-0.588-1.092
			c0.684-0.527,1.679-0.792,2.71-0.792C464.373,296.274,465.44,297.15,465.44,298.997z M463.941,300.748v-0.744h-1.548
			c-1.02,0-1.295,0.384-1.295,0.852c0,0.54,0.456,0.888,1.224,0.888C463.054,301.744,463.689,301.408,463.941,300.748z"/>
		<path class="st7" d="M471.213,302.403c-0.359,0.288-0.899,0.432-1.438,0.432c-1.403,0-2.207-0.744-2.207-2.159v-3.083h-1.056
			v-1.199h1.056v-1.463h1.499v1.463h1.715v1.199h-1.715v3.046c0,0.624,0.312,0.959,0.888,0.959c0.312,0,0.611-0.084,0.839-0.264
			L471.213,302.403z"/>
		<path class="st7" d="M478.651,296.347v6.404h-1.427v-0.815c-0.479,0.587-1.235,0.899-2.062,0.899
			c-1.644,0-2.759-0.899-2.759-2.831v-3.658h1.499v3.454c0,1.163,0.552,1.715,1.499,1.715c1.044,0,1.751-0.647,1.751-1.931v-3.238
			H478.651z"/>
		<path class="st7" d="M484.329,296.274v1.427c-0.132-0.024-0.24-0.036-0.348-0.036c-1.14,0-1.859,0.672-1.859,1.979v3.106h-1.499
			v-6.404h1.428v0.935C482.482,296.61,483.262,296.274,484.329,296.274z"/>
		<path class="st7" d="M490.929,298.997v3.754h-1.415v-0.78c-0.36,0.552-1.056,0.864-2.016,0.864c-1.463,0-2.387-0.804-2.387-1.919
			c0-1.067,0.72-1.907,2.663-1.907h1.655v-0.096c0-0.875-0.528-1.391-1.596-1.391c-0.72,0-1.463,0.24-1.942,0.636l-0.588-1.092
			c0.684-0.527,1.679-0.792,2.71-0.792C489.861,296.274,490.929,297.15,490.929,298.997z M489.43,300.748v-0.744h-1.548
			c-1.02,0-1.295,0.384-1.295,0.852c0,0.54,0.456,0.888,1.224,0.888C488.542,301.744,489.178,301.408,489.43,300.748z"/>
		<path class="st7" d="M492.852,293.852h1.499v8.899h-1.499V293.852z"/>
		<path class="st7" d="M505.987,296.347v5.433c0,2.327-1.211,3.382-3.454,3.382c-1.199,0-2.387-0.312-3.118-0.912l0.672-1.127
			c0.563,0.468,1.475,0.768,2.362,0.768c1.415,0,2.039-0.647,2.039-1.943v-0.335c-0.527,0.576-1.283,0.852-2.146,0.852
			c-1.835,0-3.238-1.248-3.238-3.106s1.403-3.083,3.238-3.083c0.899,0,1.69,0.288,2.219,0.924v-0.852H505.987z M504.513,299.357
			c0-1.08-0.816-1.811-1.943-1.811c-1.14,0-1.955,0.731-1.955,1.811c0,1.091,0.815,1.835,1.955,1.835
			C503.696,301.192,504.513,300.448,504.513,299.357z"/>
		<path class="st7" d="M513.32,298.997v3.754h-1.415v-0.78c-0.36,0.552-1.056,0.864-2.016,0.864c-1.463,0-2.387-0.804-2.387-1.919
			c0-1.067,0.72-1.907,2.663-1.907h1.655v-0.096c0-0.875-0.528-1.391-1.596-1.391c-0.72,0-1.463,0.24-1.942,0.636l-0.588-1.092
			c0.684-0.527,1.679-0.792,2.71-0.792C512.253,296.274,513.32,297.15,513.32,298.997z M511.821,300.748v-0.744h-1.548
			c-1.02,0-1.295,0.384-1.295,0.852c0,0.54,0.456,0.888,1.224,0.888C510.934,301.744,511.569,301.408,511.821,300.748z"/>
		<path class="st7" d="M514.512,302.115l0.575-1.139c0.564,0.372,1.428,0.636,2.231,0.636c0.947,0,1.343-0.264,1.343-0.708
			c0-1.223-3.958-0.072-3.958-2.626c0-1.211,1.092-2.003,2.818-2.003c0.852,0,1.823,0.204,2.399,0.552l-0.576,1.14
			c-0.611-0.36-1.223-0.48-1.835-0.48c-0.911,0-1.343,0.3-1.343,0.72c0,1.295,3.958,0.144,3.958,2.65
			c0,1.199-1.104,1.979-2.903,1.979C516.154,302.835,515.087,302.523,514.512,302.115z"/>
		<path class="st7" d="M520.919,301.839c0-0.6,0.444-0.995,0.983-0.995c0.54,0,0.983,0.396,0.983,0.995
			c0,0.576-0.443,0.996-0.983,0.996C521.363,302.835,520.919,302.415,520.919,301.839z"/>
		<path class="st7" d="M540.075,294.355l-2.782,8.396h-1.655l-2.075-6.212l-2.11,6.212h-1.667l-2.782-8.396h1.619l2.087,6.38
			l2.17-6.38h1.439l2.123,6.417l2.146-6.417H540.075z"/>
		<path class="st7" d="M546.727,300.028h-5.025c0.18,0.936,0.959,1.535,2.074,1.535c0.72,0,1.284-0.228,1.739-0.695l0.804,0.923
			c-0.575,0.684-1.475,1.043-2.578,1.043c-2.147,0-3.538-1.379-3.538-3.286c0-1.907,1.403-3.274,3.31-3.274
			c1.871,0,3.238,1.308,3.238,3.31C546.75,299.705,546.738,299.885,546.727,300.028z M541.689,299.033h3.634
			c-0.12-0.924-0.828-1.559-1.812-1.559C542.541,297.474,541.833,298.098,541.689,299.033z"/>
		<path class="st7" d="M277.885,315.081v3.67h-1.499v-3.478c0-1.14-0.564-1.691-1.523-1.691c-1.067,0-1.787,0.647-1.787,1.931v3.238
			h-1.499v-8.899h1.499v3.238c0.492-0.528,1.248-0.816,2.135-0.816C276.746,312.274,277.885,313.15,277.885,315.081z"/>
		<path class="st7" d="M285.158,314.997v3.754h-1.416v-0.78c-0.36,0.552-1.055,0.864-2.015,0.864c-1.463,0-2.387-0.804-2.387-1.919
			c0-1.067,0.719-1.907,2.663-1.907h1.655v-0.096c0-0.875-0.528-1.391-1.595-1.391c-0.719,0-1.463,0.24-1.943,0.636l-0.587-1.092
			c0.684-0.527,1.679-0.792,2.71-0.792C284.091,312.274,285.158,313.15,285.158,314.997z M283.659,316.748v-0.744h-1.547
			c-1.02,0-1.295,0.384-1.295,0.852c0,0.54,0.456,0.888,1.223,0.888C282.771,317.744,283.407,317.408,283.659,316.748z"/>
		<path class="st7" d="M292.958,312.347l-2.746,6.404h-1.547l-2.747-6.404h1.559l1.991,4.749l2.051-4.749H292.958z"/>
		<path class="st7" d="M299.714,316.028h-5.025c0.18,0.936,0.959,1.535,2.075,1.535c0.72,0,1.283-0.228,1.739-0.695l0.804,0.923
			c-0.576,0.684-1.476,1.043-2.579,1.043c-2.146,0-3.538-1.379-3.538-3.286c0-1.907,1.403-3.274,3.311-3.274
			c1.871,0,3.238,1.308,3.238,3.31C299.738,315.705,299.727,315.885,299.714,316.028z M294.677,315.033h3.634
			c-0.12-0.924-0.828-1.559-1.811-1.559C295.528,313.474,294.821,314.098,294.677,315.033z"/>
		<path class="st7" d="M308.344,318.403c-0.36,0.288-0.9,0.432-1.439,0.432c-1.404,0-2.207-0.744-2.207-2.159v-3.083h-1.056v-1.199
			h1.056v-1.463h1.499v1.463h1.715v1.199h-1.715v3.046c0,0.624,0.312,0.959,0.888,0.959c0.312,0,0.611-0.084,0.84-0.264
			L308.344,318.403z"/>
		<path class="st7" d="M315.89,315.081v3.67h-1.499v-3.478c0-1.14-0.564-1.691-1.523-1.691c-1.067,0-1.787,0.647-1.787,1.931v3.238
			h-1.499v-8.899h1.499v3.238c0.492-0.528,1.248-0.816,2.135-0.816C314.75,312.274,315.89,313.15,315.89,315.081z"/>
		<path class="st7" d="M323.857,316.028h-5.025c0.18,0.936,0.959,1.535,2.074,1.535c0.721,0,1.283-0.228,1.74-0.695l0.803,0.923
			c-0.576,0.684-1.475,1.043-2.578,1.043c-2.146,0-3.539-1.379-3.539-3.286c0-1.907,1.404-3.274,3.311-3.274
			c1.871,0,3.238,1.308,3.238,3.31C323.881,315.705,323.869,315.885,323.857,316.028z M318.82,315.033h3.634
			c-0.12-0.924-0.827-1.559-1.812-1.559C319.672,313.474,318.964,314.098,318.82,315.033z"/>
		<path class="st7" d="M327.904,318.115l0.575-1.139c0.564,0.372,1.428,0.636,2.231,0.636c0.947,0,1.343-0.264,1.343-0.708
			c0-1.223-3.958-0.072-3.958-2.626c0-1.211,1.092-2.003,2.818-2.003c0.852,0,1.823,0.204,2.399,0.552l-0.576,1.14
			c-0.611-0.36-1.223-0.48-1.835-0.48c-0.911,0-1.343,0.3-1.343,0.72c0,1.295,3.958,0.144,3.958,2.65
			c0,1.199-1.104,1.979-2.903,1.979C329.547,318.835,328.479,318.523,327.904,318.115z"/>
		<path class="st7" d="M334.288,315.549c0-1.919,1.438-3.274,3.406-3.274c1.99,0,3.418,1.355,3.418,3.274s-1.428,3.286-3.418,3.286
			C335.727,318.835,334.288,317.468,334.288,315.549z M339.601,315.549c0-1.224-0.815-2.003-1.906-2.003
			c-1.08,0-1.896,0.779-1.896,2.003c0,1.223,0.815,2.003,1.896,2.003C338.785,317.552,339.601,316.772,339.601,315.549z"/>
		<path class="st7" d="M342.556,309.852h1.499v8.899h-1.499V309.852z"/>
		<path class="st7" d="M352.224,312.347v6.404h-1.427v-0.815c-0.479,0.587-1.235,0.899-2.062,0.899
			c-1.644,0-2.759-0.899-2.759-2.831v-3.658h1.499v3.454c0,1.163,0.552,1.715,1.499,1.715c1.044,0,1.751-0.647,1.751-1.931v-3.238
			H352.224z"/>
		<path class="st7" d="M358.045,318.403c-0.359,0.288-0.899,0.432-1.438,0.432c-1.403,0-2.207-0.744-2.207-2.159v-3.083h-1.056
			v-1.199h1.056v-1.463h1.499v1.463h1.715v1.199h-1.715v3.046c0,0.624,0.312,0.959,0.888,0.959c0.312,0,0.611-0.084,0.839-0.264
			L358.045,318.403z"/>
		<path class="st7" d="M359.079,310.392c0-0.504,0.408-0.899,0.96-0.899s0.959,0.372,0.959,0.863c0,0.528-0.396,0.936-0.959,0.936
			C359.487,311.291,359.079,310.896,359.079,310.392z M359.283,312.347h1.499v6.404h-1.499V312.347z"/>
		<path class="st7" d="M362.224,315.549c0-1.919,1.438-3.274,3.406-3.274c1.99,0,3.418,1.355,3.418,3.274s-1.428,3.286-3.418,3.286
			C363.662,318.835,362.224,317.468,362.224,315.549z M367.536,315.549c0-1.224-0.815-2.003-1.906-2.003
			c-1.08,0-1.896,0.779-1.896,2.003c0,1.223,0.815,2.003,1.896,2.003C366.721,317.552,367.536,316.772,367.536,315.549z"/>
		<path class="st7" d="M376.8,315.081v3.67h-1.499v-3.478c0-1.14-0.563-1.691-1.523-1.691c-1.067,0-1.787,0.647-1.787,1.931v3.238
			h-1.499v-6.404h1.428v0.827c0.491-0.587,1.271-0.899,2.206-0.899C375.66,312.274,376.8,313.15,376.8,315.081z"/>
		<path class="st7" d="M385.872,318.403c-0.359,0.288-0.899,0.432-1.438,0.432c-1.403,0-2.207-0.744-2.207-2.159v-3.083h-1.056
			v-1.199h1.056v-1.463h1.499v1.463h1.715v1.199h-1.715v3.046c0,0.624,0.312,0.959,0.888,0.959c0.312,0,0.611-0.084,0.84-0.264
			L385.872,318.403z"/>
		<path class="st7" d="M386.367,315.549c0-1.919,1.438-3.274,3.406-3.274c1.99,0,3.418,1.355,3.418,3.274s-1.428,3.286-3.418,3.286
			C387.806,318.835,386.367,317.468,386.367,315.549z M391.68,315.549c0-1.224-0.815-2.003-1.906-2.003
			c-1.08,0-1.896,0.779-1.896,2.003c0,1.223,0.815,2.003,1.896,2.003C390.864,317.552,391.68,316.772,391.68,315.549z"/>
		<path class="st7" d="M397.419,315.549c0-1.919,1.438-3.274,3.406-3.274c1.99,0,3.418,1.355,3.418,3.274s-1.428,3.286-3.418,3.286
			C398.857,318.835,397.419,317.468,397.419,315.549z M402.731,315.549c0-1.224-0.815-2.003-1.906-2.003
			c-1.08,0-1.896,0.779-1.896,2.003c0,1.223,0.815,2.003,1.896,2.003C401.916,317.552,402.731,316.772,402.731,315.549z"/>
		<path class="st7" d="M411.887,312.347v6.404h-1.427v-0.815c-0.479,0.587-1.235,0.899-2.062,0.899
			c-1.644,0-2.759-0.899-2.759-2.831v-3.658h1.499v3.454c0,1.163,0.552,1.715,1.499,1.715c1.044,0,1.751-0.647,1.751-1.931v-3.238
			H411.887z"/>
		<path class="st7" d="M417.564,312.274v1.427c-0.132-0.024-0.24-0.036-0.348-0.036c-1.14,0-1.859,0.672-1.859,1.979v3.106h-1.499
			v-6.404h1.428v0.935C415.718,312.61,416.497,312.274,417.564,312.274z"/>
		<path class="st7" d="M421.683,315.549c0-1.919,1.438-3.274,3.466-3.274c1.247,0,2.243,0.516,2.734,1.487l-1.151,0.671
			c-0.384-0.611-0.959-0.887-1.595-0.887c-1.104,0-1.943,0.768-1.943,2.003c0,1.247,0.84,2.003,1.943,2.003
			c0.636,0,1.211-0.276,1.595-0.888l1.151,0.672c-0.491,0.959-1.487,1.499-2.734,1.499
			C423.121,318.835,421.683,317.468,421.683,315.549z"/>
		<path class="st7" d="M429.122,309.852h1.499v8.899h-1.499V309.852z"/>
		<path class="st7" d="M438.587,316.028h-5.025c0.18,0.936,0.959,1.535,2.075,1.535c0.719,0,1.283-0.228,1.738-0.695l0.804,0.923
			c-0.575,0.684-1.475,1.043-2.578,1.043c-2.147,0-3.538-1.379-3.538-3.286c0-1.907,1.403-3.274,3.31-3.274
			c1.871,0,3.238,1.308,3.238,3.31C438.61,315.705,438.599,315.885,438.587,316.028z M433.55,315.033h3.634
			c-0.12-0.924-0.828-1.559-1.812-1.559C434.401,313.474,433.693,314.098,433.55,315.033z"/>
		<path class="st7" d="M445.235,314.997v3.754h-1.415v-0.78c-0.36,0.552-1.056,0.864-2.016,0.864c-1.463,0-2.387-0.804-2.387-1.919
			c0-1.067,0.72-1.907,2.663-1.907h1.655v-0.096c0-0.875-0.528-1.391-1.596-1.391c-0.72,0-1.463,0.24-1.942,0.636l-0.588-1.092
			c0.684-0.527,1.679-0.792,2.71-0.792C444.168,312.274,445.235,313.15,445.235,314.997z M443.736,316.748v-0.744h-1.548
			c-1.02,0-1.295,0.384-1.295,0.852c0,0.54,0.456,0.888,1.224,0.888C442.849,317.744,443.484,317.408,443.736,316.748z"/>
		<path class="st7" d="M453.466,315.081v3.67h-1.499v-3.478c0-1.14-0.563-1.691-1.523-1.691c-1.067,0-1.787,0.647-1.787,1.931v3.238
			h-1.499v-6.404h1.428v0.827c0.491-0.587,1.271-0.899,2.206-0.899C452.326,312.274,453.466,313.15,453.466,315.081z"/>
		<path class="st7" d="M464.686,316.028h-5.025c0.18,0.936,0.959,1.535,2.074,1.535c0.72,0,1.284-0.228,1.739-0.695l0.804,0.923
			c-0.575,0.684-1.475,1.043-2.578,1.043c-2.147,0-3.538-1.379-3.538-3.286c0-1.907,1.403-3.274,3.31-3.274
			c1.871,0,3.238,1.308,3.238,3.31C464.709,315.705,464.697,315.885,464.686,316.028z M459.648,315.033h3.634
			c-0.12-0.924-0.828-1.559-1.812-1.559C460.5,313.474,459.792,314.098,459.648,315.033z"/>
		<path class="st7" d="M472.462,315.081v3.67h-1.499v-3.478c0-1.14-0.563-1.691-1.523-1.691c-1.067,0-1.787,0.647-1.787,1.931v3.238
			h-1.499v-6.404h1.428v0.827c0.491-0.587,1.271-0.899,2.206-0.899C471.322,312.274,472.462,313.15,472.462,315.081z"/>
		<path class="st7" d="M480.43,316.028h-5.025c0.18,0.936,0.959,1.535,2.074,1.535c0.72,0,1.284-0.228,1.739-0.695l0.804,0.923
			c-0.575,0.684-1.475,1.043-2.578,1.043c-2.147,0-3.538-1.379-3.538-3.286c0-1.907,1.403-3.274,3.31-3.274
			c1.871,0,3.238,1.308,3.238,3.31C480.453,315.705,480.441,315.885,480.43,316.028z M475.393,315.033h3.634
			c-0.12-0.924-0.828-1.559-1.812-1.559C476.244,313.474,475.536,314.098,475.393,315.033z"/>
		<path class="st7" d="M485.603,312.274v1.427c-0.132-0.024-0.24-0.036-0.348-0.036c-1.14,0-1.859,0.672-1.859,1.979v3.106h-1.499
			v-6.404h1.428v0.935C483.756,312.61,484.535,312.274,485.603,312.274z"/>
		<path class="st7" d="M493.173,312.347v5.433c0,2.327-1.211,3.382-3.454,3.382c-1.199,0-2.387-0.312-3.118-0.912l0.672-1.127
			c0.563,0.468,1.475,0.768,2.362,0.768c1.415,0,2.039-0.647,2.039-1.943v-0.335c-0.527,0.576-1.283,0.852-2.146,0.852
			c-1.835,0-3.238-1.248-3.238-3.106s1.403-3.083,3.238-3.083c0.899,0,1.69,0.288,2.219,0.924v-0.852H493.173z M491.698,315.357
			c0-1.08-0.816-1.811-1.943-1.811c-1.14,0-1.955,0.731-1.955,1.811c0,1.091,0.815,1.835,1.955,1.835
			C490.882,317.192,491.698,316.448,491.698,315.357z"/>
		<path class="st7" d="M501.142,312.347l-2.999,6.92c-0.587,1.451-1.403,1.895-2.471,1.895c-0.635,0-1.307-0.216-1.715-0.588
			l0.6-1.103c0.288,0.276,0.696,0.444,1.104,0.444c0.528,0,0.84-0.252,1.128-0.888l0.107-0.252l-2.794-6.428h1.559l2.015,4.737
			l2.027-4.737H501.142z"/>
		<path class="st7" d="M507.047,312.011v0.384h1.763v1.199h-1.715v5.157h-1.499v-5.157h-1.056v-1.199h1.056v-0.408
			c0-1.343,0.804-2.219,2.291-2.219c0.516,0,1.019,0.108,1.354,0.348l-0.419,1.127c-0.229-0.156-0.517-0.264-0.828-0.264
			C507.37,310.979,507.047,311.327,507.047,312.011z"/>
		<path class="st7" d="M516.02,312.347v6.404h-1.427v-0.815c-0.479,0.587-1.235,0.899-2.062,0.899c-1.644,0-2.759-0.899-2.759-2.831
			v-3.658h1.499v3.454c0,1.163,0.552,1.715,1.499,1.715c1.044,0,1.751-0.647,1.751-1.931v-3.238H516.02z"/>
		<path class="st7" d="M521.841,318.403c-0.359,0.288-0.899,0.432-1.438,0.432c-1.403,0-2.207-0.744-2.207-2.159v-3.083h-1.056
			v-1.199h1.056v-1.463h1.499v1.463h1.715v1.199h-1.715v3.046c0,0.624,0.312,0.959,0.888,0.959c0.312,0,0.611-0.084,0.84-0.264
			L521.841,318.403z"/>
		<path class="st7" d="M529.279,312.347v6.404h-1.427v-0.815c-0.479,0.587-1.235,0.899-2.062,0.899
			c-1.644,0-2.759-0.899-2.759-2.831v-3.658h1.499v3.454c0,1.163,0.552,1.715,1.499,1.715c1.044,0,1.751-0.647,1.751-1.931v-3.238
			H529.279z"/>
		<path class="st7" d="M534.957,312.274v1.427c-0.132-0.024-0.24-0.036-0.348-0.036c-1.14,0-1.859,0.672-1.859,1.979v3.106h-1.499
			v-6.404h1.428v0.935C533.11,312.61,533.89,312.274,534.957,312.274z"/>
		<path class="st7" d="M542.168,316.028h-5.025c0.18,0.936,0.959,1.535,2.074,1.535c0.72,0,1.284-0.228,1.739-0.695l0.804,0.923
			c-0.575,0.684-1.475,1.043-2.578,1.043c-2.147,0-3.538-1.379-3.538-3.286c0-1.907,1.403-3.274,3.31-3.274
			c1.871,0,3.238,1.308,3.238,3.31C542.191,315.705,542.18,315.885,542.168,316.028z M537.131,315.033h3.634
			c-0.12-0.924-0.828-1.559-1.812-1.559C537.982,313.474,537.274,314.098,537.131,315.033z"/>
		<path class="st7" d="M543.131,317.839c0-0.6,0.444-0.995,0.983-0.995c0.54,0,0.983,0.396,0.983,0.995
			c0,0.576-0.443,0.996-0.983,0.996C543.575,318.835,543.131,318.415,543.131,317.839z"/>
		<path class="st7" d="M271.721,326.355h1.559v7.076h4.39v1.319h-5.949V326.355z"/>
		<path class="st7" d="M284.701,332.028h-5.025c0.18,0.936,0.959,1.535,2.075,1.535c0.72,0,1.283-0.228,1.739-0.695l0.803,0.923
			c-0.576,0.684-1.475,1.043-2.579,1.043c-2.146,0-3.538-1.379-3.538-3.286c0-1.907,1.403-3.274,3.311-3.274
			c1.871,0,3.238,1.308,3.238,3.31C284.726,331.705,284.713,331.885,284.701,332.028z M279.664,331.033h3.634
			c-0.12-0.924-0.828-1.559-1.811-1.559C280.516,329.474,279.808,330.098,279.664,331.033z"/>
		<path class="st7" d="M290.019,334.403c-0.36,0.288-0.899,0.432-1.439,0.432c-1.403,0-2.207-0.744-2.207-2.159v-3.083h-1.056
			v-1.199h1.056v-1.463h1.499v1.463h1.715v1.199h-1.715v3.046c0,0.624,0.312,0.959,0.888,0.959c0.312,0,0.611-0.084,0.839-0.264
			L290.019,334.403z"/>
		<path class="st7" d="M292.72,326.751c0,0.276-0.048,0.479-0.264,1.031l-0.624,1.703h-0.971l0.479-1.847
			c-0.336-0.132-0.563-0.443-0.563-0.887c0-0.588,0.419-0.983,0.971-0.983C292.312,325.768,292.72,326.176,292.72,326.751z"/>
		<path class="st7" d="M293.249,334.115l0.576-1.139c0.563,0.372,1.427,0.636,2.23,0.636c0.948,0,1.343-0.264,1.343-0.708
			c0-1.223-3.958-0.072-3.958-2.626c0-1.211,1.091-2.003,2.818-2.003c0.852,0,1.823,0.204,2.399,0.552l-0.576,1.14
			c-0.611-0.36-1.223-0.48-1.835-0.48c-0.911,0-1.343,0.3-1.343,0.72c0,1.295,3.958,0.144,3.958,2.65
			c0,1.199-1.104,1.979-2.902,1.979C294.892,334.835,293.825,334.523,293.249,334.115z"/>
		<path class="st7" d="M310.273,331.549c0,1.991-1.38,3.286-3.25,3.286c-0.876,0-1.619-0.3-2.123-0.912v0.828h-1.428v-8.899h1.499
			v3.274c0.517-0.576,1.235-0.852,2.052-0.852C308.894,328.274,310.273,329.558,310.273,331.549z M308.75,331.549
			c0-1.224-0.816-2.003-1.895-2.003c-1.08,0-1.908,0.779-1.908,2.003c0,1.223,0.828,2.003,1.908,2.003
			C307.934,333.552,308.75,332.772,308.75,331.549z"/>
		<path class="st7" d="M317.701,332.028h-5.025c0.18,0.936,0.96,1.535,2.075,1.535c0.72,0,1.283-0.228,1.739-0.695l0.803,0.923
			c-0.575,0.684-1.475,1.043-2.578,1.043c-2.146,0-3.538-1.379-3.538-3.286c0-1.907,1.403-3.274,3.311-3.274
			c1.87,0,3.238,1.308,3.238,3.31C317.726,331.705,317.713,331.885,317.701,332.028z M312.664,331.033h3.635
			c-0.121-0.924-0.828-1.559-1.812-1.559C313.516,329.474,312.809,330.098,312.664,331.033z"/>
		<path class="st7" d="M321.749,334.115l0.575-1.139c0.564,0.372,1.428,0.636,2.23,0.636c0.948,0,1.344-0.264,1.344-0.708
			c0-1.223-3.957-0.072-3.957-2.626c0-1.211,1.091-2.003,2.818-2.003c0.852,0,1.822,0.204,2.398,0.552l-0.576,1.14
			c-0.611-0.36-1.223-0.48-1.835-0.48c-0.911,0-1.343,0.3-1.343,0.72c0,1.295,3.958,0.144,3.958,2.65
			c0,1.199-1.104,1.979-2.903,1.979C323.393,334.835,322.324,334.523,321.749,334.115z"/>
		<path class="st7" d="M339.37,331.081v3.67h-1.499v-3.478c0-1.14-0.527-1.691-1.439-1.691c-0.983,0-1.667,0.647-1.667,1.919v3.25
			h-1.499v-3.478c0-1.14-0.527-1.691-1.439-1.691c-0.995,0-1.667,0.647-1.667,1.919v3.25h-1.499v-6.404h1.428v0.815
			c0.479-0.576,1.223-0.888,2.099-0.888c0.936,0,1.715,0.348,2.158,1.067c0.516-0.66,1.38-1.067,2.399-1.067
			C338.291,328.274,339.37,329.15,339.37,331.081z"/>
		<path class="st7" d="M346.657,330.997v3.754h-1.415v-0.78c-0.36,0.552-1.056,0.864-2.016,0.864c-1.463,0-2.387-0.804-2.387-1.919
			c0-1.067,0.72-1.907,2.663-1.907h1.655v-0.096c0-0.875-0.528-1.391-1.596-1.391c-0.72,0-1.463,0.24-1.942,0.636l-0.588-1.092
			c0.684-0.527,1.679-0.792,2.71-0.792C345.59,328.274,346.657,329.15,346.657,330.997z M345.158,332.748v-0.744h-1.548
			c-1.02,0-1.295,0.384-1.295,0.852c0,0.54,0.456,0.888,1.224,0.888C344.271,333.744,344.906,333.408,345.158,332.748z"/>
		<path class="st7" d="M352.286,328.274v1.427c-0.132-0.024-0.24-0.036-0.348-0.036c-1.14,0-1.859,0.672-1.859,1.979v3.106h-1.499
			v-6.404h1.428v0.935C350.439,328.61,351.219,328.274,352.286,328.274z"/>
		<path class="st7" d="M357.649,334.403c-0.359,0.288-0.899,0.432-1.438,0.432c-1.403,0-2.207-0.744-2.207-2.159v-3.083h-1.056
			v-1.199h1.056v-1.463h1.499v1.463h1.715v1.199h-1.715v3.046c0,0.624,0.312,0.959,0.888,0.959c0.312,0,0.611-0.084,0.84-0.264
			L357.649,334.403z"/>
		<path class="st7" d="M367.561,330.997v3.754h-1.415v-0.78c-0.36,0.552-1.056,0.864-2.016,0.864c-1.463,0-2.387-0.804-2.387-1.919
			c0-1.067,0.72-1.907,2.663-1.907h1.655v-0.096c0-0.875-0.528-1.391-1.596-1.391c-0.72,0-1.463,0.24-1.942,0.636l-0.588-1.092
			c0.684-0.527,1.679-0.792,2.71-0.792C366.493,328.274,367.561,329.15,367.561,330.997z M366.062,332.748v-0.744h-1.548
			c-1.02,0-1.295,0.384-1.295,0.852c0,0.54,0.456,0.888,1.224,0.888C365.174,333.744,365.81,333.408,366.062,332.748z"/>
		<path class="st7" d="M376.284,331.549c0,1.991-1.38,3.286-3.251,3.286c-0.875,0-1.619-0.3-2.122-0.912v0.828h-1.428v-8.899h1.499
			v3.274c0.516-0.576,1.235-0.852,2.051-0.852C374.904,328.274,376.284,329.558,376.284,331.549z M374.761,331.549
			c0-1.224-0.815-2.003-1.896-2.003c-1.079,0-1.906,0.779-1.906,2.003c0,1.223,0.827,2.003,1.906,2.003
			C373.945,333.552,374.761,332.772,374.761,331.549z"/>
		<path class="st7" d="M377.188,331.549c0-1.919,1.438-3.274,3.406-3.274c1.99,0,3.418,1.355,3.418,3.274s-1.428,3.286-3.418,3.286
			C378.626,334.835,377.188,333.468,377.188,331.549z M382.5,331.549c0-1.224-0.815-2.003-1.906-2.003
			c-1.08,0-1.896,0.779-1.896,2.003c0,1.223,0.815,2.003,1.896,2.003C381.685,333.552,382.5,332.772,382.5,331.549z"/>
		<path class="st7" d="M391.655,328.347v6.404h-1.427v-0.815c-0.479,0.587-1.235,0.899-2.062,0.899
			c-1.644,0-2.759-0.899-2.759-2.831v-3.658h1.499v3.454c0,1.163,0.552,1.715,1.499,1.715c1.044,0,1.751-0.647,1.751-1.931v-3.238
			H391.655z"/>
		<path class="st7" d="M397.477,334.403c-0.359,0.288-0.899,0.432-1.438,0.432c-1.403,0-2.207-0.744-2.207-2.159v-3.083h-1.056
			v-1.199h1.056v-1.463h1.499v1.463h1.715v1.199h-1.715v3.046c0,0.624,0.312,0.959,0.888,0.959c0.312,0,0.611-0.084,0.839-0.264
			L397.477,334.403z"/>
		<path class="st7" d="M401.822,326.392c0-0.504,0.408-0.899,0.96-0.899s0.959,0.372,0.959,0.863c0,0.528-0.396,0.936-0.959,0.936
			C402.23,327.291,401.822,326.896,401.822,326.392z M402.026,328.347h1.499v6.404h-1.499V328.347z"/>
		<path class="st7" d="M409.344,334.403c-0.359,0.288-0.899,0.432-1.438,0.432c-1.403,0-2.207-0.744-2.207-2.159v-3.083h-1.056
			v-1.199h1.056v-1.463h1.499v1.463h1.715v1.199h-1.715v3.046c0,0.624,0.312,0.959,0.888,0.959c0.312,0,0.611-0.084,0.839-0.264
			L409.344,334.403z"/>
		<path class="st7" d="M410.198,333.839c0-0.6,0.444-0.995,0.983-0.995c0.54,0,0.983,0.396,0.983,0.995
			c0,0.576-0.443,0.996-0.983,0.996C410.643,334.835,410.198,334.415,410.198,333.839z"/>
	</g>
</g>
</svg>
