<?xml version="1.0" encoding="utf-8"?>
<!-- Generator: Adobe Illustrator 25.2.3, SVG Export Plug-In . SVG Version: 6.00 Build 0)  -->
<svg version="1.1" xmlns="http://www.w3.org/2000/svg" xmlns:xlink="http://www.w3.org/1999/xlink" x="0px" y="0px"
	 viewBox="0 0 1024 768" style="enable-background:new 0 0 1024 768;" xml:space="preserve">
<style type="text/css">
	.st0{fill:#FFFFFF;}
	.st1{fill:#C9C9C9;}
	.st2{fill:#F9F9B7;}
	.st3{fill:#D0C3D8;}
	.st4{fill:#C2CEC3;}
	.st5{fill:#AF8FC6;}
	.st6{fill:#9FC9A1;}
	.st7{opacity:0.5;fill:#FFFFFF;}
	.st8{fill:none;stroke:#666666;stroke-miterlimit:10;}
	.st9{fill:none;stroke:#666666;stroke-miterlimit:10;stroke-dasharray:6,6;}
	.st10{opacity:0.5;fill:#B5E9EA;stroke:#CCCCCC;stroke-miterlimit:10;}
	.st11{fill:#FFFFFF;stroke:#686868;stroke-width:0.5;stroke-miterlimit:10;}
	.st12{opacity:0.5;fill:#C9C9C9;}
	.st13{fill:none;stroke:#8EC5E8;stroke-width:4;stroke-miterlimit:10;}
	.st14{fill:none;stroke:#D34F4F;stroke-width:4;stroke-miterlimit:10;}
	.st15{fill:none;stroke:#AF4646;stroke-width:4;stroke-miterlimit:10;}
	.st16{fill:none;stroke:#2B2B2B;stroke-width:6;stroke-miterlimit:10;}
	.st17{opacity:0.1;fill:#E5D00E;}
	.st18{opacity:0.1;fill:#13B8EA;}
	.st19{opacity:0.11;}
</style>
<g id="rect">
	<g>
		<rect x="70.49" y="178.663" class="st0" width="787.966" height="475.429"/>
		<path d="M857.956,179.163V297.27v119.107v119.107v118.107H661.714H464.473H267.231H70.99V535.484V416.377V297.27V179.163h196.242
			h197.241h197.241H857.956 M858.956,178.163H661.714H464.473H267.231H69.99V297.27v119.107v119.107v119.107h197.242h197.241
			h197.241h197.242V535.484V416.377V297.27V178.163L858.956,178.163z"/>
	</g>
</g>
<g id="Labels">
	<g>
		<path d="M21.473,386.577h-8.155v3.19h-1.056v-7.592h1.056v3.189h8.155V386.577z"/>
		<path d="M20.561,377.314c0.672,0.576,1.044,1.403,1.044,2.435c0,2.027-1.331,3.178-3.358,3.178c-1.942,0-3.346-1.151-3.346-3.01
			c0-1.847,1.379-2.842,3.142-2.842c0.192,0,0.492,0.012,0.66,0.036v4.654c1.223-0.12,1.931-0.828,1.931-2.027
			c0-0.708-0.264-1.248-0.779-1.631L20.561,377.314z M17.755,378.202c-1.056,0.072-1.896,0.6-1.896,1.739
			c0,1.127,0.815,1.727,1.896,1.835V378.202z"/>
		<path d="M15.896,374.493c-0.611-0.396-0.995-1.008-0.995-1.895c0-0.924,0.419-1.619,1.104-1.943
			c-0.756-0.468-1.104-1.211-1.104-2.087c0-1.295,0.815-2.147,2.038-2.147h4.534v1.139h-4.27c-0.744,0-1.319,0.432-1.319,1.332
			c0,0.959,0.647,1.571,1.535,1.571h4.054v1.139h-4.27c-0.744,0-1.319,0.444-1.319,1.319c0,0.959,0.647,1.583,1.535,1.583h4.054
			v1.14h-6.44v-1.104l0.863-0.024V374.493z"/>
		<path d="M20.537,363.38v0.024h3.13v1.14h-8.635v-1.104l1.02-0.024v-0.024c-0.732-0.492-1.151-1.284-1.151-2.183
			c0-1.787,1.451-2.854,3.322-2.854c1.847,0,3.382,1.104,3.382,2.902C21.604,362.181,21.232,362.889,20.537,363.38z M18.246,359.506
			c-1.211,0-2.351,0.612-2.351,1.979c0,1.283,1.104,1.955,2.387,1.955c1.319,0,2.327-0.696,2.327-1.943
			C20.609,360.19,19.529,359.506,18.246,359.506z"/>
		<path d="M20.633,357.439l-0.779-0.696c0.539-0.563,0.791-1.271,0.791-2.039c0-1.019-0.371-1.511-0.923-1.511
			c-0.612,0-0.756,0.647-0.983,1.727c-0.265,1.211-0.636,2.291-1.884,2.291c-1.103,0-1.954-0.864-1.954-2.542
			c0-1.032,0.312-1.835,0.923-2.507l0.78,0.684c-0.504,0.552-0.744,1.164-0.744,1.859c0,0.9,0.384,1.355,0.876,1.355
			c0.6,0,0.731-0.576,0.971-1.691c0.265-1.188,0.601-2.327,1.884-2.327c1.175,0,2.015,0.935,2.015,2.698
			C21.604,355.88,21.269,356.768,20.633,357.439z"/>
		<path d="M20.153,350.54v-1.319h1.319v1.319H20.153z"/>
	</g>
	<g>
		<path d="M864.135,667.246l0.899-0.779c0.6,0.756,1.523,1.188,2.555,1.188c1.522,0,2.159-0.624,2.159-1.547
			c0-0.984-0.863-1.271-2.291-1.632c-1.523-0.384-3.022-0.839-3.022-2.603c0-1.596,1.235-2.65,3.25-2.65
			c1.296,0,2.399,0.468,3.167,1.428l-0.912,0.755c-0.479-0.671-1.211-1.14-2.267-1.14c-1.331,0-2.003,0.637-2.003,1.487
			c0,0.983,0.875,1.212,2.267,1.583c1.595,0.432,3.046,0.9,3.046,2.65c0,1.632-1.234,2.711-3.382,2.711
			C866.186,668.697,864.963,668.229,864.135,667.246z"/>
		<path d="M872.426,662.125h1.104l0.024,0.947h0.024c0.408-0.647,1.127-1.079,2.086-1.079c1.393,0,2.268,0.899,2.268,2.255v4.317
			h-1.14v-4.09c0-0.839-0.491-1.499-1.463-1.499c-1.079,0-1.763,0.744-1.763,1.751v3.838h-1.141V662.125z"/>
		<path d="M879.387,665.352c0-1.871,1.151-3.358,3.166-3.358c2.027,0,3.154,1.511,3.154,3.358c0,1.834-1.127,3.346-3.154,3.346
			C880.538,668.697,879.387,667.21,879.387,665.352z M880.538,665.352c0,1.271,0.671,2.375,2.003,2.375
			c1.331,0,2.015-1.104,2.015-2.375c0-1.283-0.684-2.387-2.015-2.387C881.209,662.965,880.538,664.068,880.538,665.352z"/>
		<path d="M895.941,662.125l-2.075,6.44h-1.163l-1.547-4.869h-0.024l-1.548,4.869h-1.162l-2.088-6.44h1.199l1.5,4.965h0.023
			l1.487-4.965h1.224l1.499,4.989h0.024l1.499-4.989H895.941z"/>
	</g>
	<g>
		<path d="M934.962,664.691h-2.446v3.874h-1.211v-9.211h3.754c1.703,0,2.962,0.972,2.962,2.639c0,1.235-0.743,2.062-1.847,2.423
			l2.026,4.149h-1.367L934.962,664.691z M932.516,663.637h2.519c0.983,0,1.763-0.528,1.763-1.607c0-1.092-0.756-1.619-1.751-1.619
			h-2.53V663.637z"/>
		<path d="M943.194,668.565l-0.024-0.936h-0.023c-0.359,0.636-1.02,1.067-1.943,1.067c-1.259,0-2.074-0.804-2.074-1.943
			c0-0.839,0.432-1.402,1.247-1.666c0.708-0.229,1.751-0.276,2.807-0.312v-0.576c0-0.659-0.456-1.246-1.427-1.246
			c-0.816,0-1.283,0.383-1.488,0.971l-0.947-0.455c0.372-0.973,1.295-1.476,2.471-1.476c1.535,0,2.52,0.804,2.52,2.206v4.366
			H943.194z M943.183,666.023v-0.373c-0.433,0.013-1.104,0.061-1.644,0.133c-0.731,0.096-1.271,0.3-1.271,0.959
			c0,0.6,0.456,0.996,1.199,0.996C942.511,667.738,943.183,666.946,943.183,666.023z"/>
		<path d="M946.136,659.354h1.235v1.235h-1.235V659.354z M946.184,668.565v-6.44h1.14v6.44H946.184z"/>
		<path d="M949.22,662.125h1.104l0.024,0.947h0.023c0.408-0.647,1.127-1.079,2.087-1.079c1.392,0,2.267,0.899,2.267,2.255v4.317
			h-1.139v-4.09c0-0.839-0.492-1.499-1.463-1.499c-1.08,0-1.764,0.744-1.764,1.751v3.838h-1.14V662.125z"/>
	</g>
	
		<rect x="243.174" y="-64.174" transform="matrix(-1.836970e-16 1 -1 -1.836970e-16 422.1744 -132.1744)" class="st1" width="68" height="418.349"/>
	
		<rect x="886.715" y="100.715" transform="matrix(-1.836970e-16 1 -1 -1.836970e-16 1065.7153 -775.7153)" class="st1" width="68" height="88.569"/>
	
		<rect x="647.39" y="-50.041" transform="matrix(-1.836970e-16 1 -1 -1.836970e-16 826.3898 -536.3897)" class="st2" width="68" height="390.082"/>
	<g>
		<path class="st0" d="M79.213,132.332l1.725-1.495c1.15,1.449,2.92,2.276,4.898,2.276c2.92,0,4.139-1.196,4.139-2.966
			c0-1.886-1.656-2.438-4.392-3.127c-2.92-0.736-5.795-1.61-5.795-4.99c0-3.059,2.369-5.082,6.232-5.082
			c2.483,0,4.599,0.897,6.07,2.736l-1.748,1.449c-0.92-1.288-2.322-2.185-4.346-2.185c-2.552,0-3.84,1.219-3.84,2.852
			c0,1.885,1.679,2.322,4.346,3.035c3.058,0.828,5.84,1.725,5.84,5.082c0,3.127-2.368,5.197-6.484,5.197
			C83.145,135.114,80.799,134.217,79.213,132.332z"/>
		<path class="st0" d="M105.614,134.861h-2.138l-0.023-1.816h-0.046c-0.805,1.219-2.208,2.069-4.001,2.069
			c-2.667,0-4.346-1.725-4.346-4.323v-8.278h2.185v7.841c0,1.609,0.897,2.874,2.806,2.874c2.069,0,3.38-1.425,3.38-3.357v-7.358
			h2.185V134.861z"/>
		<path class="st0" d="M109.25,122.513h2.116l0.046,1.816h0.046c0.782-1.242,2.162-2.069,4.001-2.069
			c2.667,0,4.346,1.725,4.346,4.323v8.278h-2.184v-7.841c0-1.61-0.943-2.875-2.806-2.875c-2.069,0-3.38,1.426-3.38,3.357v7.358
			h-2.185V122.513z"/>
		<path class="st0" d="M122.246,133.251l1.333-1.495c1.081,1.035,2.438,1.518,3.909,1.518c1.955,0,2.897-0.713,2.897-1.771
			c0-1.172-1.242-1.449-3.312-1.885c-2.322-0.506-4.392-1.219-4.392-3.61c0-2.116,1.655-3.748,4.875-3.748
			c1.978,0,3.519,0.598,4.806,1.771l-1.311,1.495c-1.058-0.966-2.23-1.426-3.564-1.426c-1.725,0-2.599,0.736-2.599,1.679
			c0,1.15,1.104,1.403,3.243,1.863c2.276,0.506,4.461,1.149,4.461,3.61c0,2.253-1.793,3.863-5.174,3.863
			C125.235,135.114,123.533,134.47,122.246,133.251z"/>
		<path class="st0" d="M135.24,117.201h2.185v7.083h0.046c0.828-1.265,2.207-2.023,3.978-2.023c2.667,0,4.346,1.725,4.346,4.323
			v8.278h-2.184v-7.841c0-1.61-0.943-2.875-2.806-2.875c-2.069,0-3.38,1.426-3.38,3.357v7.358h-2.185V117.201z"/>
		<path class="st0" d="M149.293,117.201h2.369v2.369h-2.369V117.201z M149.385,134.861v-12.348h2.185v12.348H149.385z"/>
		<path class="st0" d="M155.204,122.513h2.116l0.046,1.816h0.046c0.782-1.242,2.162-2.069,4.001-2.069
			c2.667,0,4.346,1.725,4.346,4.323v8.278h-2.184v-7.841c0-1.61-0.943-2.875-2.806-2.875c-2.069,0-3.38,1.426-3.38,3.357v7.358
			h-2.185V122.513z"/>
		<path class="st0" d="M179.305,133.114c-1.104,1.288-2.69,2-4.668,2c-3.886,0-6.094-2.552-6.094-6.438
			c0-3.725,2.208-6.416,5.772-6.416c3.541,0,5.45,2.644,5.45,6.024c0,0.368-0.023,0.943-0.069,1.265h-8.922
			c0.23,2.346,1.587,3.702,3.886,3.702c1.357,0,2.392-0.506,3.127-1.495L179.305,133.114z M177.604,127.733
			c-0.138-2.023-1.15-3.633-3.334-3.633c-2.161,0-3.311,1.563-3.518,3.633H177.604z"/>
	</g>
	<g>
		<path d="M38.366,632.781h3.223v-9.453c-0.99,0.595-2.106,0.954-3.223,1.242v-1.566c1.495-0.45,2.755-1.044,3.781-1.872h1.225
			v11.649h3.205v1.566h-8.211V632.781z"/>
		<path d="M48.752,627.758c0-3.476,0.864-6.824,4.771-6.824c3.889,0,4.771,3.295,4.771,6.788c0,3.475-0.864,6.824-4.771,6.824
			C49.634,634.546,48.752,631.251,48.752,627.758z M56.512,627.739c0-2.574-0.27-5.275-2.989-5.275s-2.989,2.701-2.989,5.275
			c0,2.575,0.271,5.276,2.989,5.276S56.512,630.314,56.512,627.739z"/>
	</g>
	<g>
		<path d="M32.715,208.781h3.223v-9.453c-0.99,0.595-2.106,0.954-3.223,1.242v-1.566c1.494-0.45,2.754-1.044,3.781-1.872h1.225
			v11.649h3.205v1.566h-8.21V208.781z"/>
		<path d="M43.1,203.758c0-3.476,0.864-6.824,4.771-6.824c3.889,0,4.771,3.295,4.771,6.788c0,3.475-0.864,6.824-4.771,6.824
			C43.982,210.546,43.1,207.251,43.1,203.758z M50.86,203.739c0-2.574-0.27-5.275-2.989-5.275s-2.989,2.701-2.989,5.275
			c0,2.575,0.27,5.276,2.989,5.276S50.86,206.314,50.86,203.739z"/>
		<path d="M54.404,203.758c0-3.476,0.864-6.824,4.771-6.824c3.889,0,4.771,3.295,4.771,6.788c0,3.475-0.864,6.824-4.771,6.824
			C55.286,210.546,54.404,207.251,54.404,203.758z M62.164,203.739c0-2.574-0.27-5.275-2.989-5.275s-2.989,2.701-2.989,5.275
			c0,2.575,0.27,5.276,2.989,5.276S62.164,206.314,62.164,203.739z"/>
	</g>
	<g>
		<path d="M38.871,255.586c0.612,0.343,1.333,0.541,2.143,0.541c2.863,0,4.033-2.396,4.195-5.438h-0.036
			c-0.774,1.098-2.106,1.674-3.565,1.674c-2.413,0-4.159-1.62-4.159-4.087c0-2.503,1.8-4.231,4.591-4.231
			c3.745,0,4.861,3.133,4.861,6.248c0,3.493-1.404,7.364-5.87,7.364c-1.098,0-2.035-0.234-2.791-0.595L38.871,255.586z
			 M44.866,248.456c0-1.314-0.9-2.898-2.935-2.898c-1.675,0-2.737,1.044-2.737,2.646c0,1.53,0.99,2.665,2.755,2.665
			C43.282,250.869,44.866,250.221,44.866,248.456z"/>
		<path d="M48.752,250.869c0-3.476,0.864-6.824,4.771-6.824c3.889,0,4.771,3.295,4.771,6.788c0,3.475-0.864,6.824-4.771,6.824
			C49.634,257.657,48.752,254.362,48.752,250.869z M56.512,250.851c0-2.574-0.27-5.275-2.989-5.275s-2.989,2.701-2.989,5.275
			c0,2.575,0.271,5.276,2.989,5.276S56.512,253.426,56.512,250.851z"/>
	</g>
	<g>
		<path d="M37.43,301.023c0-1.53,0.864-2.611,2.449-3.223v-0.036c-1.351-0.559-2.161-1.639-2.161-3.043
			c0-2.089,1.783-3.565,4.483-3.565c2.737,0,4.501,1.477,4.501,3.565c0,1.404-0.829,2.448-2.161,2.971v0.036
			c1.566,0.63,2.449,1.765,2.449,3.295c0,2.215-1.873,3.745-4.79,3.745S37.43,303.238,37.43,301.023z M39.213,300.951
			c0,1.332,1.08,2.305,2.989,2.305c1.926,0,3.007-0.973,3.007-2.305c0-1.422-1.242-2.431-3.007-2.431S39.213,299.529,39.213,300.951
			z M44.92,294.829c0-1.242-0.99-2.16-2.719-2.16s-2.701,0.918-2.701,2.16c0,1.278,1.134,2.233,2.701,2.233
			C43.786,297.062,44.92,296.107,44.92,294.829z"/>
		<path d="M48.752,297.98c0-3.476,0.864-6.824,4.771-6.824c3.889,0,4.771,3.295,4.771,6.788c0,3.475-0.864,6.824-4.771,6.824
			C49.634,304.768,48.752,301.473,48.752,297.98z M56.512,297.961c0-2.574-0.27-5.275-2.989-5.275s-2.989,2.701-2.989,5.275
			c0,2.575,0.271,5.276,2.989,5.276S56.512,300.537,56.512,297.961z"/>
	</g>
	<g>
		<path d="M44.758,340.032h-7.076v-1.566h8.967v1.314l-5.042,11.901h-1.873L44.758,340.032z"/>
		<path d="M48.752,345.091c0-3.476,0.864-6.824,4.771-6.824c3.889,0,4.771,3.295,4.771,6.788c0,3.475-0.864,6.824-4.771,6.824
			C49.634,351.879,48.752,348.584,48.752,345.091z M56.512,345.073c0-2.574-0.27-5.275-2.989-5.275s-2.989,2.701-2.989,5.275
			c0,2.575,0.271,5.276,2.989,5.276S56.512,347.648,56.512,345.073z"/>
	</g>
	<g>
		<path d="M45.785,387.484c-0.666-0.396-1.477-0.576-2.287-0.576c-2.773,0-3.997,2.179-4.195,5.186h0.036
			c0.792-1.062,2.196-1.584,3.583-1.584c2.611,0,4.267,1.8,4.267,4.195c0,2.521-1.818,4.285-4.699,4.285
			c-3.763,0-4.934-3.043-4.934-6.248c0-3.655,1.531-7.364,5.978-7.364c1.152,0,2.106,0.252,2.898,0.666L45.785,387.484z
			 M45.425,394.759c0-1.53-0.973-2.755-2.881-2.755c-1.549,0-2.989,0.828-2.989,2.484c0,1.243,0.811,2.989,3.025,2.989
			C44.38,397.478,45.425,396.343,45.425,394.759z"/>
		<path d="M48.752,392.202c0-3.476,0.864-6.824,4.771-6.824c3.889,0,4.771,3.295,4.771,6.788c0,3.475-0.864,6.824-4.771,6.824
			C49.634,398.99,48.752,395.695,48.752,392.202z M56.512,392.184c0-2.574-0.27-5.275-2.989-5.275s-2.989,2.701-2.989,5.275
			c0,2.575,0.271,5.276,2.989,5.276S56.512,394.759,56.512,392.184z"/>
	</g>
	<g>
		<path d="M40.203,437.981c0.504-0.217,1.116-0.36,1.926-0.36c2.683,0,4.609,1.639,4.609,4.213c0,2.521-1.873,4.268-4.861,4.268
			c-1.98,0-3.439-0.774-4.249-1.818l1.26-1.135c0.702,0.918,1.656,1.423,3.025,1.423c1.909,0,3.043-1.045,3.043-2.701
			c0-1.62-1.188-2.736-3.151-2.736c-0.918,0-1.566,0.252-2.125,0.576h-1.35l0.558-7.022h7.094v1.566h-5.492L40.203,437.981z"/>
		<path d="M48.752,439.313c0-3.476,0.864-6.824,4.771-6.824c3.889,0,4.771,3.295,4.771,6.788c0,3.475-0.864,6.824-4.771,6.824
			C49.634,446.102,48.752,442.807,48.752,439.313z M56.512,439.295c0-2.574-0.27-5.275-2.989-5.275s-2.989,2.701-2.989,5.275
			c0,2.575,0.271,5.276,2.989,5.276S56.512,441.87,56.512,439.295z"/>
	</g>
	<g>
		<path d="M47.657,489.989h-2.413v3.025H43.48v-3.025h-6.662v-1.313l6.194-8.877h2.233v8.679h2.413V489.989z M43.48,488.478v-6.716
			h-0.036l-4.699,6.716H43.48z"/>
		<path d="M48.752,486.425c0-3.476,0.864-6.824,4.771-6.824c3.889,0,4.771,3.295,4.771,6.788c0,3.475-0.864,6.824-4.771,6.824
			C49.634,493.213,48.752,489.918,48.752,486.425z M56.512,486.406c0-2.574-0.27-5.275-2.989-5.275s-2.989,2.701-2.989,5.275
			c0,2.575,0.271,5.276,2.989,5.276S56.512,488.981,56.512,486.406z"/>
	</g>
	<g>
		<path d="M37.448,538.217l1.351-0.955c0.63,0.99,1.584,1.531,3.042,1.531c1.909,0,3.007-0.937,3.007-2.341
			c0-1.387-1.152-2.341-2.971-2.341h-1.278v-1.513h1.278c1.639,0,2.701-0.9,2.701-2.179c0-1.296-1.008-2.179-2.737-2.179
			c-1.35,0-2.232,0.522-2.772,1.404l-1.314-0.936c0.684-1.116,2.143-1.999,4.141-1.999c2.737,0,4.465,1.513,4.465,3.602
			c0,1.404-0.792,2.431-2.125,2.935v0.036c1.566,0.558,2.395,1.692,2.395,3.223c0,2.215-1.818,3.817-4.771,3.817
			C39.717,540.323,38.15,539.423,37.448,538.217z"/>
		<path d="M48.752,533.535c0-3.476,0.864-6.824,4.771-6.824c3.889,0,4.771,3.295,4.771,6.788c0,3.475-0.864,6.824-4.771,6.824
			C49.634,540.323,48.752,537.028,48.752,533.535z M56.512,533.517c0-2.574-0.27-5.275-2.989-5.275s-2.989,2.701-2.989,5.275
			c0,2.575,0.271,5.276,2.989,5.276S56.512,536.092,56.512,533.517z"/>
	</g>
	<g>
		<path d="M37.808,585.958l4.609-4.609c1.296-1.278,2.125-2.431,2.125-3.709c0-1.333-0.882-2.251-2.575-2.251
			c-1.351,0-2.179,0.576-2.917,1.603l-1.278-0.99c0.972-1.351,2.34-2.179,4.321-2.179c2.665,0,4.231,1.494,4.231,3.691
			c0,1.422-0.666,2.826-2.106,4.267l-3.871,3.854v0.036h6.248v1.566h-8.787V585.958z"/>
		<path d="M48.752,580.646c0-3.476,0.864-6.824,4.771-6.824c3.889,0,4.771,3.295,4.771,6.788c0,3.475-0.864,6.824-4.771,6.824
			C49.634,587.435,48.752,584.14,48.752,580.646z M56.512,580.628c0-2.574-0.27-5.275-2.989-5.275s-2.989,2.701-2.989,5.275
			c0,2.575,0.271,5.276,2.989,5.276S56.512,583.203,56.512,580.628z"/>
	</g>
</g>
<g id="Sunshine">
	<rect x="858" y="179" class="st3" width="107" height="476"/>
	<rect x="911" y="179" class="st4" width="54" height="476"/>
	<rect x="858" y="433" class="st5" width="53" height="222"/>
	<rect x="911" y="263" class="st6" width="54" height="332"/>
</g>
<g id="Dewpoint">
	<rect x="284" y="256" class="st7" width="358" height="271"/>
	<rect x="68" y="349" class="st7" width="216" height="216"/>
	<rect x="642" y="349" class="st7" width="216" height="216"/>
	<g>
		<g>
			<line class="st8" x1="858" y1="565.5" x2="855" y2="565.5"/>
			<line class="st9" x1="849" y1="565.5" x2="48" y2="565.5"/>
			<line class="st8" x1="45" y1="565.5" x2="42" y2="565.5"/>
		</g>
	</g>
	<path class="st10" d="M69,501c102,0,306-158,429.864-158C715,343,758,471.565,857.5,471.565v-105C758,366.565,715,238,498.864,238
		C375,238,171,396,69,396"/>
</g>
<g id="Month_Lines">
	<line class="st11" x1="68.5" y1="654.5" x2="68.5" y2="178.5"/>
	<line class="st11" x1="140.227" y1="178.545" x2="140.227" y2="654.545"/>
	<line class="st11" x1="211.955" y1="178.591" x2="211.955" y2="654.591"/>
	<line class="st11" x1="283.682" y1="178.636" x2="283.682" y2="654.636"/>
	<line class="st11" x1="355.409" y1="178.682" x2="355.409" y2="654.682"/>
	<line class="st11" x1="427.136" y1="178.727" x2="427.136" y2="654.727"/>
	<line class="st11" x1="498.864" y1="178.773" x2="498.864" y2="654.773"/>
	<line class="st11" x1="570.591" y1="178.818" x2="570.591" y2="654.818"/>
	<line class="st11" x1="642.318" y1="178.864" x2="642.318" y2="654.864"/>
	<line class="st11" x1="714.045" y1="178.909" x2="714.045" y2="654.909"/>
	<line class="st11" x1="785.773" y1="178.955" x2="785.773" y2="654.955"/>
	<line class="st11" x1="857.5" y1="179" x2="857.5" y2="655"/>
	<g>
		<path d="M47.017,681.524l0.54-0.876c0.348,0.276,0.768,0.444,1.248,0.444c0.911,0,1.295-0.624,1.295-1.451v-6.896h1.211v6.908
			c0,1.451-0.947,2.435-2.495,2.435C48.048,682.088,47.448,681.836,47.017,681.524z"/>
		<path d="M56.974,681.956l-0.024-0.936h-0.024c-0.36,0.636-1.02,1.067-1.943,1.067c-1.259,0-2.075-0.804-2.075-1.942
			c0-0.84,0.432-1.403,1.247-1.668c0.708-0.228,1.751-0.275,2.807-0.312v-0.575c0-0.66-0.456-1.248-1.427-1.248
			c-0.816,0-1.283,0.384-1.487,0.972l-0.947-0.456c0.372-0.971,1.295-1.475,2.47-1.475c1.535,0,2.519,0.804,2.519,2.207v4.365
			H56.974z M56.962,679.413v-0.371c-0.432,0.012-1.104,0.06-1.643,0.132c-0.732,0.096-1.271,0.3-1.271,0.959
			c0,0.6,0.456,0.996,1.199,0.996C56.29,681.129,56.962,680.337,56.962,679.413z"/>
		<path d="M59.963,675.516h1.104l0.024,0.947h0.024c0.408-0.647,1.127-1.079,2.087-1.079c1.392,0,2.267,0.899,2.267,2.255v4.317
			h-1.14v-4.09c0-0.84-0.492-1.499-1.463-1.499c-1.08,0-1.763,0.743-1.763,1.751v3.838h-1.14V675.516z"/>
		<path d="M72.824,681.956h-1.115l-0.012-0.947h-0.024c-0.419,0.636-1.151,1.079-2.086,1.079c-1.392,0-2.267-0.899-2.267-2.255
			v-4.317h1.14v4.09c0,0.84,0.468,1.499,1.463,1.499c1.08,0,1.763-0.743,1.763-1.751v-3.838h1.139V681.956z"/>
		<path d="M78.429,681.956l-0.024-0.936h-0.024c-0.36,0.636-1.02,1.067-1.943,1.067c-1.259,0-2.075-0.804-2.075-1.942
			c0-0.84,0.432-1.403,1.247-1.668c0.708-0.228,1.751-0.275,2.807-0.312v-0.575c0-0.66-0.456-1.248-1.427-1.248
			c-0.815,0-1.283,0.384-1.487,0.972l-0.947-0.456c0.372-0.971,1.295-1.475,2.47-1.475c1.535,0,2.519,0.804,2.519,2.207v4.365
			H78.429z M78.417,679.413v-0.371c-0.432,0.012-1.104,0.06-1.643,0.132c-0.732,0.096-1.271,0.3-1.271,0.959
			c0,0.6,0.456,0.996,1.199,0.996C77.746,681.129,78.417,680.337,78.417,679.413z"/>
		<path d="M81.419,675.516h1.104l0.024,0.972h0.024c0.432-0.804,1.032-1.104,1.655-1.104c0.228,0,0.396,0.036,0.54,0.084v1.115
			c-0.108-0.036-0.335-0.084-0.6-0.084c-1.067,0-1.607,0.756-1.607,1.547v3.91h-1.14V675.516z"/>
		<path d="M91.568,675.516l-2.734,6.933c-0.552,1.402-1.115,1.835-2.075,1.835c-0.335,0-0.587-0.061-0.779-0.133v-0.923
			c0.144,0.048,0.312,0.084,0.54,0.084c0.636,0,1.02-0.252,1.319-1.188l0.024-0.072l-2.579-6.536h1.248l1.895,5.133h0.024
			l1.919-5.133H91.568z"/>
	</g>
	<g>
		<path d="M116.361,681.956v-9.211h5.901v1.056h-4.689v3.118h4.102v1.043h-4.102v3.994H116.361z"/>
		<path d="M128.526,681.045c-0.576,0.671-1.403,1.043-2.435,1.043c-2.027,0-3.178-1.331-3.178-3.358c0-1.942,1.151-3.346,3.01-3.346
			c1.847,0,2.842,1.379,2.842,3.143c0,0.191-0.012,0.491-0.036,0.659h-4.654c0.12,1.224,0.828,1.931,2.027,1.931
			c0.708,0,1.248-0.264,1.631-0.779L128.526,681.045z M127.639,678.238c-0.072-1.056-0.6-1.896-1.739-1.896
			c-1.127,0-1.727,0.815-1.835,1.896H127.639z"/>
		<path d="M131.312,680.961h-0.024l-0.048,0.995h-1.043v-9.211h1.14v3.79h0.024c0.528-0.756,1.283-1.151,2.183-1.151
			c1.799,0,2.843,1.499,2.843,3.334c0,1.787-1.08,3.37-2.915,3.37C132.536,682.088,131.792,681.681,131.312,680.961z
			 M135.234,678.729c0-1.211-0.624-2.351-1.979-2.351c-1.355,0-1.955,1.176-1.955,2.387c0,1.26,0.636,2.327,1.943,2.327
			C134.526,681.093,135.234,680.049,135.234,678.729z"/>
		<path d="M137.901,675.516h1.104l0.024,0.972h0.024c0.432-0.804,1.032-1.104,1.655-1.104c0.228,0,0.396,0.036,0.54,0.084v1.115
			c-0.108-0.036-0.335-0.084-0.6-0.084c-1.067,0-1.607,0.756-1.607,1.547v3.91h-1.14V675.516z"/>
		<path d="M147.942,681.956h-1.116l-0.012-0.947h-0.024c-0.42,0.636-1.151,1.079-2.087,1.079c-1.392,0-2.267-0.899-2.267-2.255
			v-4.317h1.14v4.09c0,0.84,0.468,1.499,1.463,1.499c1.08,0,1.763-0.743,1.763-1.751v-3.838h1.14V681.956z"/>
		<path d="M153.547,681.956l-0.024-0.936h-0.024c-0.36,0.636-1.02,1.067-1.943,1.067c-1.259,0-2.075-0.804-2.075-1.942
			c0-0.84,0.432-1.403,1.247-1.668c0.708-0.228,1.751-0.275,2.807-0.312v-0.575c0-0.66-0.456-1.248-1.427-1.248
			c-0.816,0-1.283,0.384-1.487,0.972l-0.947-0.456c0.372-0.971,1.295-1.475,2.47-1.475c1.535,0,2.519,0.804,2.519,2.207v4.365
			H153.547z M153.535,679.413v-0.371c-0.432,0.012-1.104,0.06-1.643,0.132c-0.732,0.096-1.271,0.3-1.271,0.959
			c0,0.6,0.456,0.996,1.199,0.996C152.863,681.129,153.535,680.337,153.535,679.413z"/>
		<path d="M156.537,675.516h1.104l0.024,0.972h0.024c0.432-0.804,1.032-1.104,1.655-1.104c0.228,0,0.396,0.036,0.54,0.084v1.115
			c-0.108-0.036-0.335-0.084-0.6-0.084c-1.067,0-1.607,0.756-1.607,1.547v3.91h-1.14V675.516z"/>
		<path d="M166.686,675.516l-2.734,6.933c-0.552,1.402-1.115,1.835-2.075,1.835c-0.335,0-0.587-0.061-0.779-0.133v-0.923
			c0.144,0.048,0.312,0.084,0.54,0.084c0.636,0,1.02-0.252,1.319-1.188l0.024-0.072l-2.579-6.536h1.248l1.895,5.133h0.024
			l1.919-5.133H166.686z"/>
	</g>
	<g>
		<path d="M204.817,672.745v9.211h-1.2v-7.472h-0.024l-2.866,7.472h-1.115l-2.867-7.472h-0.024v7.472h-1.175v-9.211h1.739
			l2.89,7.651h0.024l2.902-7.651H204.817z"/>
		<path d="M210.52,681.956l-0.024-0.936h-0.024c-0.36,0.636-1.02,1.067-1.943,1.067c-1.259,0-2.075-0.804-2.075-1.942
			c0-0.84,0.432-1.403,1.247-1.668c0.708-0.228,1.751-0.275,2.807-0.312v-0.575c0-0.66-0.456-1.248-1.427-1.248
			c-0.816,0-1.283,0.384-1.487,0.972l-0.947-0.456c0.372-0.971,1.295-1.475,2.47-1.475c1.535,0,2.519,0.804,2.519,2.207v4.365
			H210.52z M210.508,679.413v-0.371c-0.432,0.012-1.104,0.06-1.643,0.132c-0.732,0.096-1.271,0.3-1.271,0.959
			c0,0.6,0.456,0.996,1.199,0.996C209.836,681.129,210.508,680.337,210.508,679.413z"/>
		<path d="M213.51,675.516h1.104l0.024,0.972h0.024c0.432-0.804,1.032-1.104,1.655-1.104c0.228,0,0.396,0.036,0.54,0.084v1.115
			c-0.108-0.036-0.335-0.084-0.6-0.084c-1.067,0-1.607,0.756-1.607,1.547v3.91h-1.14V675.516z"/>
		<path d="M217.566,678.766c0-1.907,1.14-3.382,3.119-3.382c1.223,0,2.086,0.588,2.578,1.511l-0.947,0.54
			c-0.324-0.624-0.839-1.079-1.655-1.079c-1.259,0-1.943,1.055-1.943,2.387c0,1.295,0.66,2.374,2.015,2.374
			c0.852,0,1.367-0.432,1.679-1.043l0.899,0.516c-0.456,0.899-1.367,1.499-2.615,1.499
			C218.718,682.088,217.566,680.661,217.566,678.766z"/>
		<path d="M224.417,672.745h1.14v3.694h0.024c0.432-0.66,1.151-1.056,2.075-1.056c1.392,0,2.267,0.899,2.267,2.255v4.317h-1.14
			v-4.09c0-0.84-0.492-1.499-1.463-1.499c-1.08,0-1.763,0.743-1.763,1.751v3.838h-1.14V672.745z"/>
	</g>
	<g>
		<path d="M277.255,679.378h-4.102l-0.984,2.578h-1.271l3.622-9.211h1.427l3.622,9.211h-1.319L277.255,679.378z M276.847,678.334
			l-1.643-4.281h-0.024l-1.631,4.281H276.847z"/>
		<path d="M281.745,681.021h-0.024v3.13h-1.14v-8.635h1.104l0.024,1.02h0.023c0.492-0.731,1.284-1.151,2.184-1.151
			c1.787,0,2.854,1.451,2.854,3.322c0,1.847-1.104,3.382-2.902,3.382C282.944,682.088,282.236,681.716,281.745,681.021z
			 M285.619,678.729c0-1.211-0.612-2.351-1.979-2.351c-1.283,0-1.955,1.104-1.955,2.387c0,1.319,0.696,2.327,1.943,2.327
			C284.936,681.093,285.619,680.013,285.619,678.729z"/>
		<path d="M288.285,675.516h1.104l0.024,0.972h0.023c0.433-0.804,1.032-1.104,1.655-1.104c0.229,0,0.396,0.036,0.54,0.084v1.115
			c-0.108-0.036-0.336-0.084-0.6-0.084c-1.067,0-1.607,0.756-1.607,1.547v3.91h-1.14V675.516z"/>
		<path d="M292.798,672.745h1.235v1.235h-1.235V672.745z M292.846,681.956v-6.44h1.14v6.44H292.846z"/>
		<path d="M295.881,681.956v-9.211h1.14v9.211H295.881z"/>
	</g>
	<g>
		<path d="M354.326,672.745v9.211h-1.2v-7.472h-0.024l-2.866,7.472h-1.115l-2.867-7.472h-0.024v7.472h-1.175v-9.211h1.739
			l2.89,7.651h0.024l2.902-7.651H354.326z"/>
		<path d="M360.028,681.956l-0.024-0.936h-0.024c-0.36,0.636-1.02,1.067-1.943,1.067c-1.259,0-2.075-0.804-2.075-1.942
			c0-0.84,0.432-1.403,1.247-1.668c0.708-0.228,1.751-0.275,2.807-0.312v-0.575c0-0.66-0.456-1.248-1.427-1.248
			c-0.816,0-1.283,0.384-1.487,0.972l-0.947-0.456c0.372-0.971,1.295-1.475,2.47-1.475c1.535,0,2.519,0.804,2.519,2.207v4.365
			H360.028z M360.017,679.413v-0.371c-0.432,0.012-1.104,0.06-1.643,0.132c-0.732,0.096-1.271,0.3-1.271,0.959
			c0,0.6,0.456,0.996,1.199,0.996C359.345,681.129,360.017,680.337,360.017,679.413z"/>
		<path d="M368.355,675.516l-2.734,6.933c-0.552,1.402-1.115,1.835-2.075,1.835c-0.335,0-0.587-0.061-0.779-0.133v-0.923
			c0.144,0.048,0.312,0.084,0.54,0.084c0.636,0,1.02-0.252,1.319-1.188l0.024-0.072l-2.579-6.536h1.248l1.895,5.133h0.024
			l1.919-5.133H368.355z"/>
	</g>
	<g>
		<path d="M414.413,681.524l0.54-0.876c0.348,0.276,0.768,0.444,1.248,0.444c0.911,0,1.295-0.624,1.295-1.451v-6.896h1.211v6.908
			c0,1.451-0.947,2.435-2.495,2.435C415.444,682.088,414.844,681.836,414.413,681.524z"/>
		<path d="M426.145,681.956h-1.116l-0.012-0.947h-0.024c-0.42,0.636-1.151,1.079-2.087,1.079c-1.392,0-2.267-0.899-2.267-2.255
			v-4.317h1.14v4.09c0,0.84,0.468,1.499,1.463,1.499c1.08,0,1.763-0.743,1.763-1.751v-3.838h1.14V681.956z"/>
		<path d="M428.043,675.516h1.104l0.024,0.947h0.024c0.408-0.647,1.127-1.079,2.087-1.079c1.392,0,2.267,0.899,2.267,2.255v4.317
			h-1.14v-4.09c0-0.84-0.492-1.499-1.463-1.499c-1.08,0-1.763,0.743-1.763,1.751v3.838h-1.14V675.516z"/>
		<path d="M440.617,681.045c-0.576,0.671-1.403,1.043-2.435,1.043c-2.027,0-3.178-1.331-3.178-3.358c0-1.942,1.151-3.346,3.01-3.346
			c1.847,0,2.842,1.379,2.842,3.143c0,0.191-0.012,0.491-0.036,0.659h-4.654c0.12,1.224,0.828,1.931,2.027,1.931
			c0.708,0,1.248-0.264,1.631-0.779L440.617,681.045z M439.729,678.238c-0.072-1.056-0.6-1.896-1.739-1.896
			c-1.127,0-1.727,0.815-1.835,1.896H439.729z"/>
	</g>
	<g>
		<path d="M488.576,681.524l0.54-0.876c0.348,0.276,0.768,0.444,1.247,0.444c0.912,0,1.295-0.624,1.295-1.451v-6.896h1.211v6.908
			c0,1.451-0.947,2.435-2.495,2.435C489.607,682.088,489.008,681.836,488.576,681.524z"/>
		<path d="M500.308,681.956h-1.115l-0.012-0.947h-0.024c-0.419,0.636-1.151,1.079-2.086,1.079c-1.392,0-2.267-0.899-2.267-2.255
			v-4.317h1.14v4.09c0,0.84,0.468,1.499,1.463,1.499c1.08,0,1.763-0.743,1.763-1.751v-3.838h1.139V681.956z"/>
		<path d="M502.207,681.956v-9.211h1.14v9.211H502.207z"/>
		<path d="M510.736,675.516l-2.734,6.933c-0.552,1.402-1.115,1.835-2.075,1.835c-0.335,0-0.587-0.061-0.779-0.133v-0.923
			c0.144,0.048,0.312,0.084,0.54,0.084c0.636,0,1.02-0.252,1.319-1.188l0.024-0.072l-2.579-6.536h1.248l1.895,5.133h0.024
			l1.919-5.133H510.736z"/>
	</g>
	<g>
		<path d="M556.94,679.378h-4.102l-0.984,2.578h-1.271l3.622-9.211h1.427l3.622,9.211h-1.319L556.94,679.378z M556.532,678.334
			l-1.643-4.281h-0.024l-1.631,4.281H556.532z"/>
		<path d="M565.652,681.956h-1.115l-0.012-0.947h-0.024c-0.42,0.636-1.151,1.079-2.087,1.079c-1.392,0-2.267-0.899-2.267-2.255
			v-4.317h1.14v4.09c0,0.84,0.468,1.499,1.463,1.499c1.079,0,1.763-0.743,1.763-1.751v-3.838h1.14V681.956z"/>
		<path d="M573.188,681.248c0,2.051-1.319,3.035-3.263,3.035c-1.02,0-1.835-0.288-2.41-0.672l0.516-0.899
			c0.468,0.312,1.031,0.6,1.883,0.6c1.199,0,2.146-0.54,2.146-2.063v-0.552h-0.023c-0.492,0.768-1.271,1.151-2.147,1.151
			c-1.703,0-2.746-1.438-2.746-3.189c0-1.764,1.056-3.274,2.83-3.274c0.936,0,1.632,0.42,2.087,1.056h0.024l0.036-0.924h1.067
			V681.248z M572.085,678.598c0-1.235-0.684-2.219-1.896-2.219c-1.259,0-1.895,1.031-1.895,2.243c0,1.163,0.588,2.23,1.883,2.23
			C571.413,680.853,572.085,679.846,572.085,678.598z"/>
		<path d="M580.568,681.956h-1.115l-0.012-0.947h-0.024c-0.42,0.636-1.151,1.079-2.087,1.079c-1.392,0-2.267-0.899-2.267-2.255
			v-4.317h1.14v4.09c0,0.84,0.468,1.499,1.463,1.499c1.079,0,1.763-0.743,1.763-1.751v-3.838h1.14V681.956z"/>
		<path d="M581.867,681.116l0.696-0.779c0.563,0.54,1.271,0.792,2.039,0.792c1.019,0,1.511-0.372,1.511-0.924
			c0-0.611-0.647-0.756-1.728-0.983c-1.211-0.264-2.29-0.636-2.29-1.883c0-1.104,0.863-1.955,2.542-1.955
			c1.032,0,1.835,0.312,2.507,0.924l-0.684,0.779c-0.552-0.504-1.163-0.744-1.858-0.744c-0.9,0-1.355,0.384-1.355,0.876
			c0,0.6,0.575,0.731,1.69,0.972c1.188,0.264,2.327,0.6,2.327,1.883c0,1.175-0.936,2.015-2.698,2.015
			C583.427,682.088,582.539,681.752,581.867,681.116z"/>
		<path d="M587.819,675.516h1.283v-2.039h1.14v2.039h1.547v0.947h-1.547v3.526c0,0.768,0.204,1.115,1.043,1.115
			c0.216,0,0.372-0.024,0.504-0.048v0.924c-0.252,0.06-0.54,0.107-0.899,0.107c-1.224,0-1.787-0.672-1.787-1.811v-3.814h-1.283
			V675.516z"/>
	</g>
	<g>
		<path d="M611.595,680.637l0.899-0.779c0.6,0.756,1.523,1.188,2.555,1.188c1.522,0,2.158-0.624,2.158-1.548
			c0-0.983-0.863-1.271-2.29-1.631c-1.523-0.384-3.022-0.84-3.022-2.603c0-1.595,1.235-2.65,3.25-2.65
			c1.295,0,2.398,0.468,3.166,1.427l-0.911,0.756c-0.479-0.672-1.212-1.14-2.267-1.14c-1.332,0-2.003,0.636-2.003,1.487
			c0,0.983,0.875,1.212,2.267,1.583c1.595,0.432,3.046,0.899,3.046,2.651c0,1.631-1.235,2.71-3.382,2.71
			C613.646,682.088,612.422,681.62,611.595,680.637z"/>
		<path d="M625.079,681.045c-0.575,0.671-1.403,1.043-2.435,1.043c-2.026,0-3.178-1.331-3.178-3.358c0-1.942,1.151-3.346,3.01-3.346
			c1.848,0,2.843,1.379,2.843,3.143c0,0.191-0.012,0.491-0.036,0.659h-4.653c0.12,1.224,0.827,1.931,2.026,1.931
			c0.708,0,1.248-0.264,1.632-0.779L625.079,681.045z M624.191,678.238c-0.071-1.056-0.6-1.896-1.738-1.896
			c-1.128,0-1.728,0.815-1.835,1.896H624.191z"/>
		<path d="M627.913,681.021h-0.023v3.13h-1.14v-8.635h1.104l0.023,1.02h0.024c0.492-0.731,1.283-1.151,2.183-1.151
			c1.787,0,2.854,1.451,2.854,3.322c0,1.847-1.104,3.382-2.902,3.382C629.112,682.088,628.405,681.716,627.913,681.021z
			 M631.787,678.729c0-1.211-0.611-2.351-1.979-2.351c-1.283,0-1.955,1.104-1.955,2.387c0,1.319,0.695,2.327,1.942,2.327
			C631.104,681.093,631.787,680.013,631.787,678.729z"/>
		<path d="M633.566,675.516h1.283v-2.039h1.14v2.039h1.547v0.947h-1.547v3.526c0,0.768,0.204,1.115,1.043,1.115
			c0.216,0,0.372-0.024,0.504-0.048v0.924c-0.252,0.06-0.539,0.107-0.899,0.107c-1.224,0-1.787-0.672-1.787-1.811v-3.814h-1.283
			V675.516z"/>
		<path d="M643.896,681.045c-0.576,0.671-1.403,1.043-2.435,1.043c-2.027,0-3.179-1.331-3.179-3.358
			c0-1.942,1.151-3.346,3.011-3.346c1.847,0,2.842,1.379,2.842,3.143c0,0.191-0.012,0.491-0.035,0.659h-4.654
			c0.12,1.224,0.828,1.931,2.027,1.931c0.708,0,1.247-0.264,1.631-0.779L643.896,681.045z M643.008,678.238
			c-0.072-1.056-0.6-1.896-1.739-1.896c-1.127,0-1.727,0.815-1.835,1.896H643.008z"/>
		<path d="M646.717,676.379c0.396-0.611,1.008-0.995,1.896-0.995c0.924,0,1.619,0.42,1.942,1.104
			c0.468-0.756,1.212-1.104,2.087-1.104c1.296,0,2.147,0.815,2.147,2.039v4.533h-1.14v-4.27c0-0.744-0.432-1.319-1.331-1.319
			c-0.96,0-1.571,0.647-1.571,1.535v4.054h-1.14v-4.27c0-0.744-0.443-1.319-1.319-1.319c-0.959,0-1.583,0.647-1.583,1.535v4.054
			h-1.14v-6.44h1.104l0.024,0.863H646.717z"/>
		<path d="M657.781,680.961h-0.024l-0.048,0.995h-1.044v-9.211h1.14v3.79h0.024c0.527-0.756,1.283-1.151,2.183-1.151
			c1.799,0,2.843,1.499,2.843,3.334c0,1.787-1.08,3.37-2.915,3.37C659.004,682.088,658.261,681.681,657.781,680.961z
			 M661.703,678.729c0-1.211-0.624-2.351-1.979-2.351s-1.955,1.176-1.955,2.387c0,1.26,0.636,2.327,1.943,2.327
			C660.995,681.093,661.703,680.049,661.703,678.729z"/>
		<path d="M669.562,681.045c-0.575,0.671-1.403,1.043-2.435,1.043c-2.026,0-3.178-1.331-3.178-3.358c0-1.942,1.151-3.346,3.01-3.346
			c1.848,0,2.843,1.379,2.843,3.143c0,0.191-0.012,0.491-0.036,0.659h-4.653c0.12,1.224,0.827,1.931,2.026,1.931
			c0.708,0,1.248-0.264,1.632-0.779L669.562,681.045z M668.675,678.238c-0.071-1.056-0.6-1.896-1.738-1.896
			c-1.128,0-1.728,0.815-1.835,1.896H668.675z"/>
		<path d="M671.233,675.516h1.104l0.023,0.972h0.024c0.432-0.804,1.031-1.104,1.655-1.104c0.228,0,0.396,0.036,0.539,0.084v1.115
			c-0.107-0.036-0.335-0.084-0.6-0.084c-1.067,0-1.606,0.756-1.606,1.547v3.91h-1.14V675.516z"/>
	</g>
	<g>
		<path d="M696.051,672.613c2.759,0,4.307,2.075,4.307,4.726c0,2.59-1.5,4.749-4.295,4.749c-2.758,0-4.305-2.075-4.305-4.726
			C691.758,674.772,693.257,672.613,696.051,672.613z M696.062,681.032c2.063,0,3.059-1.727,3.059-3.682
			c0-1.919-0.959-3.682-3.07-3.682c-2.062,0-3.059,1.727-3.059,3.693C692.992,679.27,693.952,681.032,696.062,681.032z"/>
		<path d="M701.549,678.766c0-1.907,1.141-3.382,3.119-3.382c1.223,0,2.086,0.588,2.578,1.511l-0.947,0.54
			c-0.324-0.624-0.84-1.079-1.655-1.079c-1.259,0-1.942,1.055-1.942,2.387c0,1.295,0.659,2.374,2.015,2.374
			c0.852,0,1.367-0.432,1.679-1.043l0.9,0.516c-0.457,0.899-1.367,1.499-2.615,1.499
			C702.701,682.088,701.549,680.661,701.549,678.766z"/>
		<path d="M707.729,675.516h1.283v-2.039h1.14v2.039h1.547v0.947h-1.547v3.526c0,0.768,0.203,1.115,1.043,1.115
			c0.216,0,0.372-0.024,0.504-0.048v0.924c-0.252,0.06-0.539,0.107-0.899,0.107c-1.224,0-1.787-0.672-1.787-1.811v-3.814h-1.283
			V675.516z"/>
		<path d="M712.445,678.742c0-1.871,1.151-3.358,3.166-3.358c2.027,0,3.154,1.511,3.154,3.358c0,1.835-1.127,3.346-3.154,3.346
			C713.597,682.088,712.445,680.601,712.445,678.742z M713.597,678.742c0,1.271,0.671,2.374,2.003,2.374
			c1.331,0,2.015-1.104,2.015-2.374c0-1.283-0.684-2.387-2.015-2.387C714.268,676.355,713.597,677.459,713.597,678.742z"/>
		<path d="M721.36,680.961h-0.024l-0.048,0.995h-1.044v-9.211h1.141v3.79h0.023c0.527-0.756,1.283-1.151,2.183-1.151
			c1.8,0,2.843,1.499,2.843,3.334c0,1.787-1.08,3.37-2.914,3.37C722.584,682.088,721.84,681.681,721.36,680.961z M725.282,678.729
			c0-1.211-0.624-2.351-1.979-2.351s-1.955,1.176-1.955,2.387c0,1.26,0.637,2.327,1.943,2.327
			C724.574,681.093,725.282,680.049,725.282,678.729z"/>
		<path d="M733.143,681.045c-0.576,0.671-1.404,1.043-2.436,1.043c-2.026,0-3.178-1.331-3.178-3.358c0-1.942,1.151-3.346,3.01-3.346
			c1.848,0,2.843,1.379,2.843,3.143c0,0.191-0.012,0.491-0.036,0.659h-4.653c0.12,1.224,0.827,1.931,2.026,1.931
			c0.709,0,1.248-0.264,1.632-0.779L733.143,681.045z M732.254,678.238c-0.071-1.056-0.6-1.896-1.738-1.896
			c-1.127,0-1.727,0.815-1.835,1.896H732.254z"/>
		<path d="M734.812,675.516h1.104l0.023,0.972h0.024c0.433-0.804,1.032-1.104,1.655-1.104c0.229,0,0.396,0.036,0.539,0.084v1.115
			c-0.107-0.036-0.335-0.084-0.6-0.084c-1.066,0-1.606,0.756-1.606,1.547v3.91h-1.14V675.516z"/>
	</g>
	<g>
		<path d="M764.795,672.745v9.211h-1.056l-5.229-7.316h-0.023v7.316h-1.176v-9.211h1.235l5.05,7.088h0.023v-7.088H764.795z"/>
		<path d="M766.371,678.742c0-1.871,1.151-3.358,3.166-3.358c2.026,0,3.154,1.511,3.154,3.358c0,1.835-1.128,3.346-3.154,3.346
			C767.522,682.088,766.371,680.601,766.371,678.742z M767.522,678.742c0,1.271,0.671,2.374,2.003,2.374
			c1.331,0,2.015-1.104,2.015-2.374c0-1.283-0.684-2.387-2.015-2.387C768.193,676.355,767.522,677.459,767.522,678.742z"/>
		<path d="M779.567,675.516l-2.542,6.44h-1.212l-2.53-6.44h1.247l1.896,5.133h0.023l1.919-5.133H779.567z"/>
		<path d="M785.771,681.045c-0.576,0.671-1.403,1.043-2.435,1.043c-2.027,0-3.179-1.331-3.179-3.358
			c0-1.942,1.151-3.346,3.011-3.346c1.847,0,2.842,1.379,2.842,3.143c0,0.191-0.012,0.491-0.035,0.659h-4.654
			c0.12,1.224,0.828,1.931,2.027,1.931c0.708,0,1.247-0.264,1.631-0.779L785.771,681.045z M784.884,678.238
			c-0.072-1.056-0.6-1.896-1.739-1.896c-1.127,0-1.727,0.815-1.835,1.896H784.884z"/>
		<path d="M788.593,676.379c0.396-0.611,1.008-0.995,1.896-0.995c0.924,0,1.619,0.42,1.942,1.104
			c0.468-0.756,1.212-1.104,2.087-1.104c1.296,0,2.147,0.815,2.147,2.039v4.533h-1.14v-4.27c0-0.744-0.432-1.319-1.331-1.319
			c-0.96,0-1.571,0.647-1.571,1.535v4.054h-1.14v-4.27c0-0.744-0.443-1.319-1.319-1.319c-0.959,0-1.583,0.647-1.583,1.535v4.054
			h-1.14v-6.44h1.104l0.024,0.863H788.593z"/>
		<path d="M799.657,680.961h-0.023l-0.049,0.995h-1.043v-9.211h1.14v3.79h0.023c0.528-0.756,1.283-1.151,2.183-1.151
			c1.8,0,2.843,1.499,2.843,3.334c0,1.787-1.079,3.37-2.914,3.37C800.881,682.088,800.137,681.681,799.657,680.961z
			 M803.579,678.729c0-1.211-0.624-2.351-1.979-2.351c-1.355,0-1.955,1.176-1.955,2.387c0,1.26,0.636,2.327,1.942,2.327
			C802.871,681.093,803.579,680.049,803.579,678.729z"/>
		<path d="M811.439,681.045c-0.576,0.671-1.403,1.043-2.435,1.043c-2.027,0-3.179-1.331-3.179-3.358
			c0-1.942,1.151-3.346,3.011-3.346c1.847,0,2.842,1.379,2.842,3.143c0,0.191-0.012,0.491-0.035,0.659h-4.654
			c0.12,1.224,0.828,1.931,2.027,1.931c0.708,0,1.247-0.264,1.631-0.779L811.439,681.045z M810.552,678.238
			c-0.072-1.056-0.6-1.896-1.739-1.896c-1.127,0-1.727,0.815-1.835,1.896H810.552z"/>
		<path d="M813.109,675.516h1.104l0.024,0.972h0.023c0.433-0.804,1.032-1.104,1.655-1.104c0.229,0,0.396,0.036,0.54,0.084v1.115
			c-0.108-0.036-0.336-0.084-0.6-0.084c-1.067,0-1.607,0.756-1.607,1.547v3.91h-1.14V675.516z"/>
	</g>
	<g>
		<path d="M829.404,672.745h3.094c3.107,0,4.643,2.075,4.643,4.605c0,2.759-1.775,4.605-4.534,4.605h-3.202V672.745z M832.535,680.9
			c2.002,0,3.369-1.163,3.369-3.538c0-2.482-1.535-3.562-3.478-3.562h-1.812v7.1H832.535z"/>
		<path d="M843.825,681.045c-0.575,0.671-1.403,1.043-2.435,1.043c-2.027,0-3.178-1.331-3.178-3.358c0-1.942,1.15-3.346,3.01-3.346
			c1.848,0,2.842,1.379,2.842,3.143c0,0.191-0.012,0.491-0.035,0.659h-4.654c0.121,1.224,0.828,1.931,2.027,1.931
			c0.708,0,1.248-0.264,1.631-0.779L843.825,681.045z M842.938,678.238c-0.072-1.056-0.6-1.896-1.738-1.896
			c-1.128,0-1.728,0.815-1.836,1.896H842.938z"/>
		<path d="M845.088,678.766c0-1.907,1.14-3.382,3.119-3.382c1.223,0,2.086,0.588,2.578,1.511l-0.947,0.54
			c-0.324-0.624-0.84-1.079-1.656-1.079c-1.259,0-1.942,1.055-1.942,2.387c0,1.295,0.659,2.374,2.015,2.374
			c0.852,0,1.367-0.432,1.68-1.043l0.899,0.516c-0.456,0.899-1.367,1.499-2.614,1.499
			C846.239,682.088,845.088,680.661,845.088,678.766z"/>
		<path d="M857.133,681.045c-0.576,0.671-1.403,1.043-2.435,1.043c-2.026,0-3.179-1.331-3.179-3.358
			c0-1.942,1.152-3.346,3.011-3.346c1.847,0,2.843,1.379,2.843,3.143c0,0.191-0.012,0.491-0.036,0.659h-4.653
			c0.119,1.224,0.827,1.931,2.026,1.931c0.708,0,1.247-0.264,1.632-0.779L857.133,681.045z M856.245,678.238
			c-0.071-1.056-0.6-1.896-1.739-1.896c-1.127,0-1.727,0.815-1.834,1.896H856.245z"/>
		<path d="M859.955,676.379c0.396-0.611,1.008-0.995,1.895-0.995c0.924,0,1.619,0.42,1.943,1.104
			c0.467-0.756,1.211-1.104,2.086-1.104c1.296,0,2.147,0.815,2.147,2.039v4.533h-1.14v-4.27c0-0.744-0.432-1.319-1.331-1.319
			c-0.96,0-1.571,0.647-1.571,1.535v4.054h-1.139v-4.27c0-0.744-0.444-1.319-1.32-1.319c-0.959,0-1.582,0.647-1.582,1.535v4.054
			h-1.141v-6.44h1.104l0.024,0.863H859.955z"/>
		<path d="M871.02,680.961h-0.024l-0.048,0.995h-1.044v-9.211h1.14v3.79h0.023c0.528-0.756,1.283-1.151,2.184-1.151
			c1.799,0,2.842,1.499,2.842,3.334c0,1.787-1.079,3.37-2.914,3.37C872.242,682.088,871.498,681.681,871.02,680.961z
			 M874.941,678.729c0-1.211-0.625-2.351-1.979-2.351c-1.355,0-1.955,1.176-1.955,2.387c0,1.26,0.636,2.327,1.942,2.327
			C874.233,681.093,874.941,680.049,874.941,678.729z"/>
		<path d="M882.801,681.045c-0.576,0.671-1.403,1.043-2.435,1.043c-2.026,0-3.179-1.331-3.179-3.358
			c0-1.942,1.152-3.346,3.011-3.346c1.847,0,2.843,1.379,2.843,3.143c0,0.191-0.012,0.491-0.036,0.659h-4.653
			c0.119,1.224,0.827,1.931,2.026,1.931c0.708,0,1.247-0.264,1.632-0.779L882.801,681.045z M881.913,678.238
			c-0.071-1.056-0.6-1.896-1.739-1.896c-1.127,0-1.727,0.815-1.834,1.896H881.913z"/>
		<path d="M884.471,675.516h1.104l0.024,0.972h0.024c0.432-0.804,1.031-1.104,1.654-1.104c0.229,0,0.396,0.036,0.54,0.084v1.115
			c-0.108-0.036-0.335-0.084-0.6-0.084c-1.067,0-1.606,0.756-1.606,1.547v3.91h-1.141V675.516z"/>
	</g>
</g>
<g id="temp_Graph_line">
	<path class="st12" d="M857.5,481.5c-32.126,1.397-89.127-21.106-133.534-49.798c-24.652-15.928-45.014-37.392-61.47-61.695
		C458,68,346.399,478.886,68.5,481.5v57c0,0,139.723-14.668,246-95C421,363,404.042,296.138,513,292c79-3,109.55,95.031,163.5,157.5
		c38,44,135,91,181,89"/>
	<path class="st13" d="M68.5,538.5c0,0,139.723-14.668,246-95C421,363,404.042,296.138,513,292c79-3,109.55,95.031,163.5,157.5
		c38,44,135,91,181,89"/>
	<path class="st15" d="M68.5,481.5C346.399,478.886,458,68,662.496,370.006c16.456,24.303,36.818,45.767,61.47,61.695
		c44.408,28.692,101.408,51.195,133.534,49.798"/>
</g>
</svg>
