<?xml version="1.0" encoding="utf-8"?>
<!-- Generator: Adobe Illustrator 25.2.3, SVG Export Plug-In . SVG Version: 6.00 Build 0)  -->
<svg version="1.1" xmlns="http://www.w3.org/2000/svg" xmlns:xlink="http://www.w3.org/1999/xlink" x="0px" y="0px"
	 viewBox="0 0 1024 768" style="enable-background:new 0 0 1024 768;" xml:space="preserve">
<style type="text/css">
	.st0{fill:#FFFFFF;}
	.st1{fill:#C9C9C9;}
	.st2{fill:#F9F9B7;}
	.st3{fill:#D0C3D8;}
	.st4{fill:#C2CEC3;}
	.st5{fill:#AF8FC6;}
	.st6{fill:#9FC9A1;}
	.st7{opacity:0.5;fill:#FFFFFF;}
	.st8{fill:none;stroke:#666666;stroke-miterlimit:10;}
	.st9{fill:none;stroke:#666666;stroke-miterlimit:10;stroke-dasharray:6,6;}
	.st10{opacity:0.5;fill:#B5E9EA;stroke:#CCCCCC;stroke-miterlimit:10;}
	.st11{fill:#FFFFFF;stroke:#686868;stroke-width:0.5;stroke-miterlimit:10;}
	.st12{opacity:0.5;fill:#C9C9C9;}
	.st13{fill:none;stroke:#8EC5E8;stroke-width:4;stroke-miterlimit:10;}
	.st14{fill:none;stroke:#D34F4F;stroke-width:4;stroke-miterlimit:10;}
	.st15{fill:none;stroke:#AF4646;stroke-width:4;stroke-miterlimit:10;}
	.st16{fill:none;stroke:#2B2B2B;stroke-width:6;stroke-miterlimit:10;}
	.st17{opacity:0.1;fill:#E5D00E;}
	.st18{opacity:0.1;fill:#13B8EA;}
	.st19{opacity:0.11;}
</style>
<g id="rect">
</g>
<g id="Labels">
	<g>
		<path d="M21.473,386.577h-8.155v3.19h-1.056v-7.592h1.056v3.189h8.155V386.577z"/>
		<path d="M20.561,377.314c0.672,0.576,1.044,1.403,1.044,2.435c0,2.027-1.331,3.178-3.358,3.178c-1.942,0-3.346-1.151-3.346-3.01
			c0-1.847,1.379-2.842,3.142-2.842c0.192,0,0.492,0.012,0.66,0.036v4.654c1.223-0.12,1.931-0.828,1.931-2.027
			c0-0.708-0.264-1.248-0.779-1.631L20.561,377.314z M17.755,378.202c-1.056,0.072-1.896,0.6-1.896,1.739
			c0,1.127,0.815,1.727,1.896,1.835V378.202z"/>
		<path d="M15.896,374.493c-0.611-0.396-0.995-1.008-0.995-1.895c0-0.924,0.419-1.619,1.104-1.943
			c-0.756-0.468-1.104-1.211-1.104-2.087c0-1.295,0.815-2.147,2.038-2.147h4.534v1.139h-4.27c-0.744,0-1.319,0.432-1.319,1.332
			c0,0.959,0.647,1.571,1.535,1.571h4.054v1.139h-4.27c-0.744,0-1.319,0.444-1.319,1.319c0,0.959,0.647,1.583,1.535,1.583h4.054
			v1.14h-6.44v-1.104l0.863-0.024V374.493z"/>
		<path d="M20.537,363.38v0.024h3.13v1.14h-8.635v-1.104l1.02-0.024v-0.024c-0.732-0.492-1.151-1.284-1.151-2.183
			c0-1.787,1.451-2.854,3.322-2.854c1.847,0,3.382,1.104,3.382,2.902C21.604,362.181,21.232,362.889,20.537,363.38z M18.246,359.506
			c-1.211,0-2.351,0.612-2.351,1.979c0,1.283,1.104,1.955,2.387,1.955c1.319,0,2.327-0.696,2.327-1.943
			C20.609,360.19,19.529,359.506,18.246,359.506z"/>
		<path d="M20.633,357.439l-0.779-0.696c0.539-0.563,0.791-1.271,0.791-2.039c0-1.019-0.371-1.511-0.923-1.511
			c-0.612,0-0.756,0.647-0.983,1.727c-0.265,1.211-0.636,2.291-1.884,2.291c-1.103,0-1.954-0.864-1.954-2.542
			c0-1.032,0.312-1.835,0.923-2.507l0.78,0.684c-0.504,0.552-0.744,1.164-0.744,1.859c0,0.9,0.384,1.355,0.876,1.355
			c0.6,0,0.731-0.576,0.971-1.691c0.265-1.188,0.601-2.327,1.884-2.327c1.175,0,2.015,0.935,2.015,2.698
			C21.604,355.88,21.269,356.768,20.633,357.439z"/>
		<path d="M20.153,350.54v-1.319h1.319v1.319H20.153z"/>
	</g>
	<g>
		<path d="M77.926,127.712c-0.1-0.1-0.15-0.226-0.15-0.379v-13.524h-4.416c-0.152,0-0.279-0.049-0.379-0.149
			c-0.1-0.1-0.149-0.226-0.149-0.379v-0.966c0-0.153,0.05-0.284,0.149-0.391c0.1-0.107,0.227-0.161,0.379-0.161h11.086
			c0.169,0,0.303,0.05,0.402,0.149c0.1,0.1,0.15,0.234,0.15,0.403v0.966c0,0.153-0.055,0.28-0.161,0.379
			c-0.107,0.1-0.237,0.149-0.392,0.149h-4.393v13.524c0,0.153-0.054,0.28-0.16,0.379c-0.108,0.1-0.238,0.149-0.392,0.149h-1.196
			C78.151,127.861,78.025,127.812,77.926,127.712z"/>
		<path d="M86.067,126.631c-0.943-0.974-1.46-2.304-1.553-3.991l-0.022-0.782l0.022-0.759c0.107-1.656,0.633-2.974,1.575-3.956
			c0.943-0.981,2.189-1.472,3.738-1.472c1.701,0,3.02,0.541,3.955,1.622s1.403,2.542,1.403,4.381v0.391
			c0,0.153-0.05,0.28-0.149,0.379c-0.1,0.1-0.227,0.149-0.379,0.149h-7.959v0.207c0.047,0.997,0.35,1.844,0.909,2.542
			c0.56,0.698,1.3,1.046,2.22,1.046c0.705,0,1.283-0.142,1.736-0.425c0.451-0.284,0.785-0.579,1-0.886
			c0.139-0.184,0.242-0.295,0.311-0.333c0.069-0.038,0.195-0.057,0.38-0.057h1.127c0.138,0,0.253,0.038,0.345,0.115
			c0.092,0.077,0.139,0.184,0.139,0.322c0,0.337-0.211,0.744-0.633,1.219c-0.422,0.476-1.012,0.886-1.771,1.23
			c-0.759,0.345-1.629,0.518-2.61,0.518C88.271,128.091,87.01,127.604,86.067,126.631z M93.002,121.007v-0.069
			c0-1.058-0.287-1.92-0.863-2.588c-0.574-0.667-1.345-1-2.311-1c-0.967,0-1.729,0.333-2.289,1c-0.56,0.667-0.84,1.53-0.84,2.588
			v0.069H93.002z"/>
		<path d="M98.096,127.712c-0.1-0.1-0.148-0.226-0.148-0.379V116.43c0-0.153,0.049-0.279,0.148-0.379
			c0.1-0.1,0.227-0.149,0.38-0.149h1.035c0.153,0,0.279,0.05,0.38,0.149c0.1,0.1,0.148,0.227,0.148,0.379v0.805
			c0.798-1.042,1.91-1.564,3.336-1.564c1.701,0,2.905,0.706,3.611,2.116c0.367-0.644,0.889-1.157,1.563-1.541
			c0.675-0.383,1.434-0.575,2.276-0.575c1.258,0,2.285,0.429,3.082,1.288s1.196,2.101,1.196,3.726v6.647
			c0,0.153-0.05,0.28-0.149,0.379s-0.227,0.149-0.379,0.149h-1.082c-0.152,0-0.279-0.05-0.379-0.149s-0.149-0.226-0.149-0.379v-6.44
			c0-1.196-0.249-2.054-0.747-2.576c-0.499-0.521-1.154-0.782-1.967-0.782c-0.721,0-1.342,0.265-1.863,0.793
			c-0.521,0.529-0.782,1.384-0.782,2.564v6.44c0,0.153-0.05,0.28-0.149,0.379s-0.227,0.149-0.379,0.149h-1.082
			c-0.152,0-0.279-0.05-0.379-0.149s-0.149-0.226-0.149-0.379v-6.44c0-1.196-0.257-2.054-0.771-2.576
			c-0.514-0.521-1.162-0.782-1.943-0.782c-0.721,0-1.342,0.265-1.863,0.793c-0.521,0.529-0.782,1.376-0.782,2.542v6.463
			c0,0.153-0.05,0.28-0.149,0.379s-0.227,0.149-0.379,0.149h-1.104C98.322,127.861,98.195,127.812,98.096,127.712z"/>
		<path d="M118.566,132.082c-0.101-0.1-0.15-0.227-0.15-0.38V116.43c0-0.153,0.05-0.279,0.15-0.379c0.1-0.1,0.226-0.149,0.379-0.149
			h1.059c0.152,0,0.279,0.05,0.379,0.149c0.1,0.1,0.149,0.227,0.149,0.379v1.012c0.858-1.181,2.116-1.771,3.772-1.771
			c1.609,0,2.817,0.506,3.622,1.518c0.806,1.012,1.238,2.315,1.3,3.91c0.016,0.169,0.023,0.43,0.023,0.782
			c0,0.353-0.008,0.613-0.023,0.782c-0.062,1.58-0.498,2.879-1.311,3.899c-0.813,1.02-2.018,1.529-3.611,1.529
			c-1.596,0-2.838-0.575-3.727-1.725v5.336c0,0.153-0.046,0.28-0.138,0.38c-0.092,0.099-0.215,0.149-0.368,0.149h-1.127
			C118.792,132.231,118.666,132.181,118.566,132.082z M126.202,125.216c0.498-0.674,0.771-1.564,0.816-2.668
			c0.015-0.153,0.022-0.375,0.022-0.667c0-2.898-1.073-4.347-3.22-4.347c-1.058,0-1.852,0.349-2.38,1.047
			c-0.529,0.698-0.816,1.529-0.863,2.495l-0.023,0.874l0.023,0.897c0.031,0.905,0.322,1.695,0.875,2.369
			c0.551,0.675,1.341,1.012,2.368,1.012C124.91,126.229,125.703,125.891,126.202,125.216z"/>
		<path d="M133.102,126.631c-0.943-0.974-1.46-2.304-1.553-3.991l-0.022-0.782l0.022-0.759c0.107-1.656,0.633-2.974,1.576-3.956
			s2.188-1.472,3.737-1.472c1.702,0,3.021,0.541,3.956,1.622s1.402,2.542,1.402,4.381v0.391c0,0.153-0.049,0.28-0.148,0.379
			c-0.1,0.1-0.227,0.149-0.38,0.149h-7.958v0.207c0.046,0.997,0.349,1.844,0.908,2.542c0.561,0.698,1.3,1.046,2.22,1.046
			c0.705,0,1.284-0.142,1.737-0.425c0.451-0.284,0.785-0.579,1-0.886c0.138-0.184,0.241-0.295,0.311-0.333
			c0.068-0.038,0.195-0.057,0.379-0.057h1.127c0.139,0,0.254,0.038,0.346,0.115c0.092,0.077,0.138,0.184,0.138,0.322
			c0,0.337-0.211,0.744-0.632,1.219c-0.422,0.476-1.013,0.886-1.771,1.23c-0.76,0.345-1.629,0.518-2.611,0.518
			C135.307,128.091,134.045,127.604,133.102,126.631z M140.037,121.007v-0.069c0-1.058-0.288-1.92-0.863-2.588
			c-0.574-0.667-1.346-1-2.312-1s-1.729,0.333-2.288,1c-0.561,0.667-0.84,1.53-0.84,2.588v0.069H140.037z"/>
		<path d="M145.131,127.712c-0.1-0.1-0.149-0.226-0.149-0.379v-10.879c0-0.153,0.05-0.283,0.149-0.391s0.227-0.161,0.379-0.161
			h1.059c0.152,0,0.283,0.054,0.391,0.161s0.161,0.238,0.161,0.391v1.012c0.629-1.042,1.702-1.564,3.22-1.564h0.897
			c0.153,0,0.28,0.05,0.38,0.149c0.1,0.1,0.148,0.227,0.148,0.379v0.943c0,0.153-0.049,0.276-0.148,0.368
			c-0.1,0.092-0.227,0.138-0.38,0.138h-1.38c-0.828,0-1.48,0.241-1.955,0.725c-0.476,0.483-0.713,1.138-0.713,1.966v6.762
			c0,0.153-0.055,0.28-0.161,0.379c-0.107,0.1-0.237,0.149-0.392,0.149h-1.127C145.357,127.861,145.23,127.812,145.131,127.712z"/>
		<path d="M154.779,127.631c-0.645-0.307-1.154-0.725-1.529-1.253c-0.376-0.529-0.563-1.116-0.563-1.76
			c0-1.012,0.417-1.843,1.253-2.495s1.967-1.077,3.393-1.277l3.428-0.483v-0.667c0-1.564-0.897-2.346-2.691-2.346
			c-0.675,0-1.227,0.142-1.656,0.426s-0.751,0.617-0.966,1c-0.046,0.138-0.104,0.238-0.173,0.299
			c-0.068,0.062-0.164,0.092-0.287,0.092h-0.988c-0.139,0-0.258-0.05-0.357-0.149s-0.149-0.219-0.149-0.357
			c0.015-0.368,0.188-0.785,0.518-1.253c0.329-0.467,0.84-0.874,1.53-1.219c0.689-0.345,1.541-0.518,2.553-0.518
			c1.717,0,2.951,0.402,3.703,1.208c0.75,0.805,1.127,1.806,1.127,3.001v7.452c0,0.153-0.051,0.28-0.15,0.379
			s-0.227,0.149-0.379,0.149h-1.059c-0.152,0-0.279-0.05-0.379-0.149s-0.149-0.226-0.149-0.379v-0.989
			c-0.338,0.491-0.828,0.905-1.472,1.242c-0.645,0.337-1.465,0.506-2.461,0.506C156.121,128.091,155.424,127.938,154.779,127.631z
			 M159.805,125.389c0.637-0.651,0.955-1.59,0.955-2.817v-0.644l-2.668,0.391c-1.09,0.153-1.909,0.41-2.461,0.771
			c-0.553,0.36-0.828,0.816-0.828,1.369c0,0.613,0.253,1.085,0.759,1.415s1.104,0.494,1.794,0.494
			C158.352,126.366,159.168,126.041,159.805,125.389z"/>
		<path d="M167.153,123.813v-6.072h-1.794c-0.153,0-0.279-0.049-0.379-0.149c-0.101-0.1-0.15-0.226-0.15-0.379v-0.782
			c0-0.153,0.05-0.279,0.15-0.379c0.1-0.1,0.226-0.149,0.379-0.149h1.794v-3.841c0-0.153,0.05-0.28,0.149-0.38
			c0.1-0.1,0.227-0.149,0.38-0.149h1.081c0.152,0,0.279,0.05,0.379,0.149c0.1,0.1,0.15,0.227,0.15,0.38v3.841h2.852
			c0.152,0,0.279,0.05,0.379,0.149c0.1,0.1,0.15,0.227,0.15,0.379v0.782c0,0.153-0.051,0.28-0.15,0.379
			c-0.1,0.1-0.227,0.149-0.379,0.149h-2.852v5.911c0,0.767,0.129,1.346,0.391,1.736c0.26,0.391,0.689,0.586,1.288,0.586h1.403
			c0.152,0,0.279,0.05,0.379,0.15s0.149,0.226,0.149,0.379v0.828c0,0.153-0.05,0.28-0.149,0.379s-0.227,0.149-0.379,0.149h-1.588
			C168.365,127.861,167.153,126.512,167.153,123.813z"/>
		<path d="M176.192,126.677c-0.798-0.943-1.196-2.196-1.196-3.76v-6.486c0-0.153,0.05-0.279,0.149-0.379
			c0.1-0.1,0.226-0.149,0.38-0.149h1.15c0.152,0,0.279,0.05,0.379,0.149c0.1,0.1,0.149,0.227,0.149,0.379v6.371
			c0,2.285,0.997,3.427,2.99,3.427c0.966,0,1.732-0.303,2.3-0.909c0.566-0.605,0.852-1.445,0.852-2.519v-6.371
			c0-0.153,0.049-0.279,0.148-0.379c0.1-0.1,0.227-0.149,0.38-0.149h1.15c0.153,0,0.276,0.05,0.368,0.149
			c0.092,0.1,0.138,0.227,0.138,0.379v10.902c0,0.153-0.046,0.28-0.138,0.379s-0.215,0.149-0.368,0.149h-1.081
			c-0.154,0-0.28-0.05-0.38-0.149s-0.149-0.226-0.149-0.379v-1.012c-0.43,0.583-0.951,1.023-1.564,1.323
			c-0.613,0.299-1.372,0.448-2.276,0.448C178.116,128.091,176.989,127.62,176.192,126.677z"/>
		<path d="M189.106,127.712c-0.101-0.1-0.149-0.226-0.149-0.379v-10.879c0-0.153,0.049-0.283,0.149-0.391
			c0.1-0.107,0.226-0.161,0.38-0.161h1.058c0.153,0,0.284,0.054,0.392,0.161c0.106,0.107,0.16,0.238,0.16,0.391v1.012
			c0.629-1.042,1.702-1.564,3.221-1.564h0.896c0.153,0,0.279,0.05,0.379,0.149c0.1,0.1,0.15,0.227,0.15,0.379v0.943
			c0,0.153-0.051,0.276-0.15,0.368c-0.1,0.092-0.226,0.138-0.379,0.138h-1.38c-0.828,0-1.479,0.241-1.955,0.725
			c-0.476,0.483-0.713,1.138-0.713,1.966v6.762c0,0.153-0.054,0.28-0.161,0.379s-0.238,0.149-0.391,0.149h-1.127
			C189.332,127.861,189.206,127.812,189.106,127.712z"/>
		<path d="M198.467,126.631c-0.943-0.974-1.46-2.304-1.553-3.991l-0.022-0.782l0.022-0.759c0.107-1.656,0.633-2.974,1.576-3.956
			s2.188-1.472,3.737-1.472c1.702,0,3.021,0.541,3.956,1.622s1.402,2.542,1.402,4.381v0.391c0,0.153-0.049,0.28-0.148,0.379
			c-0.1,0.1-0.227,0.149-0.38,0.149H199.1v0.207c0.046,0.997,0.349,1.844,0.908,2.542c0.561,0.698,1.3,1.046,2.22,1.046
			c0.705,0,1.284-0.142,1.737-0.425c0.451-0.284,0.785-0.579,1-0.886c0.138-0.184,0.241-0.295,0.311-0.333
			c0.068-0.038,0.195-0.057,0.379-0.057h1.127c0.139,0,0.254,0.038,0.346,0.115c0.092,0.077,0.138,0.184,0.138,0.322
			c0,0.337-0.211,0.744-0.632,1.219c-0.422,0.476-1.013,0.886-1.771,1.23c-0.76,0.345-1.629,0.518-2.611,0.518
			C200.672,128.091,199.41,127.604,198.467,126.631z M205.402,121.007v-0.069c0-1.058-0.288-1.92-0.863-2.588
			c-0.574-0.667-1.346-1-2.312-1s-1.729,0.333-2.288,1c-0.561,0.667-0.84,1.53-0.84,2.588v0.069H205.402z"/>
	</g>
	<g>
		<path d="M38.366,632.781h3.224v-9.453c-0.99,0.595-2.107,0.954-3.224,1.242v-1.566c1.495-0.45,2.755-1.044,3.781-1.872h1.225
			v11.649h3.205v1.566h-8.211V632.781z"/>
		<path d="M48.752,627.758c0-3.476,0.864-6.824,4.771-6.824c3.889,0,4.771,3.295,4.771,6.788c0,3.475-0.864,6.824-4.771,6.824
			C49.635,634.546,48.752,631.251,48.752,627.758z M56.512,627.739c0-2.574-0.27-5.275-2.988-5.275s-2.989,2.701-2.989,5.275
			c0,2.575,0.271,5.276,2.989,5.276S56.512,630.314,56.512,627.739z"/>
	</g>
	<g>
		<path d="M32.715,208.781h3.223v-9.453c-0.99,0.595-2.106,0.954-3.223,1.242v-1.566c1.494-0.45,2.754-1.044,3.781-1.872h1.225
			v11.649h3.204v1.566h-8.21V208.781z"/>
		<path d="M43.1,203.758c0-3.476,0.865-6.824,4.771-6.824c3.89,0,4.771,3.295,4.771,6.788c0,3.475-0.863,6.824-4.771,6.824
			C43.982,210.546,43.1,207.251,43.1,203.758z M50.86,203.739c0-2.574-0.271-5.275-2.989-5.275s-2.988,2.701-2.988,5.275
			c0,2.575,0.27,5.276,2.988,5.276S50.86,206.314,50.86,203.739z"/>
		<path d="M54.404,203.758c0-3.476,0.863-6.824,4.771-6.824c3.889,0,4.771,3.295,4.771,6.788c0,3.475-0.865,6.824-4.771,6.824
			C55.286,210.546,54.404,207.251,54.404,203.758z M62.164,203.739c0-2.574-0.27-5.275-2.988-5.275s-2.989,2.701-2.989,5.275
			c0,2.575,0.271,5.276,2.989,5.276S62.164,206.314,62.164,203.739z"/>
	</g>
	<g>
		<path d="M38.871,255.586c0.611,0.343,1.332,0.541,2.143,0.541c2.862,0,4.033-2.396,4.195-5.438h-0.037
			c-0.773,1.098-2.105,1.674-3.564,1.674c-2.412,0-4.159-1.62-4.159-4.087c0-2.503,1.8-4.231,4.591-4.231
			c3.746,0,4.861,3.133,4.861,6.248c0,3.493-1.404,7.364-5.869,7.364c-1.098,0-2.035-0.234-2.791-0.595L38.871,255.586z
			 M44.866,248.456c0-1.314-0.899-2.898-2.935-2.898c-1.675,0-2.736,1.044-2.736,2.646c0,1.53,0.99,2.665,2.754,2.665
			C43.281,250.869,44.866,250.221,44.866,248.456z"/>
		<path d="M48.752,250.869c0-3.476,0.864-6.824,4.771-6.824c3.889,0,4.771,3.295,4.771,6.788c0,3.475-0.864,6.824-4.771,6.824
			C49.635,257.657,48.752,254.362,48.752,250.869z M56.512,250.851c0-2.574-0.27-5.275-2.988-5.275s-2.989,2.701-2.989,5.275
			c0,2.575,0.271,5.276,2.989,5.276S56.512,253.426,56.512,250.851z"/>
	</g>
	<g>
		<path d="M37.43,301.023c0-1.53,0.865-2.611,2.449-3.223v-0.036c-1.351-0.559-2.16-1.639-2.16-3.043
			c0-2.089,1.782-3.565,4.482-3.565c2.737,0,4.502,1.477,4.502,3.565c0,1.404-0.828,2.448-2.16,2.971v0.036
			c1.566,0.63,2.448,1.765,2.448,3.295c0,2.215-1.872,3.745-4.79,3.745C39.285,304.768,37.43,303.238,37.43,301.023z
			 M39.213,300.951c0,1.332,1.08,2.305,2.988,2.305c1.927,0,3.008-0.973,3.008-2.305c0-1.422-1.242-2.431-3.008-2.431
			C40.438,298.52,39.213,299.529,39.213,300.951z M44.92,294.829c0-1.242-0.99-2.16-2.719-2.16s-2.7,0.918-2.7,2.16
			c0,1.278,1.134,2.233,2.7,2.233C43.786,297.062,44.92,296.107,44.92,294.829z"/>
		<path d="M48.752,297.98c0-3.476,0.864-6.824,4.771-6.824c3.889,0,4.771,3.295,4.771,6.788c0,3.475-0.864,6.824-4.771,6.824
			C49.635,304.768,48.752,301.473,48.752,297.98z M56.512,297.961c0-2.574-0.27-5.275-2.988-5.275s-2.989,2.701-2.989,5.275
			c0,2.575,0.271,5.276,2.989,5.276S56.512,300.537,56.512,297.961z"/>
	</g>
	<g>
		<path d="M44.758,340.032h-7.076v-1.566h8.967v1.314l-5.041,11.901h-1.873L44.758,340.032z"/>
		<path d="M48.752,345.091c0-3.476,0.864-6.824,4.771-6.824c3.889,0,4.771,3.295,4.771,6.788c0,3.475-0.864,6.824-4.771,6.824
			C49.635,351.879,48.752,348.584,48.752,345.091z M56.512,345.073c0-2.574-0.27-5.275-2.988-5.275s-2.989,2.701-2.989,5.275
			c0,2.575,0.271,5.276,2.989,5.276S56.512,347.648,56.512,345.073z"/>
	</g>
	<g>
		<path d="M45.785,387.484c-0.666-0.396-1.477-0.576-2.287-0.576c-2.773,0-3.997,2.179-4.195,5.186h0.036
			c0.792-1.062,2.196-1.584,3.583-1.584c2.611,0,4.268,1.8,4.268,4.195c0,2.521-1.818,4.285-4.699,4.285
			c-3.764,0-4.934-3.043-4.934-6.248c0-3.655,1.53-7.364,5.978-7.364c1.152,0,2.106,0.252,2.898,0.666L45.785,387.484z
			 M45.425,394.759c0-1.53-0.973-2.755-2.881-2.755c-1.549,0-2.989,0.828-2.989,2.484c0,1.243,0.811,2.989,3.025,2.989
			C44.381,397.478,45.425,396.343,45.425,394.759z"/>
		<path d="M48.752,392.202c0-3.476,0.864-6.824,4.771-6.824c3.889,0,4.771,3.295,4.771,6.788c0,3.475-0.864,6.824-4.771,6.824
			C49.635,398.99,48.752,395.695,48.752,392.202z M56.512,392.184c0-2.574-0.27-5.275-2.988-5.275s-2.989,2.701-2.989,5.275
			c0,2.575,0.271,5.276,2.989,5.276S56.512,394.759,56.512,392.184z"/>
	</g>
	<g>
		<path d="M40.203,437.981c0.504-0.217,1.116-0.36,1.926-0.36c2.684,0,4.609,1.639,4.609,4.213c0,2.521-1.872,4.268-4.861,4.268
			c-1.98,0-3.438-0.774-4.248-1.818l1.26-1.135c0.702,0.918,1.656,1.423,3.025,1.423c1.908,0,3.043-1.045,3.043-2.701
			c0-1.62-1.189-2.736-3.151-2.736c-0.919,0-1.566,0.252-2.125,0.576H38.33l0.559-7.022h7.094v1.566h-5.491L40.203,437.981z"/>
		<path d="M48.752,439.313c0-3.476,0.864-6.824,4.771-6.824c3.889,0,4.771,3.295,4.771,6.788c0,3.475-0.864,6.824-4.771,6.824
			C49.635,446.102,48.752,442.807,48.752,439.313z M56.512,439.295c0-2.574-0.27-5.275-2.988-5.275s-2.989,2.701-2.989,5.275
			c0,2.575,0.271,5.276,2.989,5.276S56.512,441.87,56.512,439.295z"/>
	</g>
	<g>
		<path d="M47.657,489.989h-2.413v3.025H43.48v-3.025h-6.662v-1.313l6.193-8.877h2.232v8.679h2.413V489.989z M43.48,488.478v-6.716
			h-0.037l-4.699,6.716H43.48z"/>
		<path d="M48.752,486.425c0-3.476,0.864-6.824,4.771-6.824c3.889,0,4.771,3.295,4.771,6.788c0,3.475-0.864,6.824-4.771,6.824
			C49.635,493.213,48.752,489.918,48.752,486.425z M56.512,486.406c0-2.574-0.27-5.275-2.988-5.275s-2.989,2.701-2.989,5.275
			c0,2.575,0.271,5.276,2.989,5.276S56.512,488.981,56.512,486.406z"/>
	</g>
	<g>
		<path d="M37.448,538.217l1.351-0.955c0.63,0.99,1.584,1.531,3.043,1.531c1.908,0,3.007-0.937,3.007-2.341
			c0-1.387-1.152-2.341-2.972-2.341H40.6v-1.513h1.277c1.639,0,2.701-0.9,2.701-2.179c0-1.296-1.008-2.179-2.736-2.179
			c-1.351,0-2.232,0.522-2.773,1.404l-1.314-0.936c0.685-1.116,2.143-1.999,4.142-1.999c2.737,0,4.466,1.513,4.466,3.602
			c0,1.404-0.793,2.431-2.125,2.935v0.036c1.566,0.558,2.395,1.692,2.395,3.223c0,2.215-1.818,3.817-4.771,3.817
			C39.717,540.323,38.15,539.423,37.448,538.217z"/>
		<path d="M48.752,533.535c0-3.476,0.864-6.824,4.771-6.824c3.889,0,4.771,3.295,4.771,6.788c0,3.475-0.864,6.824-4.771,6.824
			C49.635,540.323,48.752,537.028,48.752,533.535z M56.512,533.517c0-2.574-0.27-5.275-2.988-5.275s-2.989,2.701-2.989,5.275
			c0,2.575,0.271,5.276,2.989,5.276S56.512,536.092,56.512,533.517z"/>
	</g>
	<g>
		<path d="M37.809,585.958l4.609-4.609c1.296-1.278,2.125-2.431,2.125-3.709c0-1.333-0.883-2.251-2.575-2.251
			c-1.351,0-2.179,0.576-2.917,1.603l-1.278-0.99c0.972-1.351,2.341-2.179,4.321-2.179c2.664,0,4.23,1.494,4.23,3.691
			c0,1.422-0.666,2.826-2.105,4.267l-3.871,3.854v0.036h6.247v1.566h-8.786V585.958z"/>
		<path d="M48.752,580.646c0-3.476,0.864-6.824,4.771-6.824c3.889,0,4.771,3.295,4.771,6.788c0,3.475-0.864,6.824-4.771,6.824
			C49.635,587.435,48.752,584.14,48.752,580.646z M56.512,580.628c0-2.574-0.27-5.275-2.988-5.275s-2.989,2.701-2.989,5.275
			c0,2.575,0.271,5.276,2.989,5.276S56.512,583.203,56.512,580.628z"/>
	</g>
</g>
<g id="Sunshine">
</g>
<g id="Dewpoint">
	<rect x="284" y="256" class="st7" width="358" height="271"/>
	<rect x="68" y="349" class="st7" width="216" height="216"/>
	<rect x="642" y="349" class="st7" width="216" height="216"/>
	<g>
		<g>
			<line class="st8" x1="858" y1="565.5" x2="855" y2="565.5"/>
			<line class="st9" x1="849" y1="565.5" x2="48" y2="565.5"/>
			<line class="st8" x1="45" y1="565.5" x2="42" y2="565.5"/>
		</g>
	</g>
</g>
<g id="Month_Lines">
	<line class="st11" x1="68.5" y1="178.5" x2="68.5" y2="654.5"/>
	<line class="st11" x1="140.227" y1="178.545" x2="140.227" y2="654.545"/>
	<line class="st11" x1="211.955" y1="178.591" x2="211.955" y2="654.591"/>
	<line class="st11" x1="283.682" y1="178.636" x2="283.682" y2="654.636"/>
	<line class="st11" x1="355.409" y1="178.682" x2="355.409" y2="654.682"/>
	<line class="st11" x1="427.136" y1="178.727" x2="427.136" y2="654.727"/>
	<line class="st11" x1="498.864" y1="178.773" x2="498.864" y2="654.773"/>
	<line class="st11" x1="570.591" y1="178.818" x2="570.591" y2="654.818"/>
	<line class="st11" x1="642.318" y1="178.864" x2="642.318" y2="654.864"/>
	<line class="st11" x1="714.045" y1="178.909" x2="714.045" y2="654.909"/>
	<line class="st11" x1="785.773" y1="178.955" x2="785.773" y2="654.955"/>
	<line class="st11" x1="857.5" y1="179" x2="857.5" y2="655"/>
	<g>
		<path d="M62.885,680.913h2.147v-6.297c-0.659,0.396-1.403,0.636-2.147,0.827V674.4c0.996-0.3,1.836-0.695,2.52-1.247h0.815v7.76
			h2.135v1.043h-5.47V680.913z"/>
		<path d="M70.049,681.104l3.07-3.07c0.863-0.852,1.416-1.619,1.416-2.471c0-0.888-0.588-1.499-1.715-1.499
			c-0.9,0-1.451,0.384-1.943,1.067l-0.852-0.659c0.647-0.9,1.559-1.452,2.879-1.452c1.774,0,2.818,0.996,2.818,2.459
			c0,0.947-0.444,1.883-1.404,2.843l-2.578,2.566v0.024h4.162v1.043h-5.854V681.104z"/>
	</g>
	<g>
		<path d="M138.009,681.104l3.07-3.07c0.863-0.852,1.415-1.619,1.415-2.471c0-0.888-0.587-1.499-1.715-1.499
			c-0.899,0-1.451,0.384-1.942,1.067l-0.852-0.659c0.647-0.9,1.559-1.452,2.878-1.452c1.775,0,2.818,0.996,2.818,2.459
			c0,0.947-0.443,1.883-1.403,2.843l-2.578,2.566v0.024h4.161v1.043h-5.853V681.104z"/>
	</g>
	<g>
		<path d="M216.297,679.941h-1.607v2.015h-1.176v-2.015h-4.438v-0.876l4.126-5.912h1.487v5.78h1.607V679.941z M213.514,678.934
			v-4.474h-0.023l-3.131,4.474H213.514z"/>
	</g>
	<g>
		<path d="M286.776,674.424c-0.443-0.264-0.983-0.384-1.522-0.384c-1.848,0-2.663,1.451-2.795,3.454h0.024
			c0.527-0.707,1.463-1.055,2.387-1.055c1.738,0,2.842,1.199,2.842,2.794c0,1.68-1.211,2.854-3.13,2.854
			c-2.507,0-3.286-2.026-3.286-4.162c0-2.435,1.02-4.905,3.981-4.905c0.768,0,1.403,0.168,1.931,0.444L286.776,674.424z
			 M286.537,679.27c0-1.02-0.648-1.835-1.919-1.835c-1.032,0-1.991,0.552-1.991,1.655c0,0.827,0.54,1.99,2.015,1.99
			C285.841,681.08,286.537,680.325,286.537,679.27z"/>
	</g>
	<g>
		<path d="M352.938,679.594c0-1.02,0.576-1.739,1.632-2.147v-0.023c-0.9-0.372-1.439-1.092-1.439-2.027
			c0-1.391,1.188-2.375,2.986-2.375c1.823,0,2.998,0.984,2.998,2.375c0,0.936-0.552,1.631-1.439,1.979v0.023
			c1.044,0.42,1.632,1.176,1.632,2.195c0,1.475-1.248,2.494-3.19,2.494C354.174,682.088,352.938,681.068,352.938,679.594z
			 M354.126,679.545c0,0.888,0.72,1.535,1.991,1.535c1.283,0,2.003-0.647,2.003-1.535c0-0.947-0.828-1.619-2.003-1.619
			C354.941,677.926,354.126,678.598,354.126,679.545z M357.928,675.468c0-0.828-0.659-1.439-1.811-1.439s-1.799,0.611-1.799,1.439
			c0,0.852,0.755,1.487,1.799,1.487C357.173,676.955,357.928,676.319,357.928,675.468z"/>
	</g>
	<g>
		<path d="M421.521,680.913h2.147v-6.297c-0.66,0.396-1.403,0.636-2.147,0.827V674.4c0.996-0.3,1.835-0.695,2.519-1.247h0.816v7.76
			h2.135v1.043h-5.47V680.913z"/>
		<path d="M428.446,677.566c0-2.314,0.575-4.546,3.178-4.546c2.591,0,3.179,2.195,3.179,4.522c0,2.314-0.576,4.545-3.179,4.545
			C429.033,682.088,428.446,679.894,428.446,677.566z M433.615,677.555c0-1.715-0.18-3.515-1.991-3.515
			c-1.811,0-1.991,1.8-1.991,3.515s0.181,3.514,1.991,3.514C433.436,681.068,433.615,679.27,433.615,677.555z"/>
	</g>
	<g>
		<path d="M493.249,680.913h2.146v-6.297c-0.659,0.396-1.403,0.636-2.146,0.827V674.4c0.995-0.3,1.835-0.695,2.519-1.247h0.815v7.76
			h2.135v1.043h-5.469V680.913z"/>
		<path d="M500.413,681.104l3.07-3.07c0.863-0.852,1.415-1.619,1.415-2.471c0-0.888-0.588-1.499-1.715-1.499
			c-0.899,0-1.451,0.384-1.943,1.067l-0.852-0.659c0.647-0.9,1.56-1.452,2.879-1.452c1.774,0,2.818,0.996,2.818,2.459
			c0,0.947-0.444,1.883-1.403,2.843l-2.579,2.566v0.024h4.162v1.043h-5.853V681.104z"/>
	</g>
	<g>
		<path d="M568.373,681.104l3.07-3.07c0.863-0.852,1.415-1.619,1.415-2.471c0-0.888-0.588-1.499-1.715-1.499
			c-0.899,0-1.451,0.384-1.943,1.067l-0.852-0.659c0.647-0.9,1.56-1.452,2.879-1.452c1.774,0,2.818,0.996,2.818,2.459
			c0,0.947-0.444,1.883-1.403,2.843l-2.579,2.566v0.024h4.162v1.043h-5.853V681.104z"/>
	</g>
	<g>
		<path d="M646.66,679.941h-1.607v2.015h-1.175v-2.015h-4.438v-0.876l4.125-5.912h1.487v5.78h1.607V679.941z M643.878,678.934
			v-4.474h-0.024l-3.13,4.474H643.878z"/>
	</g>
	<g>
		<path d="M717.141,674.424c-0.444-0.264-0.984-0.384-1.523-0.384c-1.848,0-2.662,1.451-2.795,3.454h0.024
			c0.527-0.707,1.463-1.055,2.387-1.055c1.739,0,2.843,1.199,2.843,2.794c0,1.68-1.212,2.854-3.131,2.854
			c-2.506,0-3.286-2.026-3.286-4.162c0-2.435,1.02-4.905,3.981-4.905c0.768,0,1.404,0.168,1.932,0.444L717.141,674.424z
			 M716.9,679.27c0-1.02-0.648-1.835-1.919-1.835c-1.032,0-1.991,0.552-1.991,1.655c0,0.827,0.54,1.99,2.016,1.99
			C716.205,681.08,716.9,680.325,716.9,679.27z"/>
	</g>
	<g>
		<path d="M783.303,679.594c0-1.02,0.575-1.739,1.631-2.147v-0.023c-0.899-0.372-1.439-1.092-1.439-2.027
			c0-1.391,1.188-2.375,2.986-2.375c1.823,0,2.999,0.984,2.999,2.375c0,0.936-0.552,1.631-1.439,1.979v0.023
			c1.043,0.42,1.631,1.176,1.631,2.195c0,1.475-1.247,2.494-3.19,2.494C784.538,682.088,783.303,681.068,783.303,679.594z
			 M784.49,679.545c0,0.888,0.719,1.535,1.99,1.535c1.283,0,2.003-0.647,2.003-1.535c0-0.947-0.827-1.619-2.003-1.619
			C785.306,677.926,784.49,678.598,784.49,679.545z M788.292,675.468c0-0.828-0.66-1.439-1.812-1.439s-1.799,0.611-1.799,1.439
			c0,0.852,0.756,1.487,1.799,1.487C787.536,676.955,788.292,676.319,788.292,675.468z"/>
	</g>
	<g>
		<path d="M851.885,680.913h2.147v-6.297c-0.659,0.396-1.403,0.636-2.147,0.827V674.4c0.996-0.3,1.836-0.695,2.52-1.247h0.815v7.76
			h2.135v1.043h-5.47V680.913z"/>
		<path d="M858.81,677.566c0-2.314,0.575-4.546,3.179-4.546c2.59,0,3.178,2.195,3.178,4.522c0,2.314-0.576,4.545-3.178,4.545
			C859.396,682.088,858.81,679.894,858.81,677.566z M863.979,677.555c0-1.715-0.18-3.515-1.99-3.515c-1.812,0-1.992,1.8-1.992,3.515
			s0.181,3.514,1.992,3.514C863.799,681.068,863.979,679.27,863.979,677.555z"/>
	</g>
	<g>
		<path d="M914.885,680.913h2.147v-6.297c-0.659,0.396-1.403,0.636-2.147,0.827V674.4c0.996-0.3,1.836-0.695,2.52-1.247h0.815v7.76
			h2.135v1.043h-5.47V680.913z"/>
		<path d="M922.049,681.104l3.07-3.07c0.863-0.852,1.416-1.619,1.416-2.471c0-0.888-0.588-1.499-1.715-1.499
			c-0.9,0-1.451,0.384-1.943,1.067l-0.852-0.659c0.647-0.9,1.559-1.452,2.879-1.452c1.774,0,2.818,0.996,2.818,2.459
			c0,0.947-0.444,1.883-1.404,2.843l-2.578,2.566v0.024h4.162v1.043h-5.854V681.104z"/>
	</g>
</g>
<g id="temp_Graph_line">
	<path class="st13" d="M68.5,530.52c0,0,167.122-11.516,297.913-64.356s93.249-93.485,224.04-103.646
		c130.791-10.161,149.016,65.393,214.352,107.711c46.019,29.807,163.489,61.646,219.196,60.291"/>
	<path class="st14" d="M68.5,472.906c0,0,167.122-11.516,297.913-64.356s93.855-72.146,224.645-82.308
		c130.791-10.161,148.411,44.054,213.746,86.372c46.019,29.807,163.489,61.646,219.196,60.291"/>
	<line class="st16" x1="591" y1="326" x2="1011" y2="326"/>
	<g>
		<path d="M919.477,263.638c-0.179-0.177-0.268-0.394-0.268-0.648v-24.822c0-0.279,0.083-0.508,0.248-0.686s0.388-0.267,0.668-0.267
			h9.303c7.474,0,11.286,3.457,11.439,10.371c0.05,1.475,0.076,2.466,0.076,2.974c0,0.483-0.026,1.462-0.076,2.936
			c-0.103,3.559-1.056,6.184-2.86,7.874c-1.805,1.691-4.601,2.536-8.388,2.536h-9.494
			C919.87,263.905,919.654,263.816,919.477,263.638z M929.428,259.521c2.136,0,3.673-0.477,4.614-1.43
			c0.939-0.953,1.436-2.522,1.486-4.708c0.051-1.525,0.077-2.479,0.077-2.86c0-0.406-0.026-1.347-0.077-2.822
			c-0.051-2.084-0.578-3.622-1.582-4.613c-1.004-0.992-2.573-1.487-4.709-1.487h-4.728v17.921H929.428z"/>
		<path d="M947.749,263.505c-1.081-0.521-1.932-1.226-2.555-2.116c-0.623-0.89-0.935-1.868-0.935-2.936
			c0-1.728,0.699-3.126,2.098-4.194c1.397-1.068,3.317-1.792,5.758-2.173l5.224-0.763v-0.801c0-1.118-0.28-1.957-0.839-2.517
			c-0.56-0.559-1.462-0.839-2.707-0.839c-0.839,0-1.52,0.159-2.04,0.477c-0.521,0.318-0.935,0.629-1.239,0.934
			c-0.306,0.331-0.509,0.547-0.61,0.648c-0.102,0.305-0.293,0.458-0.572,0.458h-2.936c-0.229,0-0.426-0.076-0.591-0.229
			c-0.166-0.152-0.248-0.355-0.248-0.61c0.025-0.635,0.337-1.359,0.935-2.173c0.597-0.813,1.519-1.512,2.764-2.097
			c1.245-0.584,2.771-0.877,4.576-0.877c2.999,0,5.186,0.674,6.558,2.021c1.373,1.348,2.06,3.114,2.06,5.3v11.973
			c0,0.254-0.083,0.471-0.248,0.648c-0.166,0.178-0.388,0.267-0.668,0.267h-3.088c-0.255,0-0.471-0.089-0.648-0.267
			c-0.178-0.177-0.267-0.394-0.267-0.648v-1.487c-0.56,0.814-1.354,1.481-2.383,2.002c-1.03,0.521-2.308,0.782-3.832,0.782
			C950.018,264.287,948.829,264.025,947.749,263.505z M956.042,259.292c0.89-0.915,1.335-2.25,1.335-4.003v-0.801l-3.813,0.61
			c-1.475,0.229-2.587,0.597-3.336,1.105c-0.75,0.509-1.125,1.131-1.125,1.868c0,0.814,0.343,1.449,1.029,1.907
			s1.513,0.686,2.479,0.686C954.008,260.664,955.152,260.207,956.042,259.292z"/>
		<path d="M967.442,240.532c-0.178-0.178-0.267-0.394-0.267-0.648v-2.745c0-0.254,0.089-0.47,0.267-0.648
			c0.178-0.177,0.394-0.267,0.648-0.267h3.47c0.254,0,0.477,0.089,0.667,0.267c0.19,0.178,0.286,0.395,0.286,0.648v2.745
			c0,0.254-0.09,0.471-0.267,0.648c-0.179,0.178-0.407,0.267-0.687,0.267h-3.47C967.836,240.799,967.62,240.71,967.442,240.532z
			 M967.595,263.638c-0.178-0.177-0.267-0.394-0.267-0.648v-17.997c0-0.254,0.089-0.47,0.267-0.648s0.394-0.267,0.648-0.267h3.165
			c0.279,0,0.501,0.083,0.667,0.248c0.165,0.166,0.248,0.388,0.248,0.667v17.997c0,0.254-0.083,0.471-0.248,0.648
			c-0.166,0.178-0.388,0.267-0.667,0.267h-3.165C967.988,263.905,967.772,263.816,967.595,263.638z"/>
		<path d="M977.698,263.638c-0.178-0.177-0.267-0.394-0.267-0.648v-25.242c0-0.279,0.089-0.501,0.267-0.667
			c0.178-0.165,0.395-0.248,0.648-0.248h3.165c0.279,0,0.501,0.083,0.667,0.248c0.165,0.166,0.248,0.388,0.248,0.667v25.242
			c0,0.254-0.083,0.471-0.248,0.648c-0.166,0.178-0.388,0.267-0.667,0.267h-3.165C978.093,263.905,977.876,263.816,977.698,263.638z
			"/>
		<path d="M990.548,270.921c-0.152-0.152-0.229-0.331-0.229-0.534c0-0.229,0.051-0.433,0.152-0.61l2.975-7.054l-7.321-17.272
			c-0.102-0.229-0.152-0.406-0.152-0.534c0.025-0.229,0.114-0.425,0.267-0.591c0.153-0.165,0.344-0.248,0.572-0.248h3.089
			c0.482,0,0.825,0.242,1.029,0.725l5.071,12.468l5.224-12.468c0.203-0.483,0.546-0.725,1.029-0.725h3.051
			c0.203,0,0.387,0.076,0.553,0.229c0.165,0.153,0.248,0.331,0.248,0.534c0,0.178-0.052,0.381-0.153,0.61l-10.79,24.975
			c-0.229,0.482-0.585,0.725-1.067,0.725h-3.013C990.878,271.15,990.701,271.074,990.548,270.921z"/>
		<path d="M919.477,309.393c-0.179-0.177-0.268-0.394-0.268-0.648v-24.822c0-0.279,0.083-0.508,0.248-0.686s0.388-0.267,0.668-0.267
			h3.47c0.279,0,0.501,0.089,0.667,0.267c0.165,0.178,0.248,0.407,0.248,0.686v9.837h11.248v-9.837c0-0.279,0.082-0.508,0.247-0.686
			s0.388-0.267,0.668-0.267h3.432c0.279,0,0.508,0.089,0.687,0.267c0.177,0.178,0.267,0.407,0.267,0.686v24.822
			c0,0.28-0.09,0.502-0.267,0.667c-0.179,0.166-0.407,0.248-0.687,0.248h-3.432c-0.255,0-0.471-0.089-0.648-0.267
			c-0.178-0.177-0.267-0.394-0.267-0.648v-10.219H924.51v10.219c0,0.254-0.083,0.471-0.248,0.648
			c-0.166,0.178-0.388,0.267-0.667,0.267h-3.47C919.87,309.66,919.654,309.571,919.477,309.393z"/>
		<path d="M946.662,286.287c-0.178-0.178-0.267-0.394-0.267-0.648v-2.745c0-0.254,0.089-0.47,0.267-0.648
			c0.178-0.177,0.394-0.267,0.648-0.267h3.47c0.254,0,0.477,0.089,0.667,0.267c0.19,0.178,0.286,0.395,0.286,0.648v2.745
			c0,0.254-0.09,0.471-0.267,0.648c-0.179,0.178-0.407,0.267-0.687,0.267h-3.47C947.056,286.554,946.84,286.465,946.662,286.287z
			 M946.814,309.393c-0.178-0.177-0.267-0.394-0.267-0.648v-17.997c0-0.254,0.089-0.47,0.267-0.648s0.394-0.267,0.648-0.267h3.165
			c0.279,0,0.501,0.083,0.667,0.248c0.165,0.166,0.248,0.388,0.248,0.667v17.997c0,0.254-0.083,0.471-0.248,0.648
			c-0.166,0.178-0.388,0.267-0.667,0.267h-3.165C947.208,309.66,946.992,309.571,946.814,309.393z"/>
		<path d="M960.083,316.924c-1.398-0.75-2.39-1.608-2.974-2.574c-0.586-0.966-0.878-1.792-0.878-2.479
			c0-0.229,0.096-0.433,0.286-0.61c0.191-0.178,0.4-0.267,0.63-0.267h3.316c0.229,0,0.426,0.057,0.592,0.172
			c0.165,0.114,0.298,0.324,0.4,0.629c0.253,0.687,0.667,1.264,1.238,1.735c0.572,0.47,1.469,0.706,2.688,0.706
			c1.525,0,2.65-0.343,3.375-1.03c0.724-0.686,1.086-1.868,1.086-3.546v-2.593c-1.398,1.653-3.355,2.479-5.872,2.479
			c-2.644,0-4.632-0.813-5.967-2.44c-1.335-1.626-2.053-3.813-2.154-6.558l-0.038-1.03l0.038-1.029
			c0.102-2.694,0.826-4.874,2.174-6.539c1.347-1.665,3.329-2.498,5.947-2.498c1.348,0,2.529,0.254,3.547,0.763
			c1.016,0.509,1.868,1.208,2.555,2.097v-1.525c0-0.279,0.088-0.508,0.267-0.686c0.178-0.178,0.394-0.267,0.648-0.267h3.088
			c0.254,0,0.471,0.095,0.648,0.286c0.178,0.19,0.267,0.413,0.267,0.667l0.038,18.378c0,2.821-0.788,5.007-2.363,6.558
			c-1.577,1.55-3.94,2.326-7.093,2.326C963.311,318.049,961.48,317.673,960.083,316.924z M968.643,304.131
			c0.725-0.915,1.125-2.033,1.201-3.355c0.025-0.203,0.038-0.623,0.038-1.258c0-0.61-0.013-1.016-0.038-1.22
			c-0.076-1.347-0.477-2.479-1.201-3.394c-0.724-0.915-1.811-1.373-3.26-1.373c-2.745,0-4.194,1.691-4.347,5.071l-0.038,0.915
			c0,1.805,0.324,3.254,0.973,4.347c0.647,1.093,1.785,1.639,3.412,1.639C966.832,305.504,967.919,305.046,968.643,304.131z"/>
		<path d="M980.405,309.393c-0.178-0.177-0.267-0.394-0.267-0.648v-25.242c0-0.279,0.089-0.501,0.267-0.667
			c0.178-0.165,0.395-0.248,0.648-0.248h3.394c0.279,0,0.502,0.083,0.667,0.248c0.165,0.166,0.248,0.388,0.248,0.667v8.693
			c1.525-1.83,3.584-2.745,6.177-2.745c2.339,0,4.207,0.769,5.605,2.307c1.397,1.539,2.097,3.629,2.097,6.272v10.714
			c0,0.254-0.083,0.471-0.248,0.648c-0.165,0.178-0.388,0.267-0.667,0.267h-3.432c-0.254,0-0.471-0.089-0.648-0.267
			c-0.178-0.177-0.267-0.394-0.267-0.648v-10.486c0-1.5-0.362-2.662-1.087-3.489c-0.725-0.826-1.772-1.239-3.146-1.239
			c-1.348,0-2.415,0.419-3.203,1.258s-1.182,1.996-1.182,3.47v10.486c0,0.254-0.083,0.471-0.248,0.648
			c-0.165,0.178-0.388,0.267-0.667,0.267h-3.394C980.8,309.66,980.583,309.571,980.405,309.393z"/>
	</g>
	<g>
		<path d="M236.944,730.505c-1.081-0.521-1.932-1.226-2.555-2.116c-0.623-0.89-0.935-1.868-0.935-2.936
			c0-1.729,0.699-3.127,2.098-4.194c1.397-1.067,3.317-1.792,5.758-2.173l5.224-0.764v-0.801c0-1.117-0.28-1.957-0.839-2.516
			c-0.56-0.559-1.462-0.84-2.707-0.84c-0.839,0-1.52,0.16-2.04,0.477c-0.521,0.318-0.935,0.63-1.239,0.935
			c-0.306,0.331-0.509,0.547-0.61,0.648c-0.102,0.306-0.293,0.458-0.572,0.458h-2.936c-0.229,0-0.426-0.076-0.591-0.229
			c-0.166-0.152-0.248-0.355-0.248-0.61c0.025-0.635,0.337-1.359,0.935-2.173c0.597-0.813,1.519-1.513,2.764-2.097
			c1.245-0.585,2.771-0.877,4.576-0.877c2.999,0,5.186,0.674,6.558,2.021c1.373,1.348,2.06,3.114,2.06,5.3v11.973
			c0,0.254-0.083,0.471-0.248,0.648c-0.166,0.178-0.388,0.267-0.668,0.267h-3.088c-0.255,0-0.471-0.089-0.648-0.267
			s-0.267-0.395-0.267-0.648v-1.487c-0.56,0.813-1.354,1.481-2.383,2.002c-1.03,0.521-2.308,0.782-3.832,0.782
			C239.213,731.287,238.024,731.025,236.944,730.505z M245.237,726.291c0.89-0.914,1.335-2.249,1.335-4.003v-0.801l-3.813,0.61
			c-1.475,0.229-2.587,0.598-3.336,1.105c-0.75,0.509-1.125,1.131-1.125,1.868c0,0.813,0.343,1.449,1.029,1.907
			c0.687,0.457,1.513,0.686,2.479,0.686C243.203,727.664,244.348,727.207,245.237,726.291z"/>
		<path d="M256.79,730.639c-0.178-0.178-0.267-0.395-0.267-0.648v-17.997c0-0.254,0.089-0.47,0.267-0.647s0.394-0.268,0.648-0.268
			h2.974c0.254,0,0.471,0.09,0.648,0.268s0.268,0.394,0.268,0.647v1.296c1.321-1.729,3.164-2.592,5.528-2.592
			c2.821,0,4.791,1.131,5.91,3.393c0.61-1.016,1.474-1.836,2.593-2.459c1.118-0.623,2.326-0.934,3.622-0.934
			c2.084,0,3.787,0.711,5.109,2.135c1.321,1.424,1.982,3.496,1.982,6.215v10.943c0,0.254-0.083,0.471-0.248,0.648
			s-0.388,0.267-0.667,0.267h-3.126c-0.255,0-0.471-0.089-0.648-0.267c-0.179-0.178-0.267-0.395-0.267-0.648v-10.639
			c0-1.602-0.338-2.764-1.011-3.488c-0.674-0.725-1.57-1.087-2.688-1.087c-0.991,0-1.837,0.369-2.535,1.106
			c-0.699,0.737-1.049,1.894-1.049,3.469v10.639c0,0.254-0.089,0.471-0.267,0.648c-0.179,0.178-0.395,0.267-0.648,0.267h-3.127
			c-0.254,0-0.471-0.089-0.647-0.267c-0.179-0.178-0.268-0.395-0.268-0.648v-10.639c0-1.602-0.35-2.764-1.048-3.488
			c-0.7-0.725-1.583-1.087-2.65-1.087c-1.017,0-1.875,0.369-2.574,1.106s-1.048,1.894-1.048,3.469v10.639
			c0,0.254-0.09,0.471-0.268,0.648s-0.394,0.267-0.647,0.267h-3.203C257.184,730.905,256.968,730.816,256.79,730.639z"/>
	</g>
	<g>
		<path d="M670.057,744.902c-0.178-0.166-0.267-0.389-0.267-0.668v-25.241c0-0.279,0.089-0.501,0.267-0.667s0.395-0.248,0.648-0.248
			h3.013c0.279,0,0.501,0.082,0.667,0.248c0.165,0.166,0.248,0.388,0.248,0.667v1.525c1.423-1.881,3.456-2.821,6.101-2.821
			c2.566,0,4.537,0.807,5.91,2.421c1.372,1.614,2.109,3.794,2.211,6.539c0.025,0.306,0.038,0.75,0.038,1.335
			c0,0.609-0.013,1.066-0.038,1.372c-0.102,2.669-0.839,4.823-2.211,6.463c-1.373,1.64-3.344,2.46-5.91,2.46
			c-2.568,0-4.525-0.902-5.872-2.707v8.654c0,0.279-0.083,0.502-0.248,0.668c-0.166,0.164-0.388,0.248-0.667,0.248h-3.241
			C670.451,745.15,670.234,745.066,670.057,744.902z M683.707,729.136c0.025-0.254,0.038-0.636,0.038-1.144
			c0-0.509-0.013-0.891-0.038-1.145c-0.178-3.381-1.64-5.071-4.385-5.071c-1.475,0-2.567,0.471-3.279,1.411s-1.105,2.098-1.182,3.47
			l-0.038,1.448l0.038,1.488c0.051,1.271,0.451,2.357,1.201,3.26c0.749,0.902,1.836,1.354,3.26,1.354
			C682.067,734.207,683.529,732.517,683.707,729.136z"/>
		<path d="M693.43,737.639c-0.178-0.178-0.267-0.395-0.267-0.648v-17.997c0-0.254,0.089-0.47,0.267-0.647s0.394-0.268,0.648-0.268
			h2.974c0.254,0,0.471,0.09,0.648,0.268s0.268,0.394,0.268,0.647v1.296c1.321-1.729,3.164-2.592,5.528-2.592
			c2.821,0,4.791,1.131,5.91,3.393c0.61-1.016,1.474-1.836,2.593-2.459c1.118-0.623,2.326-0.934,3.622-0.934
			c2.084,0,3.787,0.711,5.109,2.135c1.321,1.424,1.982,3.496,1.982,6.215v10.943c0,0.254-0.083,0.471-0.248,0.648
			s-0.388,0.267-0.667,0.267h-3.126c-0.255,0-0.471-0.089-0.648-0.267c-0.179-0.178-0.267-0.395-0.267-0.648v-10.639
			c0-1.602-0.338-2.764-1.011-3.488c-0.674-0.725-1.57-1.087-2.688-1.087c-0.991,0-1.837,0.369-2.535,1.106
			c-0.699,0.737-1.049,1.894-1.049,3.469v10.639c0,0.254-0.089,0.471-0.267,0.648c-0.179,0.178-0.395,0.267-0.648,0.267h-3.127
			c-0.254,0-0.471-0.089-0.647-0.267c-0.179-0.178-0.268-0.395-0.268-0.648v-10.639c0-1.602-0.35-2.764-1.048-3.488
			c-0.7-0.725-1.583-1.087-2.65-1.087c-1.017,0-1.875,0.369-2.574,1.106s-1.048,1.894-1.048,3.469v10.639
			c0,0.254-0.09,0.471-0.268,0.648s-0.394,0.267-0.647,0.267h-3.203C693.823,737.905,693.607,737.816,693.43,737.639z"/>
	</g>
	<rect x="69" y="179" class="st17" width="430" height="578"/>
	<rect x="499" y="179" class="st18" width="430" height="578"/>
	<rect x="878" y="280" class="st19" width="3" height="3"/>
</g>
</svg>
