<?xml version="1.0" encoding="utf-8"?>
<!-- Generator: Adobe Illustrator 25.2.3, SVG Export Plug-In . SVG Version: 6.00 Build 0)  -->
<svg version="1.1" id="Layer_1" xmlns="http://www.w3.org/2000/svg" xmlns:xlink="http://www.w3.org/1999/xlink" x="0px" y="0px"
	 viewBox="0 0 342.524 140.244" style="enable-background:new 0 0 342.524 140.244;" xml:space="preserve">
<style type="text/css">
	.st0{fill:#DCEFF4;}
	.st1{enable-background:new    ;}
	.st2{fill:#262626;}
	.st3{fill:#2D2D2D;}
</style>
<polygon class="st0" points="65.689,135.493 0,140.244 5.053,11.185 65.689,1.683 "/>
<g>
	<path class="st3" d="M84.824,17.146L72.96,58.018H58.24L46.376,17.232L46.03,58.884H33.214l1.905-54.121h19.483L65.86,45.375
		L77.117,4.763h19.224l1.818,54.121H85.083L84.824,17.146z"/>
	<path class="st3" d="M129.073,54.034c-2.857,3.378-6.062,6.148-11.604,6.148c-6.927,0-12.296-4.936-12.296-11.171
		c0-7.62,5.715-13.768,23.813-14.287v-0.78c0-4.242-2.165-6.147-7.101-6.147c-4.157,0-9.006,1.731-13.682,4.069l-2.771-9.785
		c4.243-2.251,10.911-4.762,18.531-4.762c13.941,0,18.531,6.321,18.358,17.578l-0.087,11.95c0,2.771,0.52,3.03,3.291,3.29
		l-1.299,9.525c-8.746,1.126-13.076-1.212-14.894-5.629H129.073z M128.987,40.959c-8.227,0.952-11.257,2.511-11.257,6.062
		c0,2.598,2.078,4.33,5.022,4.33c2.685,0,4.849-1.126,6.235-2.685V40.959z"/>
	<path class="st3" d="M176.093,58.884l-7.707-12.902l-7.621,12.902h-14.375l13.855-20.522l-13.508-19.743h14.115l7.447,11.604
		l7.188-11.604h14.201l-13.335,19.569l13.854,20.696H176.093z"/>
	<path class="st3" d="M202.676,59.057l-11.344-40.438h13.509l5.456,26.757l6.841-26.757h13.941l6.928,26.324l4.676-26.324h13.855
		l-11.43,40.438h-13.509l-7.707-26.497l-7.707,26.497H202.676z"/>
	<path class="st3" d="M272.385,41.911c0.433,5.369,4.156,8.486,10.65,8.486c4.417,0,9.093-1.559,13.162-3.896l1.299,10.305
		c-4.069,2.078-9.871,3.29-15.673,3.29c-13.682,0-22.515-7.62-22.515-21.042c0-13.162,9.006-21.734,21.821-21.734
		c11.431,0,17.666,6.841,17.666,16.886c0,2.164-0.347,5.368-0.866,7.101l-25.545,0.433V41.911z M286.413,34.984
		c0-0.174,0-0.606,0-0.779c0-4.763-1.991-7.707-6.147-7.707c-4.59,0-7.36,3.983-7.794,8.572L286.413,34.984z"/>
	<path class="st3" d="M306.33,58.884V1.646L319.665,0v58.884H306.33z"/>
	<path class="st3" d="M329.189,58.884V1.646L342.524,0v58.884H329.189z"/>
	<path class="st3" d="M80.061,113.481c0,8.659-4.589,15.76-21.908,15.76h-23.64V75.12H57.98c16.106,0,20.436,6.148,20.436,14.115
		c0,6.147-3.81,9.958-10.045,11.689C75.298,102.224,80.061,106.813,80.061,113.481z M56.681,85.425c-0.952,0-8.833,0-8.833,0v12.47
		c0.087,0,7.88,0,8.14,0c5.715,0,8.659-2.338,8.659-6.408C64.647,87.503,61.876,85.425,56.681,85.425z M56.681,106.467
		c-0.346,0-8.833,0-8.833,0v12.47c0,0,8.053,0,9.266,0c6.235,0,9.092-1.991,9.092-6.234
		C66.206,108.112,62.482,106.467,56.681,106.467z"/>
	<path class="st3" d="M98.246,112.269c0.433,5.369,4.157,8.486,10.651,8.486c4.416,0,9.092-1.559,13.162-3.896l1.299,10.305
		c-4.07,2.078-9.872,3.29-15.673,3.29c-13.682,0-22.515-7.62-22.515-21.042c0-13.162,9.006-21.734,21.822-21.734
		c11.43,0,17.665,6.841,17.665,16.886c0,2.164-0.346,5.368-0.866,7.101l-25.545,0.433V112.269z M112.274,105.342
		c0-0.174,0-0.606,0-0.779c0-4.763-1.992-7.707-6.148-7.707c-4.589,0-7.36,3.983-7.793,8.572L112.274,105.342z"/>
	<path class="st3" d="M158.514,129.241v-23.813c0-4.849-2.165-6.407-5.715-6.407c-2.944,0-5.542,1.472-7.274,3.03v27.19H132.19
		V89.668l13.335-1.646c0,0,0,5.976,0,6.581c3.55-4.069,8.313-6.927,13.508-6.927c8.054,0,12.816,5.281,12.816,13.854v27.71H158.514z
		"/>
	<path class="st3" d="M231.771,129.241v-23.727c0-4.85-2.078-6.494-5.455-6.494c-2.685,0-4.937,1.212-6.495,2.598v2.338v25.285
		h-13.335v-23.727c0-4.85-2.165-6.494-5.542-6.494c-2.685,0-4.85,1.039-6.495,2.424v27.797h-13.335V89.668l13.335-1.646
		c0,0,0,5.542,0,5.629c3.551-3.637,7.534-5.975,12.816-5.975c5.022,0,9.438,2.511,11.344,7.187
		c3.724-4.329,8.486-7.187,13.941-7.187c7.794,0,12.556,5.281,12.556,13.941v27.623H231.771z"/>
	<path class="st3" d="M276.194,124.392c-2.858,3.378-6.062,6.148-11.604,6.148c-6.928,0-12.297-4.936-12.297-11.171
		c0-7.62,5.715-13.768,23.813-14.287v-0.78c0-4.242-2.165-6.147-7.101-6.147c-4.156,0-9.006,1.731-13.682,4.069l-2.771-9.785
		c4.243-2.251,10.911-4.762,18.531-4.762c13.941,0,18.531,6.321,18.357,17.578l-0.086,11.95c0,2.771,0.52,3.03,3.29,3.29
		l-1.299,9.525c-8.746,1.126-13.075-1.212-14.894-5.629H276.194z M276.107,111.316c-8.227,0.952-11.257,2.511-11.257,6.062
		c0,2.598,2.078,4.33,5.022,4.33c2.684,0,4.849-1.126,6.234-2.685V111.316z"/>
	<path class="st3" d="M325.031,129.241v-23.813c0-4.849-2.165-6.407-5.715-6.407c-2.944,0-5.542,1.472-7.274,3.03v27.19h-13.335
		V89.668l13.335-1.646c0,0,0,5.976,0,6.581c3.551-4.069,8.313-6.927,13.509-6.927c8.054,0,12.816,5.281,12.816,13.854v27.71H325.031
		z"/>
</g>
</svg>
