<?xml version="1.0" encoding="utf-8"?>
<!-- Generator: Adobe Illustrator 25.2.1, SVG Export Plug-In . SVG Version: 6.00 Build 0)  -->
<svg version="1.1" id="Layer_1" xmlns="http://www.w3.org/2000/svg" xmlns:xlink="http://www.w3.org/1999/xlink" x="0px" y="0px"
	 viewBox="0 0 352.72 188.05" style="enable-background:new 0 0 352.72 188.05;" xml:space="preserve">
<style type="text/css">
	.st0{fill:#DCEFF4;}
	.st1{enable-background:new    ;}
</style>
<polygon class="st0" points="78,173.08 0,179.08 6,16.08 78,4.08 "/>
<g class="st1">
	<path d="M96.763,28.037L82.094,72.315h-11.52l-14.76-44.278l-0.54,45.088H44.925l1.89-56.248h15.209l14.489,44.278l14.49-44.278
		h15.029l1.8,56.248h-10.62L96.763,28.037z"/>
</g>
<g class="st1">
	<path d="M140.323,68.355c-2.97,3.6-6.57,6.119-11.699,6.119c-7.47,0-12.87-5.13-12.87-11.699c0-7.649,5.58-14.129,24.569-14.76
		v-0.989c0-5.58-2.34-7.92-8.279-7.92c-4.23,0-9.36,1.89-13.77,4.41l-2.16-8.37c4.05-2.52,10.53-4.859,17.37-4.859
		c12.779,0,17.729,5.669,17.459,17.099v14.85c0,3.15,0.54,3.6,3.69,3.78l-0.81,8.01c-7.919,0.899-11.609-1.53-13.139-5.67H140.323z
		 M140.323,53.596c-10.35,1.26-14.129,3.33-14.129,7.74c0,3.149,2.43,5.399,6.21,5.399c3.33,0,6.03-1.53,7.919-3.6V53.596z"/>
</g>
<g class="st1">
	<path d="M185.771,73.125l-9.089-14.76l-9,14.76h-11.7l14.31-21.239l-13.77-20.249h11.52l8.55,13.409l8.28-13.409h11.609
		l-13.409,20.069l14.219,21.419H185.771z"/>
</g>
<g class="st1">
	<path d="M211.69,73.305l-12.33-41.668h11.069l7.2,29.159l8.279-29.069h10.62l8.909,28.889l6.21-28.979h11.249l-12.149,41.668
		h-10.439l-9.27-29.158l-9,29.158H211.69z"/>
</g>
<g class="st1">
	<path d="M277.569,54.676c0.449,6.75,5.039,11.34,12.419,11.34c4.41,0,9.18-1.44,12.96-3.78l1.35,8.819
		c-3.96,2.16-9.449,3.42-15.029,3.42c-13.319,0-22.14-8.459-22.14-21.688c0-13.5,9-22.499,21.42-22.499
		c10.979,0,17.099,6.659,17.099,16.829c0,2.25-0.359,5.13-0.899,6.93c-0.09,0-27.179,0.36-27.179,0.36V54.676z M295.658,48.106
		c0-0.181,0-0.631,0-0.721c0-5.579-2.43-9.089-7.92-9.089c-5.85,0-9.359,4.77-9.899,9.899L295.658,48.106z"/>
</g>
<g class="st1">
	<path d="M314.469,73.125V13.008l10.619-1.44v61.558H314.469z"/>
</g>
<g class="st1">
	<path d="M336.428,73.125V13.008l10.619-1.44v61.558H336.428z"/>
</g>
<g class="st1">
	<path d="M90.103,147.016c0,9.27-5.58,16.109-21.869,16.109H46.365v-56.248h21.509c15.209,0,20.429,6.3,20.429,14.85
		c0,6.03-3.6,10.08-10.08,12.239C85.604,135.586,90.103,140.355,90.103,147.016z M67.514,115.697c-0.45,0-10.35,0-10.35,0v15.299
		c0,0,9.27,0,9.45,0c7.02,0,10.709-2.97,10.709-7.829C77.324,118.396,73.904,115.697,67.514,115.697z M67.244,139.006
		c-0.18,0-10.08,0-10.08,0v15.3c0,0,10.26,0,10.89,0c7.379,0,10.979-2.61,10.979-7.74C79.034,140.986,74.174,139.006,67.244,139.006
		z"/>
</g>
<g class="st1">
	<path d="M106.934,144.676c0.45,6.75,5.04,11.34,12.419,11.34c4.41,0,9.179-1.44,12.959-3.78l1.35,8.819
		c-3.959,2.16-9.449,3.42-15.029,3.42c-13.319,0-22.139-8.459-22.139-21.688c0-13.5,9-22.499,21.419-22.499
		c10.979,0,17.099,6.659,17.099,16.829c0,2.25-0.36,5.13-0.9,6.93c-0.09,0-27.179,0.36-27.179,0.36V144.676z M125.022,138.106
		c0-0.181,0-0.631,0-0.721c0-5.579-2.43-9.089-7.919-9.089c-5.85,0-9.36,4.77-9.9,9.899L125.022,138.106z"/>
</g>
<g class="st1">
	<path d="M170.832,163.125v-25.289c0-6.12-2.43-8.189-7.2-8.189c-3.689,0-7.109,1.89-9.179,3.87v29.608h-10.62v-41.309l10.62-1.439
		c0,0,0,6.3,0,6.569c3.689-4.05,8.64-6.659,13.679-6.659c8.37,0,13.319,5.399,13.319,14.309v28.529H170.832z"/>
</g>
<g class="st1">
	<path d="M244.63,163.125v-25.199c0-6.119-2.43-8.279-6.84-8.279c-3.689,0-6.569,1.89-8.64,3.689v2.521v27.269h-10.619v-25.199
		c0-6.119-2.34-8.279-6.75-8.279c-3.78,0-6.66,1.53-8.64,3.42v30.059h-10.619v-41.309l10.619-1.439c0,0,0,5.489,0,5.85
		c3.87-3.87,8.1-5.939,13.229-5.939c5.04,0,9.27,2.43,11.34,7.109c4.14-4.5,9.089-7.109,14.759-7.109
		c7.83,0,12.78,5.399,12.78,14.399v28.438H244.63z"/>
</g>
<g class="st1">
	<path d="M288.009,158.355c-2.97,3.6-6.569,6.119-11.699,6.119c-7.47,0-12.869-5.13-12.869-11.699
		c0-7.649,5.579-14.129,24.568-14.76v-0.989c0-5.58-2.34-7.92-8.279-7.92c-4.229,0-9.359,1.89-13.77,4.41l-2.16-8.37
		c4.05-2.52,10.53-4.859,17.37-4.859c12.779,0,17.729,5.669,17.459,17.099v14.85c0,3.15,0.54,3.6,3.689,3.78l-0.81,8.01
		c-7.92,0.899-11.609-1.53-13.14-5.67H288.009z M288.009,143.596c-10.35,1.26-14.129,3.33-14.129,7.74
		c0,3.149,2.43,5.399,6.21,5.399c3.329,0,6.029-1.53,7.919-3.6V143.596z"/>
</g>
<g class="st1">
	<path d="M336.518,163.125v-25.289c0-6.12-2.43-8.189-7.199-8.189c-3.689,0-7.109,1.89-9.18,3.87v29.608H309.52v-41.309
		l10.619-1.439c0,0,0,6.3,0,6.569c3.689-4.05,8.641-6.659,13.68-6.659c8.369,0,13.319,5.399,13.319,14.309v28.529H336.518z"/>
</g>
</svg>
