<?xml version="1.0" standalone="no"?>
<!DOCTYPE svg PUBLIC "-//W3C//DTD SVG 20010904//EN"
 "http://www.w3.org/TR/2001/REC-SVG-20010904/DTD/svg10.dtd">
<svg version="1.0" xmlns="http://www.w3.org/2000/svg"
 width="700.000000pt" height="700.000000pt" viewBox="0 0 700.000000 700.000000"
 preserveAspectRatio="xMidYMid meet">
<metadata>
Created by potrace 1.14, written by Peter Selinger 2001-2017
</metadata>
<g transform="translate(0.000000,700.000000) scale(0.100000,-0.100000)"
fill="#000000" stroke="none">
<path d="M176 6798 c-6 -19 -114 -3142 -109 -3150 2 -5 170 -8 372 -8 l369 0
6 418 c3 229 9 775 12 1212 4 437 9 788 12 780 3 -8 159 -541 346 -1185 l341
-1170 424 -3 c234 -1 428 1 432 5 4 5 161 536 348 1182 188 646 343 1177 346
1179 3 3 6 -215 6 -484 1 -269 5 -813 8 -1209 l6 -720 374 -3 c206 -1 378 1
382 5 6 7 -80 2726 -97 3041 l-6 122 -560 -2 -561 -3 -326 -1177 c-179 -648
-328 -1178 -331 -1178 -3 0 -152 530 -331 1178 l-326 1177 -567 3 c-448 2
-567 0 -570 -10z"/>
<path d="M4150 1825 l0 -1585 658 0 c944 1 1147 14 1388 91 321 103 511 285
584 564 31 117 38 317 15 421 -59 271 -266 475 -562 556 -46 13 -83 25 -83 28
0 3 35 17 78 32 116 41 227 111 307 192 125 127 177 263 177 465 -1 199 -42
343 -135 466 -124 165 -328 270 -617 319 -175 29 -371 36 -1092 36 l-718 0 0
-1585z m1461 965 c123 -24 224 -94 270 -188 19 -39 23 -64 24 -148 0 -96 -2
-104 -35 -170 -54 -106 -154 -170 -305 -194 -33 -5 -189 -10 -347 -10 l-288 0
0 360 0 360 314 0 c172 0 337 -5 367 -10z m66 -1235 c221 -42 332 -169 321
-369 -9 -169 -85 -257 -273 -314 -40 -12 -126 -16 -422 -19 l-373 -5 0 361 0
361 334 0 c255 0 353 -4 413 -15z"/>
</g>
</svg>
