<?xml version="1.0" encoding="utf-8"?>
<!-- Generator: Adobe Illustrator 25.2.3, SVG Export Plug-In . SVG Version: 6.00 Build 0)  -->
<svg version="1.1" id="Layer_1" xmlns="http://www.w3.org/2000/svg" xmlns:xlink="http://www.w3.org/1999/xlink" x="0px" y="0px"
	 viewBox="0 0 200 200" style="enable-background:new 0 0 200 200;" xml:space="preserve">
<style type="text/css">
	.st0{fill:none;}
</style>
<g>
	<circle class="st0" cx="100" cy="100" r="57.25"/>
	<path d="M58.642,54.302c-1.181-1.936-0.683-4.644,1.19-6.862c-3.082,0.236-6.066-1.233-7.866-4.183
		c-2.671-4.379-1.492-10.222,4.408-13.822c2.397-1.462,4.939-2.065,6.808-2.319l5.407-3.994l3.127,4.607l-4.478,1.783
		c0.918,0.262,2.318,1.622,2.993,2.729c2.644,4.333,1.083,9.966-4.172,13.172c-1.014,0.619-1.808,0.976-3.129,1.403
		c-0.569,0.727-1.069,1.98-0.535,2.856c0.703,1.153,1.98,1.069,5.392-1.012c0,0,2.535-1.547,2.213-1.35
		c6.084-3.712,10.583-4.116,13.113,0.033c3.065,5.024-0.496,11.941-7.226,16.046c-5.624,3.431-11.361,4.084-13.695,0.258
		c-1.35-2.212-0.946-5.179,1.926-7.626C61.881,56.5,59.683,56.007,58.642,54.302z M63.986,41.807
		c2.443-1.49,2.758-4.086,1.126-6.759c-1.547-2.535-3.952-3.472-6.672-1.812c-2.397,1.462-2.821,4.188-1.19,6.862
		C58.797,42.632,61.358,43.41,63.986,41.807z M66.45,59.532c1.209,1.982,4.496,1.875,8.092-0.319
		c3.734-2.278,5.748-5.404,4.398-7.617c-1.209-1.982-3.427-1.262-7.391,1.157c-1.337,0.815-3.237,1.848-4.169,2.29
		C66.197,56.524,65.663,58.242,66.45,59.532z"/>
	<path d="M88.854,43.829l-6.268,1.149l-4.458-24.327l6.102-2.052l0.73,3.984c1.063-2.885,2.766-4.679,5.634-5.205
		c1.487-0.272,3.086-0.236,4.56,0.317l-0.349,5.884c-1.286-0.423-2.513-0.528-3.681-0.314c-2.178,0.399-3.943,2.15-5.044,5.427
		L88.854,43.829z"/>
	<path d="M113.563,41.323c-2.119,1.831-4.503,2.958-7.537,2.442c-4.419-0.752-7.096-4.331-6.435-8.217
		c0.771-4.525,4.724-7.796,16.021-6.256l0.1-0.585c0.562-3.301-0.587-4.921-4.101-5.519c-2.502-0.426-5.727,0.175-8.59,1.222
		l-0.435-5.168c2.649-1.083,6.719-1.814,10.765-1.125c7.56,1.287,9.917,5.14,8.606,11.874l-1.496,8.784
		c-0.317,1.863-0.043,2.184,1.802,2.608l-1.285,4.656c-4.775-0.265-6.714-2.074-7.202-4.677L113.563,41.323z M115.05,32.592
		c-6.249-0.297-8.693,0.547-9.138,3.155c-0.317,1.863,0.894,3.439,3.13,3.82c1.97,0.335,3.721-0.298,5.047-1.332L115.05,32.592z"/>
	<path d="M147.777,32.156c5.472,3.669,6.081,10.515,1.811,16.883c-4.421,6.592-12.062,8.099-17.938,4.159
		c-1.346-0.902-2.974-2.254-4.004-3.53l-6.586,9.821l-5.292-3.549l20.421-30.45l5.772,2.832c0,0-1.653,2.466-1.744,2.601
		C142.511,30.51,145.266,30.472,147.777,32.156z M130.864,44.87c0.476,1.424,1.551,2.73,3.12,3.783
		c3.543,2.376,7.485,0.859,10.072-2.998c2.706-4.036,2.492-7.886-0.781-10.081c-1.749-1.173-3.546-1.403-5.403-1.153
		C137.962,34.286,130.864,44.87,130.864,44.87z"/>
	<path d="M151.791,75.07l13.043-7.752c3.156-1.876,3.479-3.764,2.1-6.084c-1.214-2.042-3.237-3.227-4.893-3.688l-15.271,9.076
		l-3.255-5.477l31.007-18.429l3.998,5.036c0,0-12.719,7.559-13.044,7.752c3.22,0.662,6.037,2.442,7.692,5.227
		c2.455,4.131,1.188,8.339-3.407,11.071l-14.715,8.745L151.791,75.07z"/>
	<path d="M155.267,84.674l24.167-5.255l2.251,6.031l-25.063,5.45L155.267,84.674z M184.701,81.533
		c-0.528-2.427,0.65-4.12,2.92-4.614c2.216-0.482,4.044,0.557,4.572,2.984c0.539,2.48-0.692,4.185-2.908,4.667
		C187.016,85.064,185.24,84.013,184.701,81.533z"/>
	<path d="M156.103,106.445c0.657-8.072,6.052-12.455,14.179-11.793c8.072,0.657,12.863,6.356,12.229,14.16
		c-0.276,3.39-1.266,6.235-2.795,8.386l-5.004-1.762c1.458-1.939,2.351-4.251,2.539-6.564c0.372-4.574-2.548-7.305-7.338-7.694
		c-5.059-0.412-8.251,2.2-8.592,6.397c-0.211,2.583,0.296,5.009,1.377,7.047l-5.25,0.602
		C156.331,112.965,155.831,109.782,156.103,106.445z"/>
	<path d="M149.63,130.613l23.295,11.709l-4.544,4.844l-15.715-8.818l9.322,15.556l-4.359,4.646l-16.299-7.959l10.132,14.612
		l-4.617,4.923l-13.247-22.42l4.285-4.568l16.564,7.912l-9.065-15.907L149.63,130.613z"/>
	<path d="M126.214,163.329c-1.512-3.768-4.984-5.532-9.195-4.16c-2.516,0.82-4.969,2.529-6.69,4.567l-2.41-4.781
		c1.857-1.969,4.755-3.708,7.938-4.746c7.599-2.478,14.204,0.709,16.665,8.257c2.511,7.701-0.95,14.51-8.035,16.82
		c-6.265,2.042-10.995-0.619-12.887-6.422c-0.418-1.283-0.748-2.993-0.775-4.121c0.052-0.017,15.439-5.26,15.439-5.26
		L126.214,163.329z M117.115,170.441c0.033,0.104,0.117,0.359,0.134,0.411c1.038,3.184,3.077,4.734,6.209,3.713
		c3.338-1.088,4.453-4.462,3.807-7.489L117.115,170.441z"/>
	<path d="M93.387,156.111c1.61,0.179,3.882,0.757,5.432,1.472l6.165-0.239l-4.064,36.653l-6.428,0.156
		c0,0,1.559-14.061,1.589-14.329c-1.842,1.426-4.269,2.732-7.274,2.399c-6.547-0.727-10.251-6.516-9.406-14.136
		C80.276,160.199,86.357,155.332,93.387,156.111z M91.221,177.112c2.093,0.232,3.792-0.394,5.324-1.474
		c-0.018,0.161,1.387-12.504,1.387-12.504c-1.08-1.043-2.636-1.705-4.514-1.913c-4.239-0.47-7.035,2.696-7.547,7.312
		C85.335,173.363,87.304,176.679,91.221,177.112z"/>
	<path d="M48.268,164.002l10.235-11.203c2.477-2.712,2.162-4.608,0.168-6.43c-1.674-1.53-3.842-2.12-5.484-2.084l-12.056,13.197
		l-4.705-4.298l16.682-18.261l5.288,3.66c0,0-2.331,2.552-2.477,2.711c3.008-0.251,6.257,0.596,8.61,2.745
		c3.588,3.278,3.596,7.674-0.01,11.621L52.973,168.3L48.268,164.002z"/>
	<path d="M24.433,142.475c1.218,2.164,0.588,4.129-1.435,5.268c-1.977,1.112-4.029,0.656-5.247-1.509
		c-1.245-2.212-0.568-4.203,1.408-5.314C21.182,139.78,23.188,140.263,24.433,142.475z M51.641,130.822l-21.553,12.125l-3.924-5.103
		l22.353-12.575L51.641,130.822z"/>
	<path d="M17.887,105.442l15.174-0.095c3.672-0.022,4.851-1.542,4.834-4.242c-0.014-2.268-1.052-4.259-2.194-5.44l-17.874,0.111
		l-0.04-6.372l24.732-0.154l0.904,6.367c0,0-3.456,0.021-3.672,0.022c2.227,2.039,3.811,4.999,3.831,8.185
		c0.03,4.86-3.191,7.851-8.538,7.884l-17.118,0.106L17.887,105.442z"/>
	<path d="M49.374,72.687l-10.28,1.578l6.057,8.42l-2.731,6.467L34.02,76.284l-14.407,2.883l2.689-6.367l9.408-1.595l-5.479-7.708
		l2.71-6.417l7.962,12.097l15.159-2.859L49.374,72.687z"/>
</g>
</svg>
