<?xml version="1.0" encoding="utf-8"?>
<!-- Generator: Adobe Illustrator 25.2.3, SVG Export Plug-In . SVG Version: 6.00 Build 0)  -->
<svg version="1.1" xmlns="http://www.w3.org/2000/svg" xmlns:xlink="http://www.w3.org/1999/xlink" x="0px" y="0px"
	 viewBox="0 0 595.276 841.89" style="enable-background:new 0 0 595.276 841.89;" xml:space="preserve">
<style type="text/css">
	.st0{fill:#8C8C8C;}
	.st1{fill:#8E8E8E;}
	.st2{fill:#898989;}
	.st3{fill:#848484;}
	.st4{fill:none;}
	.st5{fill:#FFFFFF;}
	.st6{fill:none;stroke:#FFFFFF;stroke-width:6;stroke-miterlimit:10;}
	.st7{fill:#383838;}
	.st8{fill:#5E5F5F;}
</style>
<g id="background">
	<rect class="st0" width="595.276" height="841.89"/>
	<polygon class="st1" points="595.143,97.924 0,366.667 595.726,607.778 	"/>
	<polygon class="st2" points="0,366.667 595.726,607.778 595.276,841.89 0,841.89 	"/>
	<polygon class="st0" points="595.143,97.924 0,722.427 595.726,729.298 	"/>
</g>
<g id="coooling_tower_fill">
	<path class="st0" d="M595.726,563.429c0,0-453.772-11.207-453.772-90.27c0,0,44.66,167.482-13.592,368.828l468.43,1.402
		L595.726,563.429z"/>
	<path class="st3" d="M595.281,384.434c0,0-453.326,0.512-453.326,88.725c0,77.952,453.772,90.27,453.772,90.27L595.281,384.434z"/>
</g>
<g id="cooling_tower">
	<g>
		<rect x="31.384" y="47.543" class="st4" width="387.356" height="154.023"/>
		<path class="st5" d="M87.288,49.603L76.068,83.9h-8.525l-7.545-23.224L52.207,83.9h-8.476L32.462,49.603h8.231l7.742,24.106
			l8.084-24.106h7.35l7.839,24.302l7.986-24.302H87.288z"/>
		<path class="st5" d="M114.877,72.876H94.936c0.735,3.283,3.528,5.292,7.545,5.292c2.792,0,4.802-0.833,6.614-2.548l4.067,4.41
			c-2.45,2.792-6.125,4.263-10.877,4.263c-9.113,0-15.042-5.732-15.042-13.572c0-7.889,6.026-13.572,14.062-13.572
			c7.741,0,13.719,5.194,13.719,13.67C115.024,71.406,114.926,72.239,114.877,72.876z M94.838,68.417h12.984
			c-0.539-3.332-3.038-5.487-6.467-5.487C97.876,62.93,95.377,65.037,94.838,68.417z"/>
		<path class="st5" d="M127.814,51.856c0,1.274-0.196,2.205-1.274,4.9l-2.842,7.055h-4.851l2.107-7.741
			c-1.568-0.686-2.597-2.156-2.597-4.214c0-2.842,2.058-4.704,4.752-4.704C125.855,47.153,127.814,49.064,127.814,51.856z"/>
		<path class="st5" d="M159.858,57.54L148.736,83.9h-7.888l-11.073-26.36h7.889l7.3,17.933l7.545-17.933H159.858z"/>
		<path class="st5" d="M187.936,72.876h-19.941c0.735,3.283,3.528,5.292,7.545,5.292c2.793,0,4.802-0.833,6.614-2.548l4.067,4.41
			c-2.45,2.792-6.125,4.263-10.877,4.263c-9.113,0-15.042-5.732-15.042-13.572c0-7.889,6.026-13.572,14.062-13.572
			c7.741,0,13.719,5.194,13.719,13.67C188.083,71.406,187.984,72.239,187.936,72.876z M167.896,68.417h12.984
			c-0.539-3.332-3.038-5.487-6.467-5.487C170.934,62.93,168.435,65.037,167.896,68.417z"/>
		<path class="st5" d="M234.24,57.54v21.95c0,9.799-5.292,14.307-14.797,14.307c-4.998,0-9.848-1.225-12.935-3.625l3.038-5.488
			c2.254,1.813,5.929,2.989,9.31,2.989c5.389,0,7.741-2.45,7.741-7.202v-1.127c-2.009,2.205-4.899,3.283-8.33,3.283
			c-7.3,0-13.18-5.046-13.18-12.739s5.879-12.739,13.18-12.739c3.675,0,6.713,1.225,8.722,3.773V57.54H234.24z M226.695,69.887
			c0-3.871-2.891-6.468-6.909-6.468s-6.958,2.597-6.958,6.468s2.94,6.467,6.958,6.467S226.695,73.758,226.695,69.887z"/>
		<path class="st5" d="M239.387,70.72c0-7.938,6.125-13.572,14.503-13.572s14.454,5.635,14.454,13.572
			c0,7.937-6.075,13.572-14.454,13.572S239.387,78.657,239.387,70.72z M260.603,70.72c0-4.557-2.891-7.301-6.712-7.301
			s-6.762,2.744-6.762,7.301c0,4.556,2.94,7.3,6.762,7.3S260.603,75.276,260.603,70.72z"/>
		<path class="st5" d="M290.443,82.626c-1.568,1.127-3.871,1.666-6.223,1.666c-6.222,0-9.848-3.185-9.848-9.457V64.007h-4.066
			v-5.879h4.066v-6.418h7.644v6.418h6.565v5.879h-6.565v10.73c0,2.254,1.225,3.479,3.283,3.479c1.127,0,2.254-0.343,3.087-0.98
			L290.443,82.626z"/>
		<path class="st5" d="M51.913,131.626c-1.568,1.127-3.871,1.666-6.223,1.666c-6.222,0-9.848-3.185-9.848-9.457v-10.828h-4.066
			v-5.879h4.066v-6.418h7.644v6.418h6.565v5.879h-6.565v10.73c0,2.254,1.225,3.479,3.283,3.479c1.127,0,2.254-0.343,3.087-0.98
			L51.913,131.626z"/>
		<path class="st5" d="M83.174,117.809V132.9h-7.644v-13.915c0-4.263-1.96-6.222-5.34-6.222c-3.675,0-6.321,2.254-6.321,7.104V132.9
			h-7.643V96.545h7.643v12.739c2.058-2.058,4.998-3.136,8.378-3.136C78.471,106.148,83.174,109.774,83.174,117.809z"/>
		<path class="st5" d="M116.053,121.876H96.112c0.735,3.283,3.528,5.292,7.545,5.292c2.792,0,4.802-0.833,6.614-2.548l4.067,4.41
			c-2.45,2.792-6.125,4.263-10.877,4.263c-9.113,0-15.042-5.732-15.042-13.572c0-7.889,6.026-13.572,14.062-13.572
			c7.741,0,13.719,5.194,13.719,13.67C116.2,120.406,116.102,121.239,116.053,121.876z M96.014,117.417h12.984
			c-0.539-3.332-3.038-5.487-6.467-5.487C99.052,111.93,96.553,114.037,96.014,117.417z"/>
		<path class="st5" d="M163.876,119.72c0,8.28-5.732,13.572-13.131,13.572c-3.283,0-5.978-1.029-7.938-3.185v12.298h-7.643V106.54
			h7.3v3.038c1.911-2.303,4.752-3.43,8.28-3.43C158.144,106.148,163.876,111.439,163.876,119.72z M156.135,119.72
			c0-4.557-2.891-7.301-6.712-7.301s-6.712,2.744-6.712,7.301c0,4.556,2.891,7.3,6.712,7.3S156.135,124.276,156.135,119.72z"/>
		<path class="st5" d="M167.015,119.72c0-7.938,6.125-13.572,14.503-13.572s14.454,5.635,14.454,13.572
			c0,7.937-6.075,13.572-14.454,13.572S167.015,127.657,167.015,119.72z M188.23,119.72c0-4.557-2.891-7.301-6.712-7.301
			s-6.762,2.744-6.762,7.301c0,4.556,2.94,7.3,6.762,7.3S188.23,124.276,188.23,119.72z"/>
		<path class="st5" d="M242.667,106.54l-9.554,26.36h-7.35l-5.928-16.365L213.71,132.9h-7.35l-9.505-26.36h7.203l6.223,17.834
			l6.467-17.834h6.467l6.271,17.834l6.418-17.834H242.667z"/>
		<path class="st5" d="M271.186,121.876h-19.941c0.735,3.283,3.528,5.292,7.545,5.292c2.793,0,4.802-0.833,6.614-2.548l4.067,4.41
			c-2.45,2.792-6.125,4.263-10.877,4.263c-9.113,0-15.042-5.732-15.042-13.572c0-7.889,6.026-13.572,14.062-13.572
			c7.741,0,13.719,5.194,13.719,13.67C271.333,120.406,271.234,121.239,271.186,121.876z M251.146,117.417h12.984
			c-0.539-3.332-3.038-5.487-6.467-5.487C254.184,111.93,251.685,114.037,251.146,117.417z"/>
		<path class="st5" d="M292.795,106.148v7.056c-0.637-0.049-1.127-0.098-1.715-0.098c-4.214,0-7.007,2.303-7.007,7.35V132.9h-7.643
			v-26.36h7.3v3.479C285.593,107.471,288.729,106.148,292.795,106.148z"/>
	</g>
	<path class="st5" d="M595.276,843.39H124.473l-1.683-1.5c32.697-90.039,35.119-185.242,31.393-249.252
		c-3.118-53.569-15.008-114.323-15.008-116.98l4.965-2.499c-0.894,0.707-0.088,2.251,0.895,6.845
		c8.873,19.272,54.759,38.119,128.935,52.565c84.479,16.454,198.596,26.332,321.328,27.814l1.496,0.019l-0.017,1.691V841.89h-1.5
		V843.39z M595.726,563.429c-122.342-1.546-238.02-11.493-322.331-27.914c-41.564-8.096-74.142-17.408-96.828-27.681
		c-14.048-6.36-23.374-12.246-29.234-19.104c3.884,19.692,9.527,56.372,12.254,103.152c3.721,63.835,0.967,160.158-31.225,250.104
		l466.914-0.098"/>
	<path class="st6" d="M595.278,561.884c-253.157-3.058-453.324-41.613-453.324-88.725c0-47.112,200.168-85.667,453.326-88.725"/>
	<g>
		<rect x="270.593" y="214.1" class="st4" width="302.961" height="127.494"/>
		<path class="st5" d="M279.181,214.608v8.396h-1.283l-4.63-5.685v5.685h-1.547v-8.396h1.283l4.629,5.685v-5.685H279.181z"/>
		<path class="st5" d="M287.498,216.6v6.404h-1.427v-0.815c-0.479,0.587-1.235,0.899-2.063,0.899c-1.643,0-2.758-0.899-2.758-2.831
			V216.6h1.499v3.454c0,1.163,0.552,1.715,1.499,1.715c1.043,0,1.751-0.647,1.751-1.931V216.6H287.498z"/>
		<path class="st5" d="M288.941,219.802c0-1.919,1.439-3.274,3.466-3.274c1.247,0,2.243,0.516,2.734,1.487l-1.151,0.672
			c-0.384-0.612-0.959-0.888-1.595-0.888c-1.103,0-1.943,0.768-1.943,2.003c0,1.247,0.84,2.003,1.943,2.003
			c0.636,0,1.211-0.276,1.595-0.888l1.151,0.672c-0.492,0.959-1.487,1.499-2.734,1.499
			C290.38,223.088,288.941,221.721,288.941,219.802z"/>
		<path class="st5" d="M296.38,214.105h1.499v8.899h-1.499V214.105z"/>
		<path class="st5" d="M305.845,220.281h-5.024c0.18,0.936,0.959,1.535,2.074,1.535c0.72,0,1.283-0.228,1.739-0.695l0.804,0.923
			c-0.576,0.684-1.476,1.043-2.579,1.043c-2.146,0-3.538-1.379-3.538-3.286c0-1.907,1.403-3.274,3.311-3.274
			c1.871,0,3.238,1.308,3.238,3.311C305.869,219.958,305.857,220.138,305.845,220.281z M300.808,219.286h3.634
			c-0.119-0.924-0.827-1.56-1.811-1.56C301.659,217.727,300.951,218.351,300.808,219.286z"/>
		<path class="st5" d="M312.494,219.25v3.754h-1.416v-0.78c-0.359,0.552-1.055,0.864-2.015,0.864c-1.464,0-2.387-0.804-2.387-1.919
			c0-1.067,0.72-1.907,2.663-1.907h1.654v-0.096c0-0.875-0.527-1.391-1.596-1.391c-0.719,0-1.463,0.24-1.942,0.636l-0.587-1.092
			c0.684-0.527,1.679-0.792,2.71-0.792C311.426,216.527,312.494,217.403,312.494,219.25z M310.994,221.001v-0.744h-1.547
			c-1.02,0-1.295,0.384-1.295,0.852c0,0.54,0.455,0.888,1.223,0.888C310.107,221.997,310.742,221.661,310.994,221.001z"/>
		<path class="st5" d="M318.123,216.527v1.427c-0.133-0.024-0.24-0.036-0.348-0.036c-1.141,0-1.859,0.671-1.859,1.979v3.106h-1.5
			V216.6h1.428v0.936C316.275,216.863,317.055,216.527,318.123,216.527z"/>
		<path class="st5" d="M329.569,219.802c0,1.991-1.38,3.286-3.251,3.286c-0.815,0-1.535-0.276-2.051-0.864v3.106h-1.499V216.6h1.427
			v0.839c0.504-0.612,1.248-0.912,2.123-0.912C328.189,216.527,329.569,217.823,329.569,219.802z M328.046,219.802
			c0-1.224-0.815-2.003-1.896-2.003c-1.079,0-1.906,0.779-1.906,2.003c0,1.223,0.827,2.003,1.906,2.003
			C327.23,221.805,328.046,221.025,328.046,219.802z"/>
		<path class="st5" d="M334.706,216.527v1.427c-0.132-0.024-0.24-0.036-0.348-0.036c-1.14,0-1.859,0.671-1.859,1.979v3.106H331
			V216.6h1.428v0.936C332.859,216.863,333.639,216.527,334.706,216.527z"/>
		<path class="st5" d="M335.394,219.802c0-1.919,1.438-3.274,3.406-3.274c1.99,0,3.418,1.355,3.418,3.274s-1.428,3.286-3.418,3.286
			C336.832,223.088,335.394,221.721,335.394,219.802z M340.706,219.802c0-1.224-0.815-2.003-1.906-2.003
			c-1.08,0-1.896,0.779-1.896,2.003c0,1.223,0.815,2.003,1.896,2.003C339.891,221.805,340.706,221.025,340.706,219.802z"/>
		<path class="st5" d="M349.934,214.105v8.899h-1.439v-0.828c-0.503,0.612-1.247,0.912-2.122,0.912
			c-1.859,0-3.238-1.295-3.238-3.286c0-1.991,1.379-3.274,3.238-3.274c0.827,0,1.559,0.276,2.062,0.864v-3.286H349.934z
			 M348.459,219.802c0-1.224-0.828-2.003-1.907-2.003s-1.907,0.779-1.907,2.003c0,1.223,0.828,2.003,1.907,2.003
			S348.459,221.025,348.459,219.802z"/>
		<path class="st5" d="M358.105,216.6v6.404h-1.427v-0.815c-0.479,0.587-1.235,0.899-2.062,0.899c-1.644,0-2.759-0.899-2.759-2.831
			V216.6h1.499v3.454c0,1.163,0.552,1.715,1.499,1.715c1.044,0,1.751-0.647,1.751-1.931V216.6H358.105z"/>
		<path class="st5" d="M359.55,219.802c0-1.919,1.438-3.274,3.466-3.274c1.247,0,2.243,0.516,2.734,1.487l-1.151,0.672
			c-0.384-0.612-0.959-0.888-1.595-0.888c-1.104,0-1.943,0.768-1.943,2.003c0,1.247,0.84,2.003,1.943,2.003
			c0.636,0,1.211-0.276,1.595-0.888l1.151,0.672c-0.491,0.959-1.487,1.499-2.734,1.499
			C360.988,223.088,359.55,221.721,359.55,219.802z"/>
		<path class="st5" d="M372.949,220.281h-5.025c0.18,0.936,0.959,1.535,2.074,1.535c0.72,0,1.284-0.228,1.739-0.695l0.804,0.923
			c-0.575,0.684-1.475,1.043-2.578,1.043c-2.147,0-3.538-1.379-3.538-3.286c0-1.907,1.403-3.274,3.31-3.274
			c1.871,0,3.238,1.308,3.238,3.311C372.973,219.958,372.961,220.138,372.949,220.281z M367.912,219.286h3.634
			c-0.12-0.924-0.828-1.56-1.812-1.56C368.764,217.727,368.056,218.351,367.912,219.286z"/>
		<path class="st5" d="M373.685,222.368l0.575-1.139c0.564,0.372,1.428,0.636,2.231,0.636c0.947,0,1.343-0.264,1.343-0.708
			c0-1.223-3.958-0.072-3.958-2.626c0-1.211,1.092-2.003,2.819-2.003c0.851,0,1.822,0.204,2.398,0.552l-0.576,1.14
			c-0.611-0.36-1.223-0.48-1.835-0.48c-0.911,0-1.343,0.3-1.343,0.72c0,1.295,3.958,0.144,3.958,2.65
			c0,1.199-1.104,1.979-2.903,1.979C375.327,223.088,374.26,222.776,373.685,222.368z"/>
		<path class="st5" d="M389.412,220.485c0,1.415-1.067,2.639-3.322,2.639c-1.188,0-2.374-0.36-3.154-0.972l0.672-1.211
			c0.6,0.504,1.511,0.828,2.459,0.828c1.115,0,1.774-0.492,1.774-1.271c0-0.755-0.552-1.247-1.822-1.247h-0.768v-1.067l1.906-2.267
			h-3.813v-1.308h5.721v1.043l-2.039,2.423C388.608,218.278,389.412,219.226,389.412,220.485z"/>
		<path class="st5" d="M390.435,218.806c0-2.758,1.512-4.317,3.503-4.317c2.002,0,3.514,1.559,3.514,4.317s-1.512,4.318-3.514,4.318
			C391.946,223.124,390.435,221.564,390.435,218.806z M395.88,218.806c0-2.027-0.792-2.962-1.942-2.962
			c-1.14,0-1.932,0.936-1.932,2.962s0.792,2.962,1.932,2.962C395.088,221.769,395.88,220.833,395.88,218.806z"/>
		<path class="st5" d="M398.511,218.806c0-2.758,1.512-4.317,3.503-4.317c2.002,0,3.514,1.559,3.514,4.317s-1.512,4.318-3.514,4.318
			C400.022,223.124,398.511,221.564,398.511,218.806z M403.956,218.806c0-2.027-0.792-2.962-1.942-2.962
			c-1.14,0-1.932,0.936-1.932,2.962s0.792,2.962,1.932,2.962C403.164,221.769,403.956,220.833,403.956,218.806z"/>
		<path class="st5" d="M411.001,223.004l-1.644-2.219l-1.655,2.219h-1.654l2.494-3.25l-2.387-3.154h1.667l1.571,2.099l1.571-2.099
			h1.619l-2.398,3.13l2.506,3.274H411.001z"/>
		<path class="st5" d="M417.11,214.105h1.499v8.899h-1.499V214.105z"/>
		<path class="st5" d="M426.576,220.281h-5.025c0.18,0.936,0.959,1.535,2.074,1.535c0.72,0,1.284-0.228,1.739-0.695l0.804,0.923
			c-0.575,0.684-1.475,1.043-2.578,1.043c-2.147,0-3.538-1.379-3.538-3.286c0-1.907,1.403-3.274,3.31-3.274
			c1.871,0,3.238,1.308,3.238,3.311C426.6,219.958,426.588,220.138,426.576,220.281z M421.539,219.286h3.634
			c-0.12-0.924-0.828-1.56-1.812-1.56C422.391,217.727,421.683,218.351,421.539,219.286z"/>
		<path class="st5" d="M427.311,222.368l0.575-1.139c0.564,0.372,1.428,0.636,2.231,0.636c0.947,0,1.343-0.264,1.343-0.708
			c0-1.223-3.958-0.072-3.958-2.626c0-1.211,1.092-2.003,2.818-2.003c0.852,0,1.823,0.204,2.399,0.552l-0.576,1.14
			c-0.611-0.36-1.223-0.48-1.835-0.48c-0.911,0-1.343,0.3-1.343,0.72c0,1.295,3.958,0.144,3.958,2.65
			c0,1.199-1.104,1.979-2.903,1.979C428.953,223.088,427.886,222.776,427.311,222.368z"/>
		<path class="st5" d="M433.49,222.368l0.575-1.139c0.564,0.372,1.428,0.636,2.231,0.636c0.947,0,1.343-0.264,1.343-0.708
			c0-1.223-3.958-0.072-3.958-2.626c0-1.211,1.092-2.003,2.818-2.003c0.852,0,1.823,0.204,2.399,0.552l-0.576,1.14
			c-0.611-0.36-1.223-0.48-1.835-0.48c-0.911,0-1.343,0.3-1.343,0.72c0,1.295,3.958,0.144,3.958,2.65
			c0,1.199-1.104,1.979-2.903,1.979C435.133,223.088,434.065,222.776,433.49,222.368z"/>
		<path class="st5" d="M447.563,222.656c-0.359,0.288-0.899,0.432-1.438,0.432c-1.403,0-2.207-0.744-2.207-2.159v-3.083h-1.056
			v-1.199h1.056v-1.463h1.499v1.463h1.715v1.199h-1.715v3.046c0,0.624,0.312,0.959,0.888,0.959c0.312,0,0.611-0.084,0.84-0.264
			L447.563,222.656z"/>
		<path class="st5" d="M448.058,219.802c0-1.919,1.438-3.274,3.406-3.274c1.99,0,3.418,1.355,3.418,3.274s-1.428,3.286-3.418,3.286
			C449.496,223.088,448.058,221.721,448.058,219.802z M453.37,219.802c0-1.224-0.815-2.003-1.906-2.003
			c-1.08,0-1.896,0.779-1.896,2.003c0,1.223,0.815,2.003,1.896,2.003C452.555,221.805,453.37,221.025,453.37,219.802z"/>
		<path class="st5" d="M460.188,223.004l-1.644-2.219l-1.655,2.219h-1.654l2.494-3.25l-2.387-3.154h1.667l1.571,2.099l1.571-2.099
			h1.619l-2.398,3.13l2.506,3.274H460.188z"/>
		<path class="st5" d="M462.781,214.645c0-0.504,0.408-0.899,0.96-0.899s0.959,0.372,0.959,0.863c0,0.528-0.396,0.936-0.959,0.936
			C463.189,215.544,462.781,215.148,462.781,214.645z M462.985,216.6h1.499v6.404h-1.499V216.6z"/>
		<path class="st5" d="M465.926,219.802c0-1.919,1.438-3.274,3.466-3.274c1.247,0,2.243,0.516,2.734,1.487l-1.151,0.672
			c-0.384-0.612-0.959-0.888-1.595-0.888c-1.104,0-1.943,0.768-1.943,2.003c0,1.247,0.84,2.003,1.943,2.003
			c0.636,0,1.211-0.276,1.595-0.888l1.151,0.672c-0.491,0.959-1.487,1.499-2.734,1.499
			C467.364,223.088,465.926,221.721,465.926,219.802z"/>
		<path class="st5" d="M486.727,216.6l-2.362,6.404h-1.439l-1.655-4.414l-1.679,4.414h-1.439l-2.351-6.404h1.415l1.691,4.725
			l1.763-4.725h1.26l1.727,4.749l1.739-4.749H486.727z"/>
		<path class="st5" d="M492.923,219.25v3.754h-1.415v-0.78c-0.36,0.552-1.056,0.864-2.016,0.864c-1.463,0-2.387-0.804-2.387-1.919
			c0-1.067,0.72-1.907,2.663-1.907h1.655v-0.096c0-0.875-0.528-1.391-1.596-1.391c-0.72,0-1.463,0.24-1.942,0.636l-0.588-1.092
			c0.684-0.527,1.679-0.792,2.71-0.792C491.855,216.527,492.923,217.403,492.923,219.25z M491.424,221.001v-0.744h-1.548
			c-1.02,0-1.295,0.384-1.295,0.852c0,0.54,0.456,0.888,1.224,0.888C490.536,221.997,491.172,221.661,491.424,221.001z"/>
		<path class="st5" d="M494.113,222.368l0.575-1.139c0.564,0.372,1.428,0.636,2.231,0.636c0.947,0,1.343-0.264,1.343-0.708
			c0-1.223-3.958-0.072-3.958-2.626c0-1.211,1.092-2.003,2.818-2.003c0.852,0,1.823,0.204,2.399,0.552l-0.576,1.14
			c-0.611-0.36-1.223-0.48-1.835-0.48c-0.911,0-1.343,0.3-1.343,0.72c0,1.295,3.958,0.144,3.958,2.65
			c0,1.199-1.104,1.979-2.903,1.979C495.756,223.088,494.688,222.776,494.113,222.368z"/>
		<path class="st5" d="M504.874,222.656c-0.359,0.288-0.899,0.432-1.438,0.432c-1.403,0-2.207-0.744-2.207-2.159v-3.083h-1.056
			v-1.199h1.056v-1.463h1.499v1.463h1.715v1.199h-1.715v3.046c0,0.624,0.312,0.959,0.888,0.959c0.312,0,0.611-0.084,0.84-0.264
			L504.874,222.656z"/>
		<path class="st5" d="M511.894,220.281h-5.025c0.18,0.936,0.959,1.535,2.075,1.535c0.719,0,1.283-0.228,1.738-0.695l0.804,0.923
			c-0.575,0.684-1.475,1.043-2.578,1.043c-2.147,0-3.538-1.379-3.538-3.286c0-1.907,1.403-3.274,3.31-3.274
			c1.871,0,3.238,1.308,3.238,3.311C511.917,219.958,511.905,220.138,511.894,220.281z M506.856,219.286h3.634
			c-0.12-0.924-0.828-1.56-1.812-1.56C507.708,217.727,507,218.351,506.856,219.286z"/>
		<path class="st5" d="M520.521,222.656c-0.359,0.288-0.899,0.432-1.438,0.432c-1.403,0-2.207-0.744-2.207-2.159v-3.083h-1.056
			v-1.199h1.056v-1.463h1.499v1.463h1.715v1.199h-1.715v3.046c0,0.624,0.312,0.959,0.888,0.959c0.312,0,0.611-0.084,0.839-0.264
			L520.521,222.656z"/>
		<path class="st5" d="M528.068,219.334v3.67h-1.499v-3.478c0-1.14-0.563-1.691-1.523-1.691c-1.067,0-1.787,0.647-1.787,1.931v3.238
			h-1.499v-8.899h1.499v3.238c0.492-0.527,1.247-0.815,2.135-0.815C526.929,216.527,528.068,217.403,528.068,219.334z"/>
		<path class="st5" d="M535.341,219.25v3.754h-1.415v-0.78c-0.36,0.552-1.056,0.864-2.016,0.864c-1.463,0-2.387-0.804-2.387-1.919
			c0-1.067,0.72-1.907,2.663-1.907h1.655v-0.096c0-0.875-0.528-1.391-1.596-1.391c-0.72,0-1.463,0.24-1.942,0.636l-0.588-1.092
			c0.684-0.527,1.679-0.792,2.71-0.792C534.273,216.527,535.341,217.403,535.341,219.25z M533.842,221.001v-0.744h-1.548
			c-1.02,0-1.295,0.384-1.295,0.852c0,0.54,0.456,0.888,1.224,0.888C532.954,221.997,533.59,221.661,533.842,221.001z"/>
		<path class="st5" d="M543.572,219.334v3.67h-1.499v-3.478c0-1.14-0.563-1.691-1.523-1.691c-1.067,0-1.787,0.647-1.787,1.931v3.238
			h-1.499V216.6h1.428v0.827c0.491-0.587,1.271-0.899,2.206-0.899C542.433,216.527,543.572,217.403,543.572,219.334z"/>
		<path class="st5" d="M270.845,238.368l0.576-1.139c0.563,0.372,1.427,0.636,2.23,0.636c0.948,0,1.343-0.264,1.343-0.708
			c0-1.223-3.958-0.072-3.958-2.626c0-1.211,1.091-2.003,2.818-2.003c0.852,0,1.823,0.204,2.398,0.552l-0.575,1.14
			c-0.612-0.36-1.224-0.48-1.835-0.48c-0.911,0-1.343,0.3-1.343,0.72c0,1.295,3.958,0.144,3.958,2.65
			c0,1.199-1.104,1.979-2.902,1.979C272.488,239.088,271.421,238.776,270.845,238.368z"/>
		<path class="st5" d="M277.229,235.802c0-1.919,1.439-3.274,3.406-3.274c1.991,0,3.418,1.355,3.418,3.274s-1.427,3.286-3.418,3.286
			C278.668,239.088,277.229,237.721,277.229,235.802z M282.542,235.802c0-1.224-0.816-2.003-1.907-2.003
			c-1.08,0-1.895,0.779-1.895,2.003c0,1.223,0.815,2.003,1.895,2.003C281.727,237.805,282.542,237.025,282.542,235.802z"/>
		<path class="st5" d="M285.497,230.105h1.499v8.899h-1.499V230.105z"/>
		<path class="st5" d="M294.326,235.25v3.754h-1.416v-0.78c-0.36,0.552-1.055,0.864-2.015,0.864c-1.463,0-2.387-0.804-2.387-1.919
			c0-1.067,0.72-1.907,2.663-1.907h1.655v-0.096c0-0.875-0.527-1.391-1.595-1.391c-0.719,0-1.463,0.24-1.943,0.636l-0.587-1.092
			c0.684-0.527,1.679-0.792,2.71-0.792C293.258,232.527,294.326,233.403,294.326,235.25z M292.826,237.001v-0.744h-1.547
			c-1.02,0-1.295,0.384-1.295,0.852c0,0.54,0.456,0.888,1.223,0.888C291.939,237.997,292.574,237.661,292.826,237.001z"/>
		<path class="st5" d="M299.954,232.527v1.427c-0.132-0.024-0.239-0.036-0.348-0.036c-1.14,0-1.859,0.671-1.859,1.979v3.106h-1.499
			V232.6h1.427v0.936C298.107,232.863,298.887,232.527,299.954,232.527z"/>
		<path class="st5" d="M311.4,235.802c0,1.991-1.379,3.286-3.25,3.286c-0.816,0-1.535-0.276-2.051-0.864v3.106h-1.5V232.6h1.428
			v0.839c0.504-0.612,1.248-0.912,2.123-0.912C310.021,232.527,311.4,233.823,311.4,235.802z M309.877,235.802
			c0-1.224-0.815-2.003-1.895-2.003c-1.08,0-1.907,0.779-1.907,2.003c0,1.223,0.827,2.003,1.907,2.003
			C309.062,237.805,309.877,237.025,309.877,235.802z"/>
		<path class="st5" d="M318.109,235.25v3.754h-1.416v-0.78c-0.359,0.552-1.055,0.864-2.014,0.864c-1.464,0-2.387-0.804-2.387-1.919
			c0-1.067,0.719-1.907,2.662-1.907h1.654v-0.096c0-0.875-0.527-1.391-1.595-1.391c-0.72,0-1.463,0.24-1.942,0.636l-0.588-1.092
			c0.684-0.527,1.679-0.792,2.711-0.792C317.042,232.527,318.109,233.403,318.109,235.25z M316.609,237.001v-0.744h-1.547
			c-1.02,0-1.295,0.384-1.295,0.852c0,0.54,0.455,0.888,1.223,0.888C315.723,237.997,316.357,237.661,316.609,237.001z"/>
		<path class="st5" d="M326.341,235.334v3.67h-1.499v-3.478c0-1.14-0.564-1.691-1.523-1.691c-1.067,0-1.787,0.647-1.787,1.931v3.238
			h-1.499V232.6h1.427v0.827c0.492-0.587,1.271-0.899,2.207-0.899C325.201,232.527,326.341,233.403,326.341,235.334z"/>
		<path class="st5" d="M334.309,236.281h-5.025c0.18,0.936,0.959,1.535,2.074,1.535c0.72,0,1.284-0.228,1.739-0.695l0.804,0.923
			c-0.575,0.684-1.475,1.043-2.578,1.043c-2.147,0-3.538-1.379-3.538-3.286c0-1.907,1.403-3.274,3.31-3.274
			c1.871,0,3.238,1.308,3.238,3.311C334.332,235.958,334.32,236.138,334.309,236.281z M329.271,235.286h3.634
			c-0.12-0.924-0.828-1.56-1.812-1.56C330.123,233.727,329.415,234.351,329.271,235.286z"/>
		<path class="st5" d="M335.775,230.105h1.499v8.899h-1.499V230.105z"/>
		<path class="st5" d="M338.512,238.368l0.575-1.139c0.564,0.372,1.428,0.636,2.231,0.636c0.947,0,1.343-0.264,1.343-0.708
			c0-1.223-3.958-0.072-3.958-2.626c0-1.211,1.092-2.003,2.818-2.003c0.852,0,1.823,0.204,2.399,0.552l-0.576,1.14
			c-0.611-0.36-1.223-0.48-1.835-0.48c-0.911,0-1.343,0.3-1.343,0.72c0,1.295,3.958,0.144,3.958,2.65
			c0,1.199-1.104,1.979-2.903,1.979C340.154,239.088,339.087,238.776,338.512,238.368z"/>
		<path class="st5" d="M355.007,230.105v8.899h-1.439v-0.828c-0.503,0.612-1.247,0.912-2.122,0.912
			c-1.859,0-3.238-1.295-3.238-3.286c0-1.991,1.379-3.274,3.238-3.274c0.827,0,1.559,0.276,2.062,0.864v-3.286H355.007z
			 M353.532,235.802c0-1.224-0.828-2.003-1.907-2.003s-1.907,0.779-1.907,2.003c0,1.223,0.828,2.003,1.907,2.003
			S353.532,237.025,353.532,235.802z"/>
		<path class="st5" d="M356.451,235.802c0-1.919,1.438-3.274,3.406-3.274c1.99,0,3.418,1.355,3.418,3.274s-1.428,3.286-3.418,3.286
			C357.89,239.088,356.451,237.721,356.451,235.802z M361.764,235.802c0-1.224-0.815-2.003-1.906-2.003
			c-1.08,0-1.896,0.779-1.896,2.003c0,1.223,0.815,2.003,1.896,2.003C360.948,237.805,361.764,237.025,361.764,235.802z"/>
		<path class="st5" d="M364.096,238.092c0-0.6,0.444-0.995,0.983-0.995c0.54,0,0.983,0.396,0.983,0.995
			c0,0.576-0.443,0.996-0.983,0.996C364.54,239.088,364.096,238.668,364.096,238.092z"/>
		<path class="st5" d="M383.252,230.608l-2.782,8.396h-1.655l-2.075-6.212l-2.11,6.212h-1.667l-2.782-8.396h1.619l2.086,6.381
			l2.171-6.381h1.439l2.123,6.417l2.146-6.417H383.252z"/>
		<path class="st5" d="M389.903,236.281h-5.025c0.18,0.936,0.959,1.535,2.075,1.535c0.719,0,1.283-0.228,1.738-0.695l0.804,0.923
			c-0.575,0.684-1.475,1.043-2.578,1.043c-2.147,0-3.538-1.379-3.538-3.286c0-1.907,1.403-3.274,3.31-3.274
			c1.871,0,3.238,1.308,3.238,3.311C389.927,235.958,389.915,236.138,389.903,236.281z M384.866,235.286h3.634
			c-0.12-0.924-0.828-1.56-1.812-1.56C385.718,233.727,385.01,234.351,384.866,235.286z"/>
		<path class="st5" d="M400.99,235.334v3.67h-1.499v-3.478c0-1.14-0.563-1.691-1.523-1.691c-1.067,0-1.787,0.647-1.787,1.931v3.238
			h-1.499v-8.899h1.499v3.238c0.492-0.527,1.247-0.815,2.135-0.815C399.851,232.527,400.99,233.403,400.99,235.334z"/>
		<path class="st5" d="M408.263,235.25v3.754h-1.415v-0.78c-0.36,0.552-1.056,0.864-2.016,0.864c-1.463,0-2.387-0.804-2.387-1.919
			c0-1.067,0.72-1.907,2.663-1.907h1.655v-0.096c0-0.875-0.528-1.391-1.596-1.391c-0.72,0-1.463,0.24-1.942,0.636l-0.588-1.092
			c0.684-0.527,1.679-0.792,2.71-0.792C407.195,232.527,408.263,233.403,408.263,235.25z M406.764,237.001v-0.744h-1.548
			c-1.02,0-1.295,0.384-1.295,0.852c0,0.54,0.456,0.888,1.224,0.888C405.876,237.997,406.512,237.661,406.764,237.001z"/>
		<path class="st5" d="M416.062,232.6l-2.747,6.404h-1.547l-2.746-6.404h1.559l1.991,4.749l2.051-4.749H416.062z"/>
		<path class="st5" d="M422.818,236.281h-5.025c0.18,0.936,0.959,1.535,2.074,1.535c0.72,0,1.284-0.228,1.739-0.695l0.804,0.923
			c-0.575,0.684-1.475,1.043-2.578,1.043c-2.147,0-3.538-1.379-3.538-3.286c0-1.907,1.403-3.274,3.31-3.274
			c1.871,0,3.238,1.308,3.238,3.311C422.842,235.958,422.83,236.138,422.818,236.281z M417.781,235.286h3.634
			c-0.12-0.924-0.828-1.56-1.812-1.56C418.633,233.727,417.925,234.351,417.781,235.286z"/>
		<path class="st5" d="M431.446,238.656c-0.359,0.288-0.899,0.432-1.438,0.432c-1.403,0-2.207-0.744-2.207-2.159v-3.083h-1.056
			v-1.199h1.056v-1.463h1.499v1.463h1.715v1.199H429.3v3.046c0,0.624,0.312,0.959,0.888,0.959c0.312,0,0.611-0.084,0.84-0.264
			L431.446,238.656z"/>
		<path class="st5" d="M438.993,235.334v3.67h-1.499v-3.478c0-1.14-0.563-1.691-1.523-1.691c-1.067,0-1.787,0.647-1.787,1.931v3.238
			h-1.499v-8.899h1.499v3.238c0.492-0.527,1.247-0.815,2.135-0.815C437.854,232.527,438.993,233.403,438.993,235.334z"/>
		<path class="st5" d="M446.961,236.281h-5.025c0.18,0.936,0.959,1.535,2.074,1.535c0.72,0,1.284-0.228,1.739-0.695l0.804,0.923
			c-0.575,0.684-1.475,1.043-2.578,1.043c-2.147,0-3.538-1.379-3.538-3.286c0-1.907,1.403-3.274,3.31-3.274
			c1.871,0,3.238,1.308,3.238,3.311C446.984,235.958,446.973,236.138,446.961,236.281z M441.924,235.286h3.634
			c-0.12-0.924-0.828-1.56-1.812-1.56C442.775,233.727,442.067,234.351,441.924,235.286z"/>
		<path class="st5" d="M451.008,238.368l0.575-1.139c0.564,0.372,1.428,0.636,2.231,0.636c0.947,0,1.343-0.264,1.343-0.708
			c0-1.223-3.958-0.072-3.958-2.626c0-1.211,1.092-2.003,2.818-2.003c0.852,0,1.823,0.204,2.399,0.552l-0.576,1.14
			c-0.611-0.36-1.223-0.48-1.835-0.48c-0.911,0-1.343,0.3-1.343,0.72c0,1.295,3.958,0.144,3.958,2.65
			c0,1.199-1.104,1.979-2.903,1.979C452.65,239.088,451.583,238.776,451.008,238.368z"/>
		<path class="st5" d="M457.392,235.802c0-1.919,1.438-3.274,3.406-3.274c1.99,0,3.418,1.355,3.418,3.274s-1.428,3.286-3.418,3.286
			C458.83,239.088,457.392,237.721,457.392,235.802z M462.704,235.802c0-1.224-0.815-2.003-1.906-2.003
			c-1.08,0-1.896,0.779-1.896,2.003c0,1.223,0.815,2.003,1.896,2.003C461.889,237.805,462.704,237.025,462.704,235.802z"/>
		<path class="st5" d="M465.659,230.105h1.499v8.899h-1.499V230.105z"/>
		<path class="st5" d="M475.327,232.6v6.404H473.9v-0.815c-0.479,0.587-1.235,0.899-2.062,0.899c-1.644,0-2.759-0.899-2.759-2.831
			V232.6h1.499v3.454c0,1.163,0.552,1.715,1.499,1.715c1.044,0,1.751-0.647,1.751-1.931V232.6H475.327z"/>
		<path class="st5" d="M481.148,238.656c-0.359,0.288-0.899,0.432-1.438,0.432c-1.403,0-2.207-0.744-2.207-2.159v-3.083h-1.056
			v-1.199h1.056v-1.463h1.499v1.463h1.715v1.199h-1.715v3.046c0,0.624,0.312,0.959,0.888,0.959c0.312,0,0.611-0.084,0.839-0.264
			L481.148,238.656z"/>
		<path class="st5" d="M482.183,230.645c0-0.504,0.408-0.899,0.96-0.899s0.959,0.372,0.959,0.863c0,0.528-0.396,0.936-0.959,0.936
			C482.591,231.544,482.183,231.148,482.183,230.645z M482.387,232.6h1.499v6.404h-1.499V232.6z"/>
		<path class="st5" d="M485.327,235.802c0-1.919,1.438-3.274,3.406-3.274c1.99,0,3.418,1.355,3.418,3.274s-1.428,3.286-3.418,3.286
			C486.766,239.088,485.327,237.721,485.327,235.802z M490.64,235.802c0-1.224-0.815-2.003-1.906-2.003
			c-1.08,0-1.896,0.779-1.896,2.003c0,1.223,0.815,2.003,1.896,2.003C489.824,237.805,490.64,237.025,490.64,235.802z"/>
		<path class="st5" d="M499.903,235.334v3.67h-1.499v-3.478c0-1.14-0.563-1.691-1.523-1.691c-1.067,0-1.787,0.647-1.787,1.931v3.238
			h-1.499V232.6h1.428v0.827c0.491-0.587,1.271-0.899,2.206-0.899C498.764,232.527,499.903,233.403,499.903,235.334z"/>
		<path class="st5" d="M508.976,238.656c-0.359,0.288-0.899,0.432-1.438,0.432c-1.403,0-2.207-0.744-2.207-2.159v-3.083h-1.056
			v-1.199h1.056v-1.463h1.499v1.463h1.715v1.199h-1.715v3.046c0,0.624,0.312,0.959,0.888,0.959c0.312,0,0.611-0.084,0.84-0.264
			L508.976,238.656z"/>
		<path class="st5" d="M509.471,235.802c0-1.919,1.438-3.274,3.406-3.274c1.99,0,3.418,1.355,3.418,3.274s-1.428,3.286-3.418,3.286
			C510.909,239.088,509.471,237.721,509.471,235.802z M514.783,235.802c0-1.224-0.815-2.003-1.906-2.003
			c-1.08,0-1.896,0.779-1.896,2.003c0,1.223,0.815,2.003,1.896,2.003C513.968,237.805,514.783,237.025,514.783,235.802z"/>
		<path class="st5" d="M520.522,235.802c0-1.919,1.438-3.274,3.406-3.274c1.99,0,3.418,1.355,3.418,3.274s-1.428,3.286-3.418,3.286
			C521.961,239.088,520.522,237.721,520.522,235.802z M525.835,235.802c0-1.224-0.815-2.003-1.906-2.003
			c-1.08,0-1.896,0.779-1.896,2.003c0,1.223,0.815,2.003,1.896,2.003C525.02,237.805,525.835,237.025,525.835,235.802z"/>
		<path class="st5" d="M534.99,232.6v6.404h-1.427v-0.815c-0.479,0.587-1.235,0.899-2.062,0.899c-1.644,0-2.759-0.899-2.759-2.831
			V232.6h1.499v3.454c0,1.163,0.552,1.715,1.499,1.715c1.044,0,1.751-0.647,1.751-1.931V232.6H534.99z"/>
		<path class="st5" d="M540.668,232.527v1.427c-0.132-0.024-0.24-0.036-0.348-0.036c-1.14,0-1.859,0.671-1.859,1.979v3.106h-1.499
			V232.6h1.428v0.936C538.821,232.863,539.601,232.527,540.668,232.527z"/>
		<path class="st5" d="M271.049,251.802c0-1.919,1.439-3.274,3.466-3.274c1.247,0,2.243,0.516,2.734,1.487l-1.151,0.672
			c-0.384-0.612-0.959-0.888-1.595-0.888c-1.103,0-1.943,0.768-1.943,2.003c0,1.247,0.84,2.003,1.943,2.003
			c0.636,0,1.211-0.276,1.595-0.888l1.151,0.672c-0.492,0.959-1.487,1.499-2.734,1.499
			C272.488,255.088,271.049,253.721,271.049,251.802z"/>
		<path class="st5" d="M278.489,246.105h1.499v8.899h-1.499V246.105z"/>
		<path class="st5" d="M287.953,252.281h-5.025c0.18,0.936,0.959,1.535,2.075,1.535c0.72,0,1.283-0.228,1.739-0.695l0.803,0.923
			c-0.576,0.684-1.475,1.043-2.579,1.043c-2.146,0-3.538-1.379-3.538-3.286c0-1.907,1.403-3.274,3.311-3.274
			c1.871,0,3.238,1.308,3.238,3.311C287.978,251.958,287.965,252.138,287.953,252.281z M282.916,251.286h3.634
			c-0.12-0.924-0.828-1.56-1.811-1.56C283.768,249.727,283.06,250.351,282.916,251.286z"/>
		<path class="st5" d="M294.602,251.25v3.754h-1.416v-0.78c-0.36,0.552-1.055,0.864-2.015,0.864c-1.463,0-2.387-0.804-2.387-1.919
			c0-1.067,0.72-1.907,2.663-1.907h1.655v-0.096c0-0.875-0.527-1.391-1.595-1.391c-0.719,0-1.463,0.24-1.943,0.636l-0.587-1.092
			c0.684-0.527,1.679-0.792,2.71-0.792C293.534,248.527,294.602,249.403,294.602,251.25z M293.103,253.001v-0.744h-1.547
			c-1.02,0-1.295,0.384-1.295,0.852c0,0.54,0.456,0.888,1.223,0.888C292.215,253.997,292.851,253.661,293.103,253.001z"/>
		<path class="st5" d="M302.834,251.334v3.67h-1.5v-3.478c0-1.14-0.563-1.691-1.523-1.691c-1.067,0-1.787,0.647-1.787,1.931v3.238
			h-1.499V248.6h1.427v0.827c0.492-0.587,1.271-0.899,2.207-0.899C301.694,248.527,302.834,249.403,302.834,251.334z"/>
		<path class="st5" d="M314.053,252.281h-5.024c0.18,0.936,0.96,1.535,2.075,1.535c0.719,0,1.283-0.228,1.738-0.695l0.804,0.923
			c-0.575,0.684-1.476,1.043-2.579,1.043c-2.146,0-3.537-1.379-3.537-3.286c0-1.907,1.402-3.274,3.311-3.274
			c1.87,0,3.237,1.308,3.237,3.311C314.077,251.958,314.065,252.138,314.053,252.281z M309.016,251.286h3.635
			c-0.12-0.924-0.828-1.56-1.811-1.56C309.867,249.727,309.16,250.351,309.016,251.286z"/>
		<path class="st5" d="M321.829,251.334v3.67h-1.499v-3.478c0-1.14-0.564-1.691-1.523-1.691c-1.067,0-1.787,0.647-1.787,1.931v3.238
			h-1.499V248.6h1.427v0.827c0.492-0.587,1.271-0.899,2.207-0.899C320.689,248.527,321.829,249.403,321.829,251.334z"/>
		<path class="st5" d="M329.797,252.281h-5.025c0.18,0.936,0.96,1.535,2.075,1.535c0.72,0,1.283-0.228,1.739-0.695l0.804,0.923
			c-0.576,0.684-1.476,1.043-2.579,1.043c-2.146,0-3.538-1.379-3.538-3.286c0-1.907,1.403-3.274,3.311-3.274
			c1.871,0,3.238,1.308,3.238,3.311C329.821,251.958,329.809,252.138,329.797,252.281z M324.76,251.286h3.634
			c-0.12-0.924-0.827-1.56-1.811-1.56C325.611,249.727,324.904,250.351,324.76,251.286z"/>
		<path class="st5" d="M334.971,248.527v1.427c-0.132-0.024-0.24-0.036-0.348-0.036c-1.14,0-1.859,0.671-1.859,1.979v3.106h-1.499
			V248.6h1.428v0.936C333.124,248.863,333.903,248.527,334.971,248.527z"/>
		<path class="st5" d="M342.541,248.6v5.433c0,2.327-1.211,3.382-3.454,3.382c-1.199,0-2.387-0.312-3.118-0.912l0.672-1.127
			c0.563,0.468,1.475,0.768,2.362,0.768c1.415,0,2.039-0.647,2.039-1.943v-0.335c-0.527,0.576-1.283,0.851-2.146,0.851
			c-1.835,0-3.238-1.247-3.238-3.106s1.403-3.083,3.238-3.083c0.899,0,1.69,0.288,2.219,0.924V248.6H342.541z M341.066,251.61
			c0-1.08-0.816-1.811-1.943-1.811c-1.14,0-1.955,0.731-1.955,1.811c0,1.091,0.815,1.835,1.955,1.835
			C340.25,253.445,341.066,252.701,341.066,251.61z"/>
		<path class="st5" d="M350.51,248.6l-2.999,6.92c-0.587,1.451-1.403,1.895-2.471,1.895c-0.635,0-1.307-0.216-1.715-0.587l0.6-1.104
			c0.288,0.276,0.696,0.444,1.104,0.444c0.528,0,0.84-0.252,1.128-0.888l0.107-0.252l-2.794-6.428h1.559l2.015,4.737l2.027-4.737
			H350.51z"/>
		<path class="st5" d="M356.415,248.264v0.384h1.763v1.199h-1.715v5.157h-1.499v-5.157h-1.056v-1.199h1.056v-0.408
			c0-1.343,0.804-2.219,2.291-2.219c0.516,0,1.019,0.108,1.354,0.348l-0.42,1.127c-0.228-0.156-0.516-0.264-0.827-0.264
			C356.738,247.232,356.415,247.58,356.415,248.264z"/>
		<path class="st5" d="M365.388,248.6v6.404h-1.427v-0.815c-0.479,0.587-1.235,0.899-2.062,0.899c-1.644,0-2.759-0.899-2.759-2.831
			V248.6h1.499v3.454c0,1.163,0.552,1.715,1.499,1.715c1.044,0,1.751-0.647,1.751-1.931V248.6H365.388z"/>
		<path class="st5" d="M371.209,254.656c-0.359,0.288-0.899,0.432-1.438,0.432c-1.403,0-2.207-0.744-2.207-2.159v-3.083h-1.056
			v-1.199h1.056v-1.463h1.499v1.463h1.715v1.199h-1.715v3.046c0,0.624,0.312,0.959,0.888,0.959c0.312,0,0.611-0.084,0.839-0.264
			L371.209,254.656z"/>
		<path class="st5" d="M378.647,248.6v6.404h-1.427v-0.815c-0.479,0.587-1.235,0.899-2.062,0.899c-1.644,0-2.759-0.899-2.759-2.831
			V248.6h1.499v3.454c0,1.163,0.552,1.715,1.499,1.715c1.044,0,1.751-0.647,1.751-1.931V248.6H378.647z"/>
		<path class="st5" d="M384.325,248.527v1.427c-0.132-0.024-0.24-0.036-0.348-0.036c-1.14,0-1.859,0.671-1.859,1.979v3.106h-1.499
			V248.6h1.428v0.936C382.479,248.863,383.258,248.527,384.325,248.527z"/>
		<path class="st5" d="M391.536,252.281h-5.025c0.18,0.936,0.959,1.535,2.075,1.535c0.719,0,1.283-0.228,1.738-0.695l0.804,0.923
			c-0.575,0.684-1.475,1.043-2.578,1.043c-2.147,0-3.538-1.379-3.538-3.286c0-1.907,1.403-3.274,3.31-3.274
			c1.871,0,3.238,1.308,3.238,3.311C391.56,251.958,391.548,252.138,391.536,252.281z M386.499,251.286h3.634
			c-0.12-0.924-0.828-1.56-1.812-1.56C387.351,249.727,386.643,250.351,386.499,251.286z"/>
		<path class="st5" d="M392.499,254.092c0-0.6,0.444-0.995,0.983-0.995c0.54,0,0.983,0.396,0.983,0.995
			c0,0.576-0.443,0.996-0.983,0.996C392.943,255.088,392.499,254.668,392.499,254.092z"/>
		<path class="st5" d="M399.386,246.608h1.56v7.076h4.39v1.319h-5.949V246.608z"/>
		<path class="st5" d="M412.368,252.281h-5.025c0.18,0.936,0.959,1.535,2.075,1.535c0.719,0,1.283-0.228,1.738-0.695l0.804,0.923
			c-0.575,0.684-1.475,1.043-2.578,1.043c-2.147,0-3.538-1.379-3.538-3.286c0-1.907,1.403-3.274,3.31-3.274
			c1.871,0,3.238,1.308,3.238,3.311C412.392,251.958,412.38,252.138,412.368,252.281z M407.331,251.286h3.634
			c-0.12-0.924-0.828-1.56-1.812-1.56C408.183,249.727,407.475,250.351,407.331,251.286z"/>
		<path class="st5" d="M417.685,254.656c-0.359,0.288-0.899,0.432-1.438,0.432c-1.403,0-2.207-0.744-2.207-2.159v-3.083h-1.056
			v-1.199h1.056v-1.463h1.499v1.463h1.715v1.199h-1.715v3.046c0,0.624,0.312,0.959,0.888,0.959c0.312,0,0.611-0.084,0.84-0.264
			L417.685,254.656z"/>
		<path class="st5" d="M420.386,247.004c0,0.276-0.048,0.479-0.264,1.031l-0.623,1.703h-0.972l0.479-1.847
			c-0.336-0.132-0.563-0.443-0.563-0.887c0-0.588,0.42-0.983,0.972-0.983C419.979,246.021,420.386,246.429,420.386,247.004z"/>
		<path class="st5" d="M420.915,254.368l0.575-1.139c0.564,0.372,1.428,0.636,2.231,0.636c0.947,0,1.343-0.264,1.343-0.708
			c0-1.223-3.958-0.072-3.958-2.626c0-1.211,1.092-2.003,2.819-2.003c0.851,0,1.822,0.204,2.398,0.552l-0.576,1.14
			c-0.611-0.36-1.223-0.48-1.835-0.48c-0.911,0-1.343,0.3-1.343,0.72c0,1.295,3.958,0.144,3.958,2.65
			c0,1.199-1.104,1.979-2.903,1.979C422.558,255.088,421.49,254.776,420.915,254.368z"/>
		<path class="st5" d="M430.406,254.368l0.575-1.139c0.564,0.372,1.428,0.636,2.231,0.636c0.947,0,1.343-0.264,1.343-0.708
			c0-1.223-3.958-0.072-3.958-2.626c0-1.211,1.092-2.003,2.818-2.003c0.852,0,1.823,0.204,2.399,0.552l-0.576,1.14
			c-0.611-0.36-1.223-0.48-1.835-0.48c-0.911,0-1.343,0.3-1.343,0.72c0,1.295,3.958,0.144,3.958,2.65
			c0,1.199-1.104,1.979-2.903,1.979C432.049,255.088,430.981,254.776,430.406,254.368z"/>
		<path class="st5" d="M441.167,254.656c-0.359,0.288-0.899,0.432-1.438,0.432c-1.403,0-2.207-0.744-2.207-2.159v-3.083h-1.056
			v-1.199h1.056v-1.463h1.499v1.463h1.715v1.199h-1.715v3.046c0,0.624,0.312,0.959,0.888,0.959c0.312,0,0.611-0.084,0.84-0.264
			L441.167,254.656z"/>
		<path class="st5" d="M441.662,251.802c0-1.919,1.438-3.274,3.406-3.274c1.99,0,3.418,1.355,3.418,3.274s-1.428,3.286-3.418,3.286
			C443.101,255.088,441.662,253.721,441.662,251.802z M446.975,251.802c0-1.224-0.815-2.003-1.906-2.003
			c-1.08,0-1.896,0.779-1.896,2.003c0,1.223,0.815,2.003,1.896,2.003C446.159,253.805,446.975,253.025,446.975,251.802z"/>
		<path class="st5" d="M456.73,251.802c0,1.991-1.38,3.286-3.251,3.286c-0.815,0-1.535-0.276-2.051-0.864v3.106h-1.499V248.6h1.428
			v0.839c0.503-0.612,1.247-0.912,2.122-0.912C455.351,248.527,456.73,249.823,456.73,251.802z M455.207,251.802
			c0-1.224-0.815-2.003-1.896-2.003c-1.079,0-1.906,0.779-1.906,2.003c0,1.223,0.827,2.003,1.906,2.003
			C454.392,253.805,455.207,253.025,455.207,251.802z"/>
		<path class="st5" d="M468.273,251.802c0,1.991-1.38,3.286-3.251,3.286c-0.875,0-1.619-0.3-2.122-0.912v0.828h-1.428v-8.899h1.499
			v3.274c0.516-0.576,1.235-0.852,2.051-0.852C466.894,248.527,468.273,249.811,468.273,251.802z M466.75,251.802
			c0-1.224-0.815-2.003-1.896-2.003c-1.079,0-1.906,0.779-1.906,2.003c0,1.223,0.827,2.003,1.906,2.003
			C465.935,253.805,466.75,253.025,466.75,251.802z"/>
		<path class="st5" d="M475.701,252.281h-5.025c0.18,0.936,0.959,1.535,2.074,1.535c0.72,0,1.284-0.228,1.739-0.695l0.804,0.923
			c-0.575,0.684-1.475,1.043-2.578,1.043c-2.147,0-3.538-1.379-3.538-3.286c0-1.907,1.403-3.274,3.31-3.274
			c1.871,0,3.238,1.308,3.238,3.311C475.725,251.958,475.713,252.138,475.701,252.281z M470.664,251.286h3.634
			c-0.12-0.924-0.828-1.56-1.812-1.56C471.516,249.727,470.808,250.351,470.664,251.286z"/>
		<path class="st5" d="M476.964,246.645c0-0.504,0.408-0.899,0.96-0.899s0.959,0.372,0.959,0.863c0,0.528-0.396,0.936-0.959,0.936
			C477.372,247.544,476.964,247.148,476.964,246.645z M477.168,248.6h1.499v6.404h-1.499V248.6z"/>
		<path class="st5" d="M486.944,251.334v3.67h-1.499v-3.478c0-1.14-0.563-1.691-1.523-1.691c-1.067,0-1.787,0.647-1.787,1.931v3.238
			h-1.499V248.6h1.428v0.827c0.491-0.587,1.271-0.899,2.206-0.899C485.805,248.527,486.944,249.403,486.944,251.334z"/>
		<path class="st5" d="M495.271,248.6v5.433c0,2.327-1.211,3.382-3.454,3.382c-1.199,0-2.387-0.312-3.118-0.912l0.672-1.127
			c0.563,0.468,1.475,0.768,2.362,0.768c1.415,0,2.039-0.647,2.039-1.943v-0.335c-0.527,0.576-1.283,0.851-2.146,0.851
			c-1.835,0-3.238-1.247-3.238-3.106s1.403-3.083,3.238-3.083c0.899,0,1.69,0.288,2.219,0.924V248.6H495.271z M493.797,251.61
			c0-1.08-0.816-1.811-1.943-1.811c-1.14,0-1.955,0.731-1.955,1.811c0,1.091,0.815,1.835,1.955,1.835
			C492.98,253.445,493.797,252.701,493.797,251.61z"/>
		<path class="st5" d="M505.916,251.25v3.754h-1.415v-0.78c-0.36,0.552-1.056,0.864-2.016,0.864c-1.463,0-2.387-0.804-2.387-1.919
			c0-1.067,0.72-1.907,2.663-1.907h1.655v-0.096c0-0.875-0.528-1.391-1.596-1.391c-0.72,0-1.463,0.24-1.942,0.636l-0.588-1.092
			c0.684-0.527,1.679-0.792,2.71-0.792C504.849,248.527,505.916,249.403,505.916,251.25z M504.417,253.001v-0.744h-1.548
			c-1.02,0-1.295,0.384-1.295,0.852c0,0.54,0.456,0.888,1.224,0.888C503.529,253.997,504.165,253.661,504.417,253.001z"/>
		<path class="st5" d="M509.494,248.264v0.384h1.763v1.199h-1.715v5.157h-1.499v-5.157h-1.056v-1.199h1.056v-0.408
			c0-1.343,0.804-2.219,2.291-2.219c0.516,0,1.019,0.108,1.354,0.348l-0.419,1.127c-0.229-0.156-0.517-0.264-0.828-0.264
			C509.817,247.232,509.494,247.58,509.494,248.264z"/>
		<path class="st5" d="M516.933,248.527v1.427c-0.132-0.024-0.24-0.036-0.348-0.036c-1.14,0-1.859,0.671-1.859,1.979v3.106h-1.499
			V248.6h1.428v0.936C515.086,248.863,515.865,248.527,516.933,248.527z"/>
		<path class="st5" d="M523.532,251.25v3.754h-1.415v-0.78c-0.36,0.552-1.056,0.864-2.016,0.864c-1.463,0-2.387-0.804-2.387-1.919
			c0-1.067,0.72-1.907,2.663-1.907h1.655v-0.096c0-0.875-0.528-1.391-1.596-1.391c-0.72,0-1.463,0.24-1.942,0.636l-0.588-1.092
			c0.684-0.527,1.679-0.792,2.71-0.792C522.465,248.527,523.532,249.403,523.532,251.25z M522.033,253.001v-0.744h-1.548
			c-1.02,0-1.295,0.384-1.295,0.852c0,0.54,0.456,0.888,1.224,0.888C521.146,253.997,521.781,253.661,522.033,253.001z"/>
		<path class="st5" d="M525.251,246.645c0-0.504,0.408-0.899,0.96-0.899s0.959,0.372,0.959,0.863c0,0.528-0.396,0.936-0.959,0.936
			C525.659,247.544,525.251,247.148,525.251,246.645z M525.455,248.6h1.499v6.404h-1.499V248.6z"/>
		<path class="st5" d="M535.195,246.105v8.899h-1.439v-0.828c-0.503,0.612-1.247,0.912-2.122,0.912
			c-1.859,0-3.238-1.295-3.238-3.286c0-1.991,1.379-3.274,3.238-3.274c0.827,0,1.559,0.276,2.062,0.864v-3.286H535.195z
			 M533.721,251.802c0-1.224-0.828-2.003-1.907-2.003s-1.907,0.779-1.907,2.003c0,1.223,0.828,2.003,1.907,2.003
			S533.721,253.025,533.721,251.802z"/>
		<path class="st5" d="M539.951,251.802c0-1.919,1.438-3.274,3.406-3.274c1.99,0,3.418,1.355,3.418,3.274s-1.428,3.286-3.418,3.286
			C541.39,255.088,539.951,253.721,539.951,251.802z M545.264,251.802c0-1.224-0.815-2.003-1.906-2.003
			c-1.08,0-1.896,0.779-1.896,2.003c0,1.223,0.815,2.003,1.896,2.003C544.448,253.805,545.264,253.025,545.264,251.802z"/>
		<path class="st5" d="M549.874,248.264v0.384h1.763v1.199h-1.715v5.157h-1.499v-5.157h-1.056v-1.199h1.056v-0.408
			c0-1.343,0.804-2.219,2.291-2.219c0.516,0,1.019,0.108,1.354,0.348l-0.42,1.127c-0.228-0.156-0.516-0.264-0.827-0.264
			C550.197,247.232,549.874,247.58,549.874,248.264z"/>
		<path class="st5" d="M555.754,246.645c0-0.504,0.408-0.899,0.96-0.899s0.959,0.372,0.959,0.863c0,0.528-0.396,0.936-0.959,0.936
			C556.162,247.544,555.754,247.148,555.754,246.645z M555.958,248.6h1.499v6.404h-1.499V248.6z"/>
		<path class="st5" d="M563.275,254.656c-0.359,0.288-0.899,0.432-1.438,0.432c-1.403,0-2.207-0.744-2.207-2.159v-3.083h-1.056
			v-1.199h1.056v-1.463h1.499v1.463h1.715v1.199h-1.715v3.046c0,0.624,0.312,0.959,0.888,0.959c0.312,0,0.611-0.084,0.839-0.264
			L563.275,254.656z"/>
		<path class="st5" d="M564.13,254.092c0-0.6,0.444-0.995,0.983-0.995c0.54,0,0.983,0.396,0.983,0.995
			c0,0.576-0.443,0.996-0.983,0.996C564.574,255.088,564.13,254.668,564.13,254.092z"/>
	</g>
	<path class="st5" d="M595.276,843.39H124.473l-1.683-1.5c32.697-90.039,35.119-185.242,31.393-249.252
		c-3.118-53.569-15.008-114.323-15.008-116.98l4.965-2.499c-0.894,0.707-0.088,2.251,0.895,6.845
		c8.873,19.272,54.759,38.119,128.935,52.565c84.479,16.454,198.596,26.332,321.328,27.814l1.496,0.019l-0.017,1.691V841.89h-1.5
		V843.39z M595.726,563.429c-122.342-1.546-238.02-11.493-322.331-27.914c-41.564-8.096-74.142-17.408-96.828-27.681
		c-14.048-6.36-23.374-12.246-29.234-19.104c3.884,19.692,9.527,56.372,12.254,103.152c3.721,63.835,0.967,160.158-31.225,250.104
		l466.914-0.098"/>
	<path class="st6" d="M595.278,561.884c-253.157-3.058-453.324-41.613-453.324-88.725c0-47.112,200.168-85.667,453.326-88.725"/>
</g>
<g id="logo">
	<path class="st7" d="M470.002,805.352c-1.659-0.482-2.991-1.108-3.997-1.878l1.766-3.917c0.963,0.706,2.108,1.274,3.435,1.702
		c1.327,0.428,2.654,0.642,3.981,0.642c1.477,0,2.568-0.219,3.275-0.658c0.706-0.438,1.06-1.022,1.06-1.75
		c0-0.535-0.209-0.979-0.626-1.332c-0.417-0.353-0.953-0.637-1.605-0.851c-0.653-0.214-1.536-0.449-2.649-0.706
		c-1.713-0.406-3.114-0.813-4.206-1.22c-1.092-0.406-2.028-1.06-2.809-1.958c-0.782-0.899-1.172-2.097-1.172-3.596
		c0-1.305,0.353-2.488,1.06-3.548c0.706-1.06,1.771-1.899,3.195-2.52c1.423-0.621,3.162-0.931,5.217-0.931
		c1.434,0,2.836,0.172,4.206,0.514c1.37,0.343,2.568,0.835,3.596,1.477l-1.605,3.949c-2.076-1.177-4.153-1.766-6.229-1.766
		c-1.456,0-2.531,0.236-3.227,0.706c-0.696,0.471-1.043,1.092-1.043,1.862c0,0.771,0.401,1.343,1.204,1.718
		c0.803,0.375,2.028,0.744,3.676,1.108c1.712,0.407,3.114,0.814,4.206,1.22c1.092,0.407,2.028,1.049,2.809,1.926
		c0.781,0.878,1.172,2.066,1.172,3.564c0,1.284-0.359,2.456-1.076,3.516c-0.717,1.06-1.793,1.9-3.227,2.52
		c-1.434,0.621-3.178,0.931-5.233,0.931C473.378,806.074,471.66,805.833,470.002,805.352z"/>
	<path class="st7" d="M508.705,805.689l-0.032-13.485l-6.614,11.109h-2.344l-6.582-10.82v13.196h-4.88v-22.474h4.302l8.412,13.966
		l8.283-13.966h4.27l0.064,22.474H508.705z"/>
	<path class="st7" d="M557.828,805.689l-4.335-6.261h-0.257h-4.527v6.261h-5.201v-22.474h9.728c1.991,0,3.719,0.332,5.185,0.995
		c1.466,0.664,2.595,1.605,3.387,2.825c0.792,1.22,1.188,2.665,1.188,4.334s-0.401,3.109-1.204,4.318
		c-0.803,1.21-1.943,2.135-3.419,2.777l5.041,7.224H557.828z M556.511,788.464c-0.814-0.674-2.002-1.011-3.564-1.011h-4.238v7.834
		h4.238c1.562,0,2.75-0.342,3.564-1.027c0.813-0.685,1.22-1.648,1.22-2.89C557.731,790.107,557.324,789.138,556.511,788.464z"/>
	<path class="st7" d="M571.44,787.452h-7.192v-4.238h19.585v4.238h-7.192v18.236h-5.201V787.452z"/>
	<path class="st7" d="M481.825,826.111v3.573h-14.898v-19.241h14.541v3.573h-10.115v4.178h8.933v3.463h-8.933v4.453H481.825z"/>
	<path class="st7" d="M502.662,810.444v19.241h-3.656l-9.593-11.682v11.682h-4.398v-19.241h3.683l9.566,11.682v-11.682H502.662z"/>
	<path class="st7" d="M521.414,826.111v3.573h-14.898v-19.241h14.541v3.573h-10.115v4.178h8.933v3.463h-8.933v4.453H521.414z"/>
	<path class="st7" d="M536.864,829.685l-3.711-5.36h-0.22h-3.876v5.36h-4.453v-19.241h8.328c1.704,0,3.184,0.284,4.439,0.852
		c1.255,0.568,2.221,1.374,2.9,2.419c0.678,1.045,1.017,2.281,1.017,3.711s-0.344,2.662-1.031,3.697
		c-0.687,1.036-1.663,1.828-2.927,2.378l4.315,6.185H536.864z M535.737,814.938c-0.697-0.577-1.714-0.866-3.051-0.866h-3.628v6.707
		h3.628c1.337,0,2.354-0.293,3.051-0.88c0.696-0.586,1.045-1.411,1.045-2.474C536.781,816.344,536.433,815.515,535.737,814.938z"/>
	<path class="st7" d="M557.986,819.939h4.068v7.806c-1.044,0.788-2.254,1.393-3.628,1.814c-1.374,0.421-2.758,0.632-4.151,0.632
		c-1.997,0-3.793-0.426-5.387-1.278c-1.594-0.852-2.845-2.034-3.752-3.546c-0.907-1.512-1.361-3.22-1.361-5.126
		c0-1.906,0.454-3.615,1.361-5.126c0.907-1.512,2.167-2.694,3.779-3.546c1.612-0.852,3.426-1.278,5.442-1.278
		c1.686,0,3.216,0.284,4.59,0.852c1.374,0.568,2.529,1.393,3.463,2.474l-2.859,2.639c-1.374-1.447-3.033-2.172-4.975-2.172
		c-1.228,0-2.318,0.257-3.271,0.77c-0.953,0.513-1.695,1.237-2.226,2.172c-0.532,0.935-0.797,2.007-0.797,3.216
		c0,1.191,0.265,2.254,0.797,3.188c0.531,0.935,1.269,1.663,2.213,2.185c0.944,0.522,2.02,0.783,3.23,0.783
		c1.282,0,2.437-0.275,3.463-0.825V819.939z"/>
	<path class="st7" d="M575.767,822.868v6.817h-4.453v-6.872l-7.449-12.369h4.728l5.14,8.548l5.14-8.548h4.37L575.767,822.868z"/>
	<path class="st8" d="M528.673,805.67h12.553c0,0-5.591-13.75-5.591-22.474h-7.011h-7.011c0,8.724-5.591,22.474-5.591,22.474h12.553
		"/>
</g>
</svg>
